<svg xmlns="http://www.w3.org/2000/svg" viewBox="0 0 1219.13 971.37"><defs><style>.cls-1,.cls-2,.cls-3,.cls-4,.cls-5,.cls-6,.cls-7,.cls-8{fill:none;stroke-width:8px;}.cls-1{stroke:#2892ce;}.cls-1,.cls-6,.cls-9{stroke-miterlimit:10;}.cls-2{stroke:#cc29cc;}.cls-2,.cls-3,.cls-4,.cls-5,.cls-6,.cls-7,.cls-8{stroke-linecap:round;}.cls-2,.cls-3,.cls-4,.cls-5,.cls-7,.cls-8{stroke-linejoin:round;}.cls-3{stroke:#ff6d00;}.cls-4{stroke:#1ce874;}.cls-5{stroke:#fcd017;}.cls-6{stroke:#e81c2c;}.cls-7{stroke:#8119f9;}.cls-8{stroke:#ff3bd6;}.cls-9{fill:#fff;stroke:#333;stroke-width:2px;}</style></defs><title>header_image_alt_reverse</title><g id="Layer_2" data-name="Layer 2"><g id="Layer_3" data-name="Layer 3"><rect class="cls-1" x="333.99" y="105.08" width="63.57" height="63.57" rx="13.79" ry="13.79" transform="translate(92.28 -141.92) rotate(25.03)"/><rect class="cls-1" x="1076.82" y="763.91" width="87.92" height="87.92" rx="13.79" ry="13.79" transform="translate(-257.78 899.44) rotate(-39.58)"/><polygon class="cls-2" points="649.78 265.84 608.85 258.51 579.61 288.08 573.93 246.89 536.78 228.22 574.2 210.09 580.48 168.98 609.28 198.97 650.32 192.24 630.7 228.9 649.78 265.84"/><polygon class="cls-3" points="1183.62 651.81 1170.84 631.56 1146.92 630.6 1162.23 612.2 1155.75 589.14 1177.99 598.02 1197.91 584.74 1196.34 608.63 1215.13 623.47 1191.92 629.36 1183.62 651.81"/><polygon class="cls-3" points="97.42 662.56 66.23 674.68 58.52 707.25 37.36 681.32 4 684.06 22.12 655.92 9.2 625.04 41.57 633.57 66.94 611.75 68.83 645.17 97.42 662.56"/><polygon class="cls-4" points="177.12 338.14 119.38 316.65 109.13 255.91 156.6 216.66 214.34 238.14 224.59 298.89 177.12 338.14"/><polygon class="cls-4" points="790.17 175.8 759.82 164.5 754.43 132.58 779.38 111.94 809.73 123.24 815.12 155.16 790.17 175.8"/><polygon class="cls-5" points="211.69 585.52 183.04 478.6 104.78 556.87 211.69 585.52"/><polygon class="cls-5" points="514.04 62.51 529.72 4 471.2 19.68 514.04 62.51"/><circle class="cls-6" cx="1093.78" cy="261.14" r="78.73"/><line class="cls-7" x1="936.46" y1="72.23" x2="930.31" y2="37.71"/><line class="cls-7" x1="949.24" y1="144.03" x2="943.09" y2="109.51"/><line class="cls-7" x1="921.13" y1="94.19" x2="886.61" y2="100.34"/><line class="cls-7" x1="992.94" y1="81.4" x2="958.42" y2="87.55"/><line class="cls-7" x1="924.25" y1="80.04" x2="895.49" y2="59.97"/><line class="cls-7" x1="984.06" y1="121.77" x2="955.3" y2="101.71"/><line class="cls-7" x1="928.94" y1="106.4" x2="908.88" y2="135.16"/><line class="cls-7" x1="970.67" y1="46.58" x2="950.61" y2="75.34"/><polygon class="cls-8" points="219.66 118.16 244.72 111.45 257.68 88.98 250.97 63.93 228.51 50.96 203.45 57.68 190.49 80.14 197.2 105.19 219.66 118.16"/><g id="Computer"><rect class="cls-9" x="198.78" y="245.37" width="900" height="575" rx="24.1" ry="24.1"/><path class="cls-9" d="M748.78,820.37v125h-200v-125H636v75c0,9,5.74,14,12.75,14s12.75-5,12.75-14v-75Z"/><rect class="cls-9" x="423.78" y="945.37" width="450" height="25" rx="10.55" ry="10.55"/></g><rect class="cls-9" x="223.78" y="270.37" width="850" height="525" rx="16.5" ry="16.5"/><rect class="cls-9" x="238.78" y="305.37" width="174" height="473"/><rect class="cls-9" x="425.78" y="630.37" width="106" height="148"/><rect class="cls-9" x="536.78" y="630.37" width="364" height="148"/><rect class="cls-9" x="911.78" y="305.37" width="148" height="473"/><rect class="cls-9" x="425.78" y="305.37" width="475" height="313"/><rect class="cls-9" x="238.78" y="401.37" width="174" height="20"/><rect class="cls-9" x="258.78" y="336.37" width="117.65" height="13"/><rect class="cls-9" x="258.78" y="359.28" width="96.51" height="13"/><rect class="cls-9" x="258.78" y="382.19" width="125" height="13"/><rect class="cls-9" x="258.78" y="405.1" width="119.49" height="13"/><rect class="cls-9" x="258.78" y="428.01" width="96.51" height="13"/><rect class="cls-9" x="258.78" y="450.92" width="109.38" height="13"/><rect class="cls-9" x="258.78" y="473.83" width="96.51" height="13"/><rect class="cls-9" x="258.78" y="496.73" width="119.49" height="13"/><rect class="cls-9" x="258.78" y="519.64" width="96.51" height="13"/><rect class="cls-9" x="258.78" y="542.55" width="109.38" height="13"/><rect class="cls-9" x="258.78" y="565.46" width="119.49" height="13"/><rect class="cls-9" x="258.78" y="588.37" width="96.51" height="13"/><polygon class="cls-9" points="253.85 342.74 244.34 337.25 244.34 348.23 253.85 342.74"/><polygon class="cls-9" points="253.85 457.74 244.34 452.25 244.34 463.23 253.85 457.74"/><polygon class="cls-9" points="253.85 548.74 244.34 543.25 244.34 554.23 253.85 548.74"/><polygon class="cls-9" points="253.85 571.74 244.34 566.25 244.34 577.23 253.85 571.74"/><rect class="cls-9" x="465.77" y="648.8" width="65.71" height="11.24"/><rect class="cls-9" x="447.78" y="632.8" width="83.7" height="11.24"/><circle class="cls-9" cx="457.12" cy="654.42" r="6.05"/><rect class="cls-9" x="465.77" y="663.5" width="65.71" height="11.24"/><circle class="cls-9" cx="457.12" cy="669.12" r="6.05"/><rect class="cls-9" x="465.77" y="678.2" width="65.71" height="11.24"/><rect class="cls-9" x="447.78" y="699.2" width="83.7" height="11.24"/><rect class="cls-9" x="433.78" y="699.2" width="11" height="11.24"/><rect class="cls-9" x="465.78" y="713.2" width="65.7" height="11.24"/><rect class="cls-9" x="451.78" y="713.2" width="11" height="11.24"/><rect class="cls-9" x="465.78" y="727.2" width="65.7" height="11.24"/><rect class="cls-9" x="451.78" y="727.2" width="11" height="11.24"/><rect class="cls-9" x="465.78" y="741.2" width="65.7" height="11.24"/><rect class="cls-9" x="451.78" y="741.2" width="11" height="11.24"/><rect class="cls-9" x="465.78" y="755.2" width="65.7" height="11.24"/><rect class="cls-9" x="451.78" y="755.2" width="11" height="11.24"/><rect class="cls-9" x="465.78" y="769.2" width="65.7" height="9.17"/><rect class="cls-9" x="451.78" y="769.2" width="11" height="9.17"/><circle class="cls-9" cx="457.12" cy="683.82" r="6.05"/><polygon class="cls-9" points="438.27 632.6 440.12 636.33 444.24 636.93 441.26 639.84 441.96 643.95 438.27 642.01 434.59 643.95 435.29 639.84 432.31 636.93 436.43 636.33 438.27 632.6"/><rect class="cls-9" x="548.78" y="640.37" width="44.85" height="35.54" rx="4.19" ry="4.19"/><rect class="cls-9" x="666.56" y="640.37" width="44.85" height="35.54" rx="4.19" ry="4.19"/><rect class="cls-9" x="725.45" y="640.37" width="44.85" height="35.54" rx="4.19" ry="4.19"/><rect class="cls-9" x="548.78" y="687.1" width="44.85" height="35.54" rx="4.19" ry="4.19"/><rect class="cls-9" x="607.67" y="687.1" width="44.85" height="35.54" rx="4.19" ry="4.19"/><rect class="cls-9" x="725.45" y="687.1" width="44.85" height="35.54" rx="4.19" ry="4.19"/><rect class="cls-9" x="784.34" y="687.1" width="44.85" height="35.54" rx="4.19" ry="4.19"/><rect class="cls-9" x="843.24" y="640.37" width="44.85" height="35.54" rx="4.19" ry="4.19"/><rect class="cls-9" x="843.24" y="687.1" width="44.85" height="35.54" rx="4.19" ry="4.19"/><rect class="cls-9" x="548.78" y="733.83" width="44.85" height="35.54" rx="4.19" ry="4.19"/><rect class="cls-9" x="607.67" y="733.83" width="44.85" height="35.54" rx="4.19" ry="4.19"/><rect class="cls-9" x="666.56" y="733.83" width="44.85" height="35.54" rx="4.19" ry="4.19"/><rect class="cls-9" x="725.45" y="733.83" width="44.85" height="35.54" rx="4.19" ry="4.19"/><rect class="cls-9" x="784.34" y="733.83" width="44.85" height="35.54" rx="4.19" ry="4.19"/><rect class="cls-9" x="843.24" y="733.83" width="44.85" height="35.54" rx="4.19" ry="4.19"/><rect class="cls-9" x="671.78" y="685.37" width="34" height="39" rx="1.57" ry="1.57"/><rect class="cls-9" x="614.78" y="638.37" width="34" height="39" rx="1.57" ry="1.57"/><rect class="cls-9" x="789.78" y="638.37" width="34" height="39" rx="1.57" ry="1.57"/><rect class="cls-9" x="433.78" y="322.37" width="458" height="288"/><polygon class="cls-9" points="659.77 542.37 593.77 503.37 593.77 426.37 659.77 456.37 659.77 542.37"/><polygon class="cls-9" points="724.77 503.37 659.77 542.37 659.77 456.37 724.77 426.37 724.77 503.37"/><polygon class="cls-9" points="593.77 426.37 659.77 456.37 724.77 426.37 659.77 404.37 593.77 426.37"/><rect class="cls-9" x="619.03" y="276.37" width="92" height="24" rx="5.47" ry="5.47"/><polygon class="cls-9" points="642.5 288.37 629.41 280.82 629.41 295.92 642.5 288.37"/><polygon class="cls-9" points="700.2 288.37 690.56 282.81 690.56 293.94 700.2 288.37"/><rect class="cls-9" x="659.53" y="280.37" width="4" height="16"/><rect class="cls-9" x="666.53" y="280.37" width="4" height="16"/><rect class="cls-9" x="697.78" y="280.37" width="3" height="16"/><line class="cls-9" x1="911.78" y1="389.37" x2="911.78" y2="389.37"/><polygon class="cls-9" points="929.36 335.37 917.88 328.59 917.88 315.2 929.36 320.41 929.36 335.37"/><polygon class="cls-9" points="940.67 328.59 929.36 335.37 929.36 320.41 940.67 315.2 940.67 328.59"/><polygon class="cls-9" points="917.88 315.2 929.36 320.41 940.67 315.2 929.36 311.37 917.88 315.2"/><rect class="cls-9" x="951.78" y="315.37" width="100" height="17" rx="6.98" ry="6.98"/><rect class="cls-9" x="1031.78" y="348.25" width="23" height="8" rx="2.21" ry="2.21"/><rect class="cls-9" x="1000.78" y="348.25" width="23" height="8" rx="2.21" ry="2.21"/><rect class="cls-9" x="969.78" y="348.25" width="23" height="8" rx="2.21" ry="2.21"/><rect class="cls-9" x="918.78" y="348.75" width="42" height="7" rx="2.21" ry="2.21"/><rect class="cls-9" x="976.78" y="410.37" width="76" height="7" rx="2.21" ry="2.21"/><rect class="cls-9" x="976.78" y="397.37" width="7" height="7" rx="2.21" ry="2.21"/><rect class="cls-9" x="976.78" y="422.37" width="76" height="7" rx="2.21" ry="2.21"/><rect class="cls-9" x="1031.78" y="361.25" width="23" height="8" rx="2.21" ry="2.21"/><rect class="cls-9" x="1000.78" y="361.25" width="23" height="8" rx="2.21" ry="2.21"/><rect class="cls-9" x="969.78" y="361.25" width="23" height="8" rx="2.21" ry="2.21"/><rect class="cls-9" x="918.78" y="361.75" width="42" height="7" rx="2.21" ry="2.21"/><rect class="cls-9" x="1031.78" y="374.25" width="23" height="8" rx="2.21" ry="2.21"/><rect class="cls-9" x="1000.78" y="374.25" width="23" height="8" rx="2.21" ry="2.21"/><rect class="cls-9" x="969.78" y="374.25" width="23" height="8" rx="2.21" ry="2.21"/><rect class="cls-9" x="918.78" y="374.75" width="42" height="7" rx="2.21" ry="2.21"/><rect class="cls-9" x="918.78" y="422.37" width="42" height="7"/><rect class="cls-9" x="918.78" y="410.37" width="29" height="7"/><rect class="cls-9" x="918.78" y="397.37" width="43" height="7"/><rect class="cls-9" x="976.78" y="529.37" width="76" height="7" rx="2.21" ry="2.21"/><rect class="cls-9" x="976.78" y="516.37" width="7" height="7" rx="2.21" ry="2.21"/><rect class="cls-9" x="976.78" y="541.37" width="76" height="7" rx="2.21" ry="2.21"/><rect class="cls-9" x="976.78" y="446.37" width="76" height="7" rx="2.21" ry="2.21"/><rect class="cls-9" x="976.78" y="458.37" width="76" height="7" rx="2.21" ry="2.21"/><rect class="cls-9" x="918.78" y="541.37" width="42" height="7"/><rect class="cls-9" x="918.78" y="529.37" width="29" height="7"/><rect class="cls-9" x="918.78" y="516.37" width="43" height="7"/><rect class="cls-9" x="918.78" y="446.37" width="34" height="7"/><rect class="cls-9" x="918.78" y="457.37" width="43" height="7"/><rect class="cls-9" x="976.78" y="588.37" width="76" height="7" rx="2.21" ry="2.21"/><rect class="cls-9" x="976.78" y="575.37" width="7" height="7" rx="2.21" ry="2.21"/><rect class="cls-9" x="976.78" y="600.37" width="76" height="7" rx="2.21" ry="2.21"/><rect class="cls-9" x="918.78" y="600.37" width="42" height="7"/><rect class="cls-9" x="918.78" y="588.37" width="29" height="7"/><rect class="cls-9" x="918.78" y="575.37" width="43" height="7"/><line class="cls-9" x1="1059.78" y1="389.37" x2="911.78" y2="389.37"/><line class="cls-9" x1="1059.78" y1="437.87" x2="911.78" y2="437.87"/><line class="cls-9" x1="1059.78" y1="556.87" x2="911.78" y2="556.87"/><line class="cls-9" x1="1059.78" y1="659.87" x2="911.78" y2="659.87"/><polygon class="cls-9" points="1051.78 509.37 918.77 509.37 918.77 499.62 918.77 472.37 1051.78 472.37 1051.78 509.37"/><path class="cls-9" d="M918.78,486.37c10-1,23,10,41,10,10.2,0,36-7,42-6s17,9,27,8,23-12.1,23-12.1"/></g></g></svg>