<svg id="header_sub" xmlns="http://www.w3.org/2000/svg" width="184.88" height="185" viewBox="0 0 184.88 185">
  <metadata><?xpacket begin="﻿" id="W5M0MpCehiHzreSzNTczkc9d"?>
<x:xmpmeta xmlns:x="adobe:ns:meta/" x:xmptk="Adobe XMP Core 5.6-c138 79.159824, 2016/09/14-01:09:01        ">
   <rdf:RDF xmlns:rdf="http://www.w3.org/1999/02/22-rdf-syntax-ns#">
      <rdf:Description rdf:about=""/>
   </rdf:RDF>
</x:xmpmeta>
                                                                                                    
                                                                                                    
                                                                                                    
                                                                                                    
                                                                                                    
                                                                                                    
                                                                                                    
                                                                                                    
                                                                                                    
                                                                                                    
                                                                                                    
                                                                                                    
                                                                                                    
                                                                                                    
                                                                                                    
                                                                                                    
                                                                                                    
                                                                                                    
                                                                                                    
                                                                                                    
                           
<?xpacket end="w"?></metadata>
<defs>
    <style>
      .cls-1 {
        fill: #7a7a7a;
      }

      .cls-1, .cls-2 {
        fill-rule: evenodd;
      }

      .cls-2 {
        fill: none;
        stroke: #f15a5a;
        stroke-width: 3px;
      }
    </style>
  </defs>
  <path id="art" class="cls-1" d="M2784.36,326.961V309.309q0-4.809-2.16-7.08t-6.53-2.27a20.2,20.2,0,0,0-8.64,2.05l0.9,2.1a16.577,16.577,0,0,1,7.64-2.051q3.42,0,4.96,1.929a9.058,9.058,0,0,1,1.54,5.713v1.758l-5.06.146q-6.12.123-9.36,2.271a6.835,6.835,0,0,0-3.24,6.03,7.159,7.159,0,0,0,2.18,5.542,8.631,8.631,0,0,0,6.08,2,10.985,10.985,0,0,0,4.99-1.062,12.529,12.529,0,0,0,4.11-3.626h0.2l0.61,4.2h1.78Zm-15.86-3.089a4.969,4.969,0,0,1-1.52-3.869,5.022,5.022,0,0,1,2.38-4.6q2.37-1.478,7.97-1.746l4.64-.195v2.612a8.459,8.459,0,0,1-9.16,9.18A6.217,6.217,0,0,1,2768.5,323.872Zm35.41-22.778a11.225,11.225,0,0,0-3.49,4.114h-0.17l-0.25-4.785h-2.05v26.538h2.42V312.312a11.734,11.734,0,0,1,2.17-7.275,6.7,6.7,0,0,1,5.57-2.881,14.055,14.055,0,0,1,3.44.415l0.47-2.319a20.805,20.805,0,0,0-3.62-.342A8.2,8.2,0,0,0,2803.91,301.094Zm22.14,22.742a7.641,7.641,0,0,1-1.07-4.517v-16.8h7.78v-2.1h-7.78V294h-1.25l-1.22,6.006-3.93,1.1v1.416h3.93v17.139q0,4.027,1.67,5.908t5.19,1.88a12.773,12.773,0,0,0,4.05-.586V324.91a18.12,18.12,0,0,1-4,.391A3.907,3.907,0,0,1,2826.05,323.836Z" transform="translate(-2665.12 -143)"/>
  <path id="code" class="cls-1" d="M2723.64,257.058a11.257,11.257,0,0,0,3.28-1.294v-5.005a14.657,14.657,0,0,1-7.25,1.905,6.036,6.036,0,0,1-5.11-2.283q-1.755-2.283-1.75-6.824,0-9.3,7.01-9.3a17.318,17.318,0,0,1,6,1.416l1.74-4.615a18.062,18.062,0,0,0-7.69-1.587q-6.3,0-9.63,3.663t-3.34,10.473q0,6.69,3.19,10.266t9.31,3.577A19.746,19.746,0,0,0,2723.64,257.058Zm35.16-23.816a11.893,11.893,0,0,0-9.27-3.772q-6.135,0-9.5,3.687t-3.37,10.254a16.735,16.735,0,0,0,1.56,7.422,11.257,11.257,0,0,0,4.47,4.907,12.966,12.966,0,0,0,6.69,1.709q6.06,0,9.45-3.711t3.39-10.327Q2762.22,237.015,2758.8,233.242Zm-14.61,3.309q1.62-2.392,5.24-2.393,6.885,0,6.88,9.253,0,9.351-6.83,9.35-6.915,0-6.91-9.35A12.194,12.194,0,0,1,2744.19,236.551Zm46.81,16.87h0.27l1,3.54h4.49V218.972H2791v9.839a34,34,0,0,0,.42,4.59h-0.3a9.292,9.292,0,0,0-8.1-3.931,9.491,9.491,0,0,0-7.95,3.7q-2.865,3.7-2.87,10.34,0,6.615,2.83,10.278a9.415,9.415,0,0,0,7.89,3.662,9.17,9.17,0,0,0,8.08-4.028h0Zm-11.3-2.967q-1.59-2.355-1.59-6.848c0-3.027.54-5.359,1.64-6.994a5.268,5.268,0,0,1,4.66-2.454,6.163,6.163,0,0,1,5.2,2.148q1.665,2.149,1.66,7.251v0.806c-0.03,2.979-.59,5.131-1.66,6.458s-2.79,1.989-5.15,1.989A5.342,5.342,0,0,1,2779.7,250.454Zm46.96,6.58a17.55,17.55,0,0,0,4.25-1.416v-4.663a23.245,23.245,0,0,1-4.43,1.5,20.707,20.707,0,0,1-4.45.452,7.384,7.384,0,0,1-5.64-2.112,8.838,8.838,0,0,1-2.13-6.042h18v-3.1q0-5.688-3.11-8.936a11.109,11.109,0,0,0-8.44-3.247,11.4,11.4,0,0,0-9.06,3.785q-3.3,3.784-3.3,10.4,0,6.446,3.56,10.12,3.54,3.673,9.85,3.674A26,26,0,0,0,2826.66,257.034Zm-1.66-21.5a7.474,7.474,0,0,1,1.62,5.066h-12.26a8.243,8.243,0,0,1,1.97-5.053,5.734,5.734,0,0,1,4.38-1.734A5.5,5.5,0,0,1,2825,235.537Z" transform="translate(-2665.12 -143)"/>
  <path id="design" class="cls-1" d="M2668.02,158.548q-2.88,3.638-2.88,10.522,0,6.543,2.9,9.961t8.4,3.418a9.816,9.816,0,0,0,8.69-4.541h0.2l0.61,4.053h1.58V143.972h-2.39v9.546q0,2.955.15,6.031h-0.15a9.862,9.862,0,0,0-3.76-3.589,11.017,11.017,0,0,0-4.98-1.05Q2670.9,154.91,2668.02,158.548Zm15.05,1.257q2.055,2.7,2.06,8.85v0.415q0,6.006-2.1,8.618c-1.4,1.742-3.59,2.613-6.59,2.613q-8.76,0-8.76-11.28c0-3.873.72-6.827,2.18-8.862a7.509,7.509,0,0,1,6.53-3.052C2679.47,157.107,2681.69,158.007,2683.07,159.805Zm33.28,22.29a19.245,19.245,0,0,0,4.15-1.331v-2.2a24.138,24.138,0,0,1-4.35,1.367,22.251,22.251,0,0,1-4,.318,8.966,8.966,0,0,1-7.16-2.881q-2.5-2.88-2.55-8.35h19.11v-1.953q0-5.615-2.71-8.887a9.08,9.08,0,0,0-7.39-3.271,10.327,10.327,0,0,0-8.43,3.821q-3.12,3.82-3.12,10.168,0,6.422,3.23,9.985t9.02,3.565A23.048,23.048,0,0,0,2716.35,182.1Zm0.64-22.437a11.6,11.6,0,0,1,2,7.215h-16.41a11.955,11.955,0,0,1,2.71-7.288,7.968,7.968,0,0,1,6.16-2.527A6.608,6.608,0,0,1,2716.99,159.658Zm32.52,12.293a7.535,7.535,0,0,0-2.45-2.356,28.4,28.4,0,0,0-5.22-2.332,20.642,20.642,0,0,1-5.78-2.783,4.132,4.132,0,0,1-1.47-3.32,3.293,3.293,0,0,1,1.9-2.979,10.51,10.51,0,0,1,5.15-1.074,19.1,19.1,0,0,1,7.25,1.611l0.91-2.2a20.985,20.985,0,0,0-8.16-1.611,12.139,12.139,0,0,0-6.99,1.733,5.447,5.447,0,0,0-2.51,4.712,5.931,5.931,0,0,0,.82,3.186,7.826,7.826,0,0,0,2.43,2.344,30.791,30.791,0,0,0,5.59,2.478,17.906,17.906,0,0,1,5.34,2.686,4.242,4.242,0,0,1,1.62,3.369,3.97,3.97,0,0,1-2.04,3.479,11.148,11.148,0,0,1-5.97,1.306,18.659,18.659,0,0,1-8.45-2v2.612a18.359,18.359,0,0,0,8.45,1.636c3.32,0,5.89-.639,7.69-1.917a6.3,6.3,0,0,0,2.71-5.481A5.722,5.722,0,0,0,2749.51,171.951Zm15.08-16.528h-2.42v26.538h2.42V155.423Zm-1.23-5a1.361,1.361,0,0,0,1.19-.635,3.107,3.107,0,0,0,.43-1.733,3.036,3.036,0,0,0-.43-1.734,1.375,1.375,0,0,0-1.19-.61q-1.53,0-1.53,2.344,0,2.367,1.53,2.368h0Zm27.32,5a12.559,12.559,0,0,0-4.05-.513,9.506,9.506,0,0,0-6.83,2.405,8.414,8.414,0,0,0-2.52,6.384,8.554,8.554,0,0,0,1.29,4.675,7.575,7.575,0,0,0,3.61,2.991q-3.39,2.026-3.39,4.687a3.454,3.454,0,0,0,.72,2.161,4.673,4.673,0,0,0,1.92,1.453,8.832,8.832,0,0,0-4.61,2.466,6.372,6.372,0,0,0-1.69,4.541,6.194,6.194,0,0,0,2.74,5.371c1.84,1.285,4.42,1.928,7.76,1.928,4.19,0,7.43-.761,9.7-2.282a7.356,7.356,0,0,0,3.41-6.482,6.087,6.087,0,0,0-2.3-5.164c-1.53-1.163-3.73-1.745-6.62-1.745h-4.63a6.575,6.575,0,0,1-3.24-.586,2.014,2.014,0,0,1-.96-1.856,3.62,3.62,0,0,1,.75-2.173,6.393,6.393,0,0,1,2.2-1.782,14.9,14.9,0,0,0,2.54.147,9.647,9.647,0,0,0,6.85-2.381,8.107,8.107,0,0,0,2.55-6.213,9.349,9.349,0,0,0-2.2-6.006l5.5-.342v-1.684h-8.5Zm-5.69,25.293h4.35q3.66,0,5.29,1.074a3.843,3.843,0,0,1,1.64,3.467q0,6.664-10.45,6.665-8.13,0-8.13-5.469,0-5.738,7.3-5.737h0Zm-3.45-22.083a6.732,6.732,0,0,1,4.99-1.819,7.174,7.174,0,0,1,5.09,1.7,6.644,6.644,0,0,1,1.82,5.09,6.423,6.423,0,0,1-1.77,4.883,8.371,8.371,0,0,1-10.09-.012,6.133,6.133,0,0,1-1.86-4.773A6.819,6.819,0,0,1,2781.54,158.633Zm48.98,23.328V164.6q0-9.692-9.04-9.692-6.615,0-9.2,4.15h-0.15l-0.46-3.637h-2.05v26.538h2.42V167.312c0-3.6.73-6.2,2.21-7.8s3.79-2.405,6.97-2.405q3.54,0,5.22,1.819c1.12,1.213,1.69,3.154,1.69,5.823v17.212h2.39Z" transform="translate(-2665.12 -143)"/>
  <path class="cls-2" d="M2848.5,143.008V327.992" transform="translate(-2665.12 -143)"/>
</svg>
