<svg xmlns="http://www.w3.org/2000/svg" viewBox="0 0 552.3 223.96"><defs><style>.cls-1{fill:#333;}</style></defs><title>logo</title><g id="Layer_2" data-name="Layer 2"><g id="Layer_1-2" data-name="Layer 1"><path class="cls-1" d="M63.9,109.65l-11-32.4H23.25L11.7,109.65H22.95v2.85H0v-2.85H7L45.3,6.6H57.6l37.8,103h6.9v2.85h-49v-2.85Zm-25.2-75L24.6,74H51.75Z"/><path class="cls-1" d="M105,41.1h36.15V54.9a24.93,24.93,0,0,1,7.35-11.1q4.95-4.2,15-4.2,23.25,0,23.25,25V109.8h8.4v2.7H152.7v-2.7h6.15V61q0-9-1.2-11.62a4.37,4.37,0,0,0-4.35-2.62q-4.8,0-8.47,6.3a29.87,29.87,0,0,0-3.67,15.3v41.4h6.45v2.7H105v-2.7h8.25v-66H105Z"/><path class="cls-1" d="M248.1,112.5,246.45,102q-5.1,12-20.7,12-12.9,0-20-9.3T198.6,77q0-37.35,29.7-37.35,13.2,0,17.4,7.35V2.7h-9.15V0H274V109.8h7.35v2.7Zm-18.9-10.12q1.65,5.18,6.08,5.17a9.66,9.66,0,0,0,7.65-3.9q3.22-3.9,3.22-11.55V59.4a21.91,21.91,0,0,0-2.55-10.95,8.15,8.15,0,0,0-7.5-4.5q-4.95,0-6.75,6.6t-1.8,23.1v7.8Q227.55,97.2,229.2,102.38Z"/><path class="cls-1" d="M335.4,45.3q-5.55,0-9.75,7.2a33.34,33.34,0,0,0-4.2,17.1v40.2H332.1v2.7H285.3v-2.7h8.25v-66H285.3V41.1h36.15V55.5a20.34,20.34,0,0,1,7.5-11.77,20.58,20.58,0,0,1,12.6-4.12q7,0,11.47,4t4.43,11.25q0,7.28-3.3,11.17T344,69.9q-6.83,0-10-4.5T333.15,53h5.4Q342.29,45.3,335.4,45.3Z"/><path class="cls-1" d="M369.22,104q-9.68-10-9.67-27.75T370.42,49Q381.3,39.6,398.1,39.6q34,0,32.7,34.2H388.5v5.85q0,14.7,3.75,22.2t13,7.5q17.4,0,22.8-18.6l2.7.45Q427.95,102,420.52,108t-22.27,6Q378.9,114,369.22,104ZM388.65,70.8H404.1V63.45q0-12.15-1.42-16.58T397,42.45q-4.27,0-6.3,4.72t-2,16.28Z"/><path class="cls-1" d="M483,43.8V41.1h38.7v2.7h-6.15L529,94.35,542.4,43.8H532V41.1H552.3v2.7H546l-18,68.7H507.45l-13-46-14.1,46H460.2L438,43.8h-6.75V41.1H476.7v2.7h-9l13.8,51,10.8-35.1-3.75-15.9Z"/><path class="cls-1" d="M25.5,117.46H74.25v2.85H66v64.8q0,20.25-9.15,29.47T29.4,223.81q-12.15,0-19.27-4.65a14.73,14.73,0,0,1-7.12-13Q3,199.66,6.6,196t9.83-3.68q6.22,0,9.3,3.15A10.46,10.46,0,0,1,28.8,203,25.8,25.8,0,0,1,27.15,212H21.3a8.35,8.35,0,0,0-1.35,4.28,4.15,4.15,0,0,0,2,3.45,9,9,0,0,0,5.33,1.43q6,0,7.72-4.73t1.73-20.47v-75.6H25.5Z"/><path class="cls-1" d="M110.4,187.21h4.35V175.66q0-14.25-1.57-19.12t-6.08-4.87a8.7,8.7,0,0,0-4.87,1.42,4.43,4.43,0,0,0-2.17,3.9,15,15,0,0,0,.9,5h3.75a21.32,21.32,0,0,1,1.2,7.58,9.8,9.8,0,0,1-3.75,7.65,14,14,0,0,1-9.45,3.22q-12.9,0-12.9-12.45,0-18.45,31.35-18.45,17.85,0,24.67,6.08t6.83,22.28v30.45q0,7.8,4.35,7.8,5.1,0,6-15.45l2.25.15q-.6,13.2-4.95,18.15t-14.25,5q-18,0-20.7-11.1a16.16,16.16,0,0,1-5.85,8.4q-3.9,2.7-11.4,2.7-22.2,0-22.2-18.15,0-10.65,8.47-14.62T110.4,187.21Zm-5.17,28.5a3.11,3.11,0,0,0,3.15,2.25q2.32,0,4.35-3.83t2-10.58V189.61h-1q-9.3,0-9.3,13.65v2.4Q104.4,213.46,105.23,215.71Z"/><path class="cls-1" d="M156.75,151.06H192.9v13.8q4.95-15.3,21.82-15.3t20.48,16.2q5.25-16.2,22-16.2,22.05,0,22,25.05v45.15h8.4v2.7H246.15v-2.7h5.25V171q0-11.4-2-13.35a3.24,3.24,0,0,0-2.4-.9q-4.35,0-7.65,5.85t-3.3,14.85v42.3h5.4v2.7H203v-2.7h5.25V171q0-11.4-2-13.35a3.24,3.24,0,0,0-2.4-.9q-4.2,0-7.57,6.38a32.14,32.14,0,0,0-3.37,15.23v41.4h5.4v2.7H156.75v-2.7H165v-66h-8.25Z"/><path class="cls-1" d="M300.37,214q-9.68-10-9.67-27.75T301.57,159q10.87-9.45,27.67-9.45,34,0,32.7,34.2h-42.3v5.85q0,14.7,3.75,22.2t13,7.5q17.4,0,22.8-18.6l2.7.45Q359.1,212,351.67,218t-22.27,6Q310,224,300.37,214Zm19.42-33.23h15.45v-7.35q0-12.15-1.42-16.58t-5.7-4.42q-4.27,0-6.3,4.72t-2,16.28Z"/><path class="cls-1" d="M369.3,224V197.11h1.8q3.9,13,10.5,18.3t16.5,5.25q15.3,0,15.3-9.75a6.8,6.8,0,0,0-3.75-6.3,50.56,50.56,0,0,0-15-5.1,58.65,58.65,0,0,1-17.1-7.2q-8.25-5.4-8.25-17.1t7.2-18.67q7.2-7,19.2-7A37.37,37.37,0,0,1,410.85,153a12.41,12.41,0,0,0,4.35,1.2,3.48,3.48,0,0,0,2.55-1,17.32,17.32,0,0,0,2.55-3.9h1.65v23h-1.8q-7.65-19.5-23.7-19.5-7.05,0-10.5,2.47a7.41,7.41,0,0,0-3.45,6.23,5.38,5.38,0,0,0,1,3.52q1,1.28,1.65,1.88a7.64,7.64,0,0,0,2,1.28q1.35.68,2.25,1c.6.25,1.52.58,2.78,1a21.86,21.86,0,0,0,2.77.75,114.73,114.73,0,0,1,14.7,4.42,50.13,50.13,0,0,1,8.55,4.58q8.25,5.7,8.25,18.38t-7.5,19.2Q411.44,224,398.4,224a39.8,39.8,0,0,1-18-4.35,5.78,5.78,0,0,0-2.85-1.2q-3.3,0-6.45,5.55Z"/></g></g></svg>