<svg xmlns="http://www.w3.org/2000/svg" viewBox="0 0 249.47 379.71"><defs><style>.cls-1,.cls-2{fill:none;stroke:#333;stroke-miterlimit:10;stroke-width:3px;}.cls-2{stroke-linecap:round;}</style></defs><title>face</title><g id="Layer_2" data-name="Layer 2"><g id="Layer_2-2" data-name="Layer 2"><path class="cls-1" d="M237.07,196.49c.72-2.95,5-3.77,7.42-1.9s3,5.33,2.41,8.31-2,5.7-3.11,8.53c-6.37,16.79,1.67,36-2.64,53.43a14,14,0,0,1-3.06,6.41,6.28,6.28,0,0,1-6.51,1.89c-2.24-.84-3.6-3.75-3.19-6.25"/><path class="cls-1" d="M10.79,193.69c.68-3-4.25-5.07-6.8-3.32s-3,5.46-2,8.41,2.88,5.45,4.27,8.21c4.13,8.18,3.16,17.88,2.26,27s3.44,27.42,5.62,27.53c2.39.73,1.71-3.85,2.5-4.58"/><path class="cls-1" d="M237.12,191.61c1.42-28.78,3.83-51.91,6.13-78.2.85,1.12,2.83.46,3.39-.82a5.54,5.54,0,0,0-.35-4.09,36.93,36.93,0,0,0-13.15-17L247,91.42a29.61,29.61,0,0,0-24.45-15.53L233,67.51A65.89,65.89,0,0,1,198.64,30.6l-3.59,2.65-8.5-12.11L182.69,29A601.09,601.09,0,0,0,103.15,3.51L115.92,12A103.53,103.53,0,0,0,40.14,41.13C31.72,49.39,24.54,59.6,22.87,71.27l-4.57-.35c-11,39.51-14.62,76.49-7.93,116.95,0,0,8,121.27,18.72,135.22,9.78,12.69,48,55.13,88.83,55.13,37.33,0,79.59-32.31,92.36-48.68C225.05,310.6,235.45,225.31,237.12,191.61Z"/><path class="cls-2" d="M13,207.52c4.89-17.42,5.14-32.82,10-50.23,2.75-9.78,10.4-18.31,11.34-31.71.67-9.56-3.11-17.85,2.39-25.7,7.87-11.24,27.79-16.66,41.45-15.37a363.49,363.49,0,0,0,99.92-4.12c8.71-1.59,18.31-.57,25.78,4.17,11.43,7.25,12,16,13.83,29.46,1.25,9.15-2.08,33.7,7.07,46.18,7,9.56,2,27,4.16,38.69,2.62,13.9,1.87,21.43,4.78,31.41"/><path class="cls-1" d="M44.36,199a43.48,43.48,0,0,1,54.46,1.87"/><path class="cls-1" d="M195.52,207c-6.75-5.76-11.66-10.84-23.72-10.84A48.6,48.6,0,0,0,146,203.95"/><path class="cls-1" d="M161.85,197.79a12.05,12.05,0,0,0,3.83,11.73,10.28,10.28,0,0,0,12.07.65c3.54-2.49,5-9,2.78-12.74"/><path class="cls-1" d="M62.38,191.2a14.28,14.28,0,0,0,1.25,8.32,10.18,10.18,0,0,0,6.61,4.71,7.93,7.93,0,0,0,6.05-1.64c3-2.21,4.51-7.32,4-11"/><path class="cls-1" d="M99.42,242.43c-4.82,2.92-9.87,6.08-12.5,11.07s-1.65,12.34,3.47,14.71c3.91,1.81,8.61.17,12.78,1.27,6.24,1.64,10.41,9.1,16.85,8.79,5.77-.28,9.41-6.74,15-8.22,4.26-1.12,9.36.73,12.87-1.94,3.09-2.35,3.15-7,2.1-10.75a26.9,26.9,0,0,0-9.78-14.18"/><path class="cls-1" d="M73.42,307.4c11.09.49,22-8.15,32.53-4.53,1.89.65,3.67,1.69,5.66,2,2.75.38,5.45-.78,8.13-1.51,7.17-2,14.89-1,21.93,1.41s13.5,6.2,19.92,10"/><path class="cls-1" d="M77.14,309.59a414.72,414.72,0,0,0,72.81.75"/><path class="cls-1" d="M77.37,315.64a55.93,55.93,0,0,0,74.85.42"/><path class="cls-1" d="M104,183.71c1.25-1.25-9.57-15.81-37-17.06s-34.53,10-33.28,11.65,10-.42,21.63-.83c10.43-.37,26.76,1.11,31.2,1.66C93.16,180,102.73,185,104,183.71Z"/><path class="cls-1" d="M141,186.2c-1.25-1.25,9.57-15.81,37-17.06s34.53,10,33.28,11.65-10-.42-21.63-.83c-10.43-.37-26.76,1.11-31.2,1.66C151.79,182.46,142.22,187.45,141,186.2Z"/><circle class="cls-1" cx="71.11" cy="195.36" r="4.58"/><circle class="cls-1" cx="171.8" cy="201.6" r="4.58"/><path class="cls-1" d="M109.39,195.36s.78,10.37.62,26.21c-.21,20.8-2.91,30.79-2.91,30.79"/><path class="cls-1" d="M112.65,282.52s-1.25,6.1-1.8,9.43l-1.25,7.49"/><path class="cls-1" d="M118.66,282.29s.33,5.6.65,9,1.2,8.13,1.2,8.13"/></g></g></svg>