<svg xmlns="http://www.w3.org/2000/svg" viewBox="0 0 337.89 551.23"><defs><style>.cls-1,.cls-2{fill:none;stroke:#333;stroke-linejoin:round;stroke-width:3px;}.cls-1{stroke-linecap:round;}</style></defs><title>misc_header_wire_1</title><g id="Layer_2" data-name="Layer 2"><g id="Layer_2-2" data-name="Layer 2"><path class="cls-1" d="M99.57,364V337.12q0-34.87,14.89-60.66t54.48-54.85q38.14-27.24,50.31-44.31a64.17,64.17,0,0,0,12.17-38.14q0-23.61-17.43-36T165.31,90.85q-54.48,0-124.22,35.6L1.5,46.9q81-45.4,171.8-45.4,74.82,0,119,36t44.13,95.89q0,40-18.16,69t-69,65.38Q214.35,293.54,205.08,307t-9.26,35.23V364Zm43,62.85,56,15.61,15.06,29.23-15.24,61.76-39.54,16.29L104.65,533.8,86.73,482.26,109,438.17Z"/><polyline class="cls-2" points="41.09 126.45 50.81 23.81 121.39 95.59 130.73 4.26 209.39 99.59 292.26 37.46 318.23 202.36 226.73 164.92 238.65 275.73 158.44 230.92 197.39 324.92 99.57 364"/><line class="cls-2" x1="197.39" y1="324.92" x2="108.64" y2="288.22"/><line class="cls-2" x1="209.39" y1="99.59" x2="304.77" y2="116.92"/><line class="cls-2" x1="226.73" y1="164.92" x2="304.77" y2="116.92"/><line class="cls-2" x1="334.27" y1="108.25" x2="304.77" y2="116.92"/><line class="cls-2" x1="292.26" y1="37.46" x2="167.24" y2="48.5"/><line class="cls-2" x1="121.39" y1="95.59" x2="167.24" y2="48.5"/><line class="cls-2" x1="214.73" y1="4.26" x2="167.24" y2="48.5"/><line class="cls-2" x1="232.38" y1="217.48" x2="318.23" y2="202.36"/><line class="cls-2" x1="158.44" y1="230.92" x2="232.38" y2="217.48"/><line class="cls-2" x1="167.24" y1="48.5" x2="127.01" y2="40.65"/><line class="cls-2" x1="1.5" y1="46.9" x2="46.24" y2="72.05"/><line class="cls-2" x1="90.91" y1="64.59" x2="46.24" y2="72.05"/><line class="cls-2" x1="121.39" y1="95.59" x2="46.24" y2="72.05"/><line class="cls-2" x1="90.91" y1="64.59" x2="127.01" y2="40.65"/><line class="cls-2" x1="50.81" y1="23.81" x2="127.01" y2="40.65"/><line class="cls-2" x1="132.15" y1="253.34" x2="153.02" y2="306.57"/><line class="cls-2" x1="100.08" y1="324.56" x2="153.02" y2="306.57"/><line class="cls-2" x1="99.57" y1="364" x2="153.02" y2="306.57"/><line class="cls-2" x1="232.38" y1="217.48" x2="201.3" y2="254.86"/><line class="cls-2" x1="153.02" y1="306.57" x2="178.76" y2="279.95"/><line class="cls-2" x1="201.3" y1="254.86" x2="178.76" y2="279.95"/><line class="cls-2" x1="238.65" y1="275.73" x2="178.76" y2="279.95"/><line class="cls-2" x1="132.15" y1="253.34" x2="178.76" y2="279.95"/><line class="cls-2" x1="304.77" y1="116.92" x2="270.21" y2="182.71"/><line class="cls-2" x1="232.38" y1="217.48" x2="270.21" y2="182.71"/><line class="cls-2" x1="108.96" y1="438.17" x2="198.37" y2="533.44"/><line class="cls-2" x1="198.55" y1="442.45" x2="104.65" y2="533.8"/><line class="cls-2" x1="86.73" y1="482.26" x2="153.66" y2="488.13"/><line class="cls-2" x1="213.6" y1="471.68" x2="153.66" y2="488.13"/><line class="cls-2" x1="158.82" y1="549.73" x2="153.66" y2="488.13"/><line class="cls-2" x1="142.59" y1="426.84" x2="153.66" y2="488.13"/></g></g></svg>