<svg xmlns="http://www.w3.org/2000/svg" viewBox="0 0 809 507"><defs><style>.cls-1{fill:none;stroke:#333;stroke-miterlimit:10;stroke-width:2px;}</style></defs><title>python_header_wire</title><g id="Layer_2" data-name="Layer 2"><g id="Layer_2-2" data-name="Layer 2"><rect class="cls-1" x="466.78" y="347" width="44.85" height="35.54" rx="4.19" ry="4.19"/><rect class="cls-1" x="525.68" y="347" width="44.85" height="35.54" rx="4.19" ry="4.19"/><path class="cls-1" d="M452.74,397.92v27.16a4.2,4.2,0,0,1-3.74,4.17v-35.5A4.2,4.2,0,0,1,452.74,397.92Z"/><rect class="cls-1" x="525.68" y="393.73" width="44.85" height="35.54" rx="4.19" ry="4.19"/><rect class="cls-1" x="584.57" y="393.73" width="44.85" height="35.54" rx="4.19" ry="4.19"/><rect class="cls-1" x="643.46" y="347" width="44.85" height="35.54" rx="4.19" ry="4.19"/><rect class="cls-1" x="643.46" y="393.73" width="44.85" height="35.54" rx="4.19" ry="4.19"/><path class="cls-1" d="M452.74,444.65v27.16a4.2,4.2,0,0,1-4.19,4.19h-7.06a7.51,7.51,0,0,0,7.51-7.51v-28A4.2,4.2,0,0,1,452.74,444.65Z"/><rect class="cls-1" x="466.78" y="440.46" width="44.85" height="35.54" rx="4.19" ry="4.19"/><rect class="cls-1" x="525.68" y="440.46" width="44.85" height="35.54" rx="4.19" ry="4.19"/><rect class="cls-1" x="584.57" y="440.46" width="44.85" height="35.54" rx="4.19" ry="4.19"/><rect class="cls-1" x="643.46" y="440.46" width="44.85" height="35.54" rx="4.19" ry="4.19"/><rect class="cls-1" x="472" y="392" width="34" height="39" rx="1.57" ry="1.57"/><rect class="cls-1" x="590" y="345" width="34" height="39" rx="1.57" ry="1.57"/><path class="cls-1" d="M716,338V492.39c0,.2,0,.41,0,.61a13.59,13.59,0,0,1-13.59,13H279.61A13.59,13.59,0,0,1,266,493c0-.2,0-.41,0-.61V476H441.49a7.51,7.51,0,0,0,7.51-7.51V287h21v37.39a13.44,13.44,0,0,0,.49,3.61,13.6,13.6,0,0,0,13.12,10Z"/><line class="cls-1" x1="470.49" y1="328" x2="449" y2="328"/><line class="cls-1" x1="266" y1="493" x2="716" y2="493"/><line class="cls-1" x1="329" y1="493" x2="329" y2="476"/><rect class="cls-1" x="449" y="304" width="21" height="18"/><line class="cls-1" x1="464" y1="304" x2="464" y2="322"/><path class="cls-1" d="M449,8.51v460a7.51,7.51,0,0,1-7.51,7.51H8.51A7.51,7.51,0,0,1,1,468.49V8.51A7.51,7.51,0,0,1,8.51,1h433A7.51,7.51,0,0,1,449,8.51Z"/><rect class="cls-1" x="475" y="65" width="50.82" height="7.8"/><rect class="cls-1" x="475" y="78.75" width="41.69" height="7.8"/><rect class="cls-1" x="475" y="92.49" width="54" height="7.8"/><rect class="cls-1" x="475" y="106.24" width="51.62" height="7.8"/><rect class="cls-1" x="475" y="119.98" width="41.69" height="7.8"/><rect class="cls-1" x="475" y="133.73" width="47.25" height="7.8"/><rect class="cls-1" x="475" y="147.47" width="41.69" height="7.8"/><rect class="cls-1" x="475" y="161.22" width="51.62" height="7.8"/><rect class="cls-1" x="475" y="174.96" width="41.69" height="7.8"/><rect class="cls-1" x="475" y="188.71" width="47.25" height="7.8"/><rect class="cls-1" x="475" y="202.45" width="51.62" height="7.8"/><rect class="cls-1" x="553" y="74" width="44.85" height="35.54" rx="4.19" ry="4.19"/><rect class="cls-1" x="670.78" y="74" width="44.85" height="35.54" rx="4.19" ry="4.19"/><rect class="cls-1" x="729.68" y="74" width="44.85" height="35.54" rx="4.19" ry="4.19"/><rect class="cls-1" x="553" y="120.73" width="44.85" height="35.54" rx="4.19" ry="4.19"/><rect class="cls-1" x="611.89" y="120.73" width="44.85" height="35.54" rx="4.19" ry="4.19"/><rect class="cls-1" x="729.68" y="120.73" width="44.85" height="35.54" rx="4.19" ry="4.19"/><rect class="cls-1" x="553" y="167.46" width="44.85" height="35.54" rx="4.19" ry="4.19"/><rect class="cls-1" x="611.89" y="167.46" width="44.85" height="35.54" rx="4.19" ry="4.19"/><rect class="cls-1" x="553" y="214.46" width="44.85" height="35.54" rx="4.19" ry="4.19"/><rect class="cls-1" x="611.89" y="214.46" width="44.85" height="35.54" rx="4.19" ry="4.19"/><rect class="cls-1" x="670.78" y="167.46" width="44.85" height="35.54" rx="4.19" ry="4.19"/><rect class="cls-1" x="729.68" y="167.46" width="44.85" height="35.54" rx="4.19" ry="4.19"/><rect class="cls-1" x="676" y="119" width="34" height="39" rx="1.57" ry="1.57"/><rect class="cls-1" x="619" y="72" width="34" height="39" rx="1.57" ry="1.57"/><rect class="cls-1" x="470" y="14" width="338" height="324" rx="13.61" ry="13.61"/><line class="cls-1" x1="470" y1="55" x2="808" y2="55"/><line class="cls-1" x1="470" y1="314" x2="808" y2="314"/><line class="cls-1" x1="533" y1="55" x2="533" y2="314"/><rect class="cls-1" x="681" y="31" width="28" height="18" rx="4.69" ry="4.69"/><rect class="cls-1" x="482" y="31" width="41" height="18" rx="4.69" ry="4.69"/><rect class="cls-1" x="718" y="31" width="28" height="18" rx="4.69" ry="4.69"/><rect class="cls-1" x="754" y="31" width="28" height="18" rx="4.69" ry="4.69"/><rect class="cls-1" x="569" y="31" width="92" height="18" rx="4.69" ry="4.69"/><line class="cls-1" x1="593" y1="31" x2="593" y2="49"/><line class="cls-1" x1="616" y1="31" x2="616" y2="49"/><line class="cls-1" x1="639" y1="31" x2="639" y2="49"/><line class="cls-1" x1="503" y1="30" x2="503" y2="48"/><circle class="cls-1" cx="486.5" cy="22.5" r="4.5"/><circle class="cls-1" cx="502.5" cy="22.5" r="4.5"/><circle class="cls-1" cx="518.5" cy="22.5" r="4.5"/><rect class="cls-1" x="1" y="1" width="448" height="475" rx="7.51" ry="7.51"/><rect class="cls-1" x="101" y="26" width="334" height="436"/><rect class="cls-1" x="15" y="26" width="79" height="436"/><rect class="cls-1" x="114" y="52" width="184" height="8"/><rect class="cls-1" x="114" y="68" width="175" height="8"/><rect class="cls-1" x="295" y="68" width="30" height="8"/><rect class="cls-1" x="114" y="84" width="184" height="8"/><rect class="cls-1" x="114" y="100" width="88" height="8"/><rect class="cls-1" x="210" y="100" width="25" height="8"/><rect class="cls-1" x="114" y="116" width="127" height="8"/><rect class="cls-1" x="114" y="132" width="230" height="8"/><rect class="cls-1" x="186" y="148" width="112" height="8"/><rect class="cls-1" x="114" y="148" width="63" height="8"/><rect class="cls-1" x="114" y="164" width="96" height="8"/><rect class="cls-1" x="114" y="180" width="184" height="8"/><rect class="cls-1" x="114" y="196" width="230" height="8"/><rect class="cls-1" x="114" y="212" width="184" height="8"/><rect class="cls-1" x="114" y="228" width="88" height="8"/><rect class="cls-1" x="114" y="290" width="184" height="8"/><rect class="cls-1" x="114" y="306" width="230" height="8"/><rect class="cls-1" x="114" y="338" width="88" height="8"/><rect class="cls-1" x="114" y="354" width="127" height="8"/><rect class="cls-1" x="114" y="370" width="230" height="8"/><rect class="cls-1" x="114" y="386" width="184" height="8"/><rect class="cls-1" x="114" y="402" width="96" height="8"/><rect class="cls-1" x="114" y="450" width="184" height="8"/><circle class="cls-1" cx="19.5" cy="12.5" r="4.5"/><circle class="cls-1" cx="35.5" cy="12.5" r="4.5"/><circle class="cls-1" cx="51.5" cy="12.5" r="4.5"/><path class="cls-1" d="M808,27.61V324.39A13.61,13.61,0,0,1,794.39,338H483.61a13.6,13.6,0,0,1-13.12-10,13.44,13.44,0,0,1-.49-3.61V27.61A13.61,13.61,0,0,1,483.61,14H794.39A13.61,13.61,0,0,1,808,27.61Z"/></g></g></svg>