<svg xmlns="http://www.w3.org/2000/svg" viewBox="0 0 852 527"><defs><style>.cls-1{fill:none;stroke:#333;stroke-miterlimit:10;stroke-width:2px;}</style></defs><title>unity_header_wire</title><g id="Layer_2" data-name="Layer 2"><g id="Layer_2-2" data-name="Layer 2"><rect class="cls-1" x="1" y="1" width="850" height="525" rx="16.5" ry="16.5"/><rect class="cls-1" x="16" y="36" width="174" height="473"/><rect class="cls-1" x="203" y="361" width="106" height="148"/><rect class="cls-1" x="314" y="361" width="364" height="148"/><rect class="cls-1" x="689" y="36" width="148" height="473"/><rect class="cls-1" x="203" y="36" width="475" height="313"/><rect class="cls-1" x="16" y="132" width="174" height="20"/><rect class="cls-1" x="36" y="67" width="117.65" height="13"/><rect class="cls-1" x="36" y="89.91" width="96.51" height="13"/><rect class="cls-1" x="36" y="112.82" width="125" height="13"/><rect class="cls-1" x="36" y="135.73" width="119.49" height="13"/><rect class="cls-1" x="36" y="158.64" width="96.51" height="13"/><rect class="cls-1" x="36" y="181.55" width="109.38" height="13"/><rect class="cls-1" x="36" y="204.45" width="96.51" height="13"/><rect class="cls-1" x="36" y="227.36" width="119.49" height="13"/><rect class="cls-1" x="36" y="250.27" width="96.51" height="13"/><rect class="cls-1" x="36" y="273.18" width="109.38" height="13"/><rect class="cls-1" x="36" y="296.09" width="119.49" height="13"/><rect class="cls-1" x="36" y="319" width="96.51" height="13"/><polygon class="cls-1" points="31.07 73.37 21.56 67.87 21.56 78.86 31.07 73.37"/><polygon class="cls-1" points="31.07 188.37 21.56 182.87 21.56 193.86 31.07 188.37"/><polygon class="cls-1" points="31.07 279.37 21.56 273.87 21.56 284.86 31.07 279.37"/><polygon class="cls-1" points="31.07 302.37 21.56 296.87 21.56 307.86 31.07 302.37"/><rect class="cls-1" x="242.99" y="379.43" width="65.71" height="11.24"/><rect class="cls-1" x="225" y="363.43" width="83.7" height="11.24"/><circle class="cls-1" cx="234.35" cy="385.05" r="6.05"/><rect class="cls-1" x="242.99" y="394.13" width="65.71" height="11.24"/><circle class="cls-1" cx="234.35" cy="399.75" r="6.05"/><rect class="cls-1" x="242.99" y="408.83" width="65.71" height="11.24"/><rect class="cls-1" x="225" y="429.83" width="83.7" height="11.24"/><rect class="cls-1" x="211" y="429.83" width="11" height="11.24"/><rect class="cls-1" x="243" y="443.83" width="65.7" height="11.24"/><rect class="cls-1" x="229" y="443.83" width="11" height="11.24"/><rect class="cls-1" x="243" y="457.83" width="65.7" height="11.24"/><rect class="cls-1" x="229" y="457.83" width="11" height="11.24"/><rect class="cls-1" x="243" y="471.83" width="65.7" height="11.24"/><rect class="cls-1" x="229" y="471.83" width="11" height="11.24"/><rect class="cls-1" x="243" y="485.83" width="65.7" height="11.24"/><rect class="cls-1" x="229" y="485.83" width="11" height="11.24"/><rect class="cls-1" x="243" y="499.83" width="65.7" height="9.17"/><rect class="cls-1" x="229" y="499.83" width="11" height="9.17"/><circle class="cls-1" cx="234.35" cy="414.45" r="6.05"/><polygon class="cls-1" points="215.5 363.23 217.34 366.96 221.47 367.56 218.48 370.47 219.19 374.58 215.5 372.64 211.81 374.58 212.52 370.47 209.53 367.56 213.66 366.96 215.5 363.23"/><rect class="cls-1" x="326" y="371" width="44.85" height="35.54" rx="4.19" ry="4.19"/><rect class="cls-1" x="443.78" y="371" width="44.85" height="35.54" rx="4.19" ry="4.19"/><rect class="cls-1" x="502.68" y="371" width="44.85" height="35.54" rx="4.19" ry="4.19"/><rect class="cls-1" x="326" y="417.73" width="44.85" height="35.54" rx="4.19" ry="4.19"/><rect class="cls-1" x="384.89" y="417.73" width="44.85" height="35.54" rx="4.19" ry="4.19"/><rect class="cls-1" x="502.68" y="417.73" width="44.85" height="35.54" rx="4.19" ry="4.19"/><rect class="cls-1" x="561.57" y="417.73" width="44.85" height="35.54" rx="4.19" ry="4.19"/><rect class="cls-1" x="620.46" y="371" width="44.85" height="35.54" rx="4.19" ry="4.19"/><rect class="cls-1" x="620.46" y="417.73" width="44.85" height="35.54" rx="4.19" ry="4.19"/><rect class="cls-1" x="326" y="464.46" width="44.85" height="35.54" rx="4.19" ry="4.19"/><rect class="cls-1" x="384.89" y="464.46" width="44.85" height="35.54" rx="4.19" ry="4.19"/><rect class="cls-1" x="443.78" y="464.46" width="44.85" height="35.54" rx="4.19" ry="4.19"/><rect class="cls-1" x="502.68" y="464.46" width="44.85" height="35.54" rx="4.19" ry="4.19"/><rect class="cls-1" x="561.57" y="464.46" width="44.85" height="35.54" rx="4.19" ry="4.19"/><rect class="cls-1" x="620.46" y="464.46" width="44.85" height="35.54" rx="4.19" ry="4.19"/><rect class="cls-1" x="449" y="416" width="34" height="39" rx="1.57" ry="1.57"/><rect class="cls-1" x="392" y="369" width="34" height="39" rx="1.57" ry="1.57"/><rect class="cls-1" x="567" y="369" width="34" height="39" rx="1.57" ry="1.57"/><rect class="cls-1" x="211" y="53" width="458" height="288"/><polygon class="cls-1" points="437 273 371 234 371 157 437 187 437 273"/><polygon class="cls-1" points="502 234 437 273 437 187 502 157 502 234"/><polygon class="cls-1" points="371 157 437 187 502 157 437 135 371 157"/><rect class="cls-1" x="396.25" y="7" width="92" height="24" rx="5.47" ry="5.47"/><polygon class="cls-1" points="419.72 19 406.64 11.45 406.64 26.55 419.72 19"/><polygon class="cls-1" points="477.43 19 467.79 13.43 467.79 24.57 477.43 19"/><rect class="cls-1" x="436.75" y="11" width="4" height="16"/><rect class="cls-1" x="443.75" y="11" width="4" height="16"/><rect class="cls-1" x="475" y="11" width="3" height="16"/><line class="cls-1" x1="689" y1="120" x2="689" y2="120"/><polygon class="cls-1" points="706.59 66 695.11 59.22 695.11 45.83 706.59 51.04 706.59 66"/><polygon class="cls-1" points="717.89 59.22 706.59 66 706.59 51.04 717.89 45.83 717.89 59.22"/><polygon class="cls-1" points="695.11 45.83 706.59 51.04 717.89 45.83 706.59 42 695.11 45.83"/><rect class="cls-1" x="729" y="46" width="100" height="17" rx="6.98" ry="6.98"/><rect class="cls-1" x="809" y="78.88" width="23" height="8" rx="2.21" ry="2.21"/><rect class="cls-1" x="778" y="78.88" width="23" height="8" rx="2.21" ry="2.21"/><rect class="cls-1" x="747" y="78.88" width="23" height="8" rx="2.21" ry="2.21"/><rect class="cls-1" x="696" y="79.38" width="42" height="7" rx="2.21" ry="2.21"/><rect class="cls-1" x="754" y="141" width="76" height="7" rx="2.21" ry="2.21"/><rect class="cls-1" x="754" y="128" width="7" height="7" rx="2.21" ry="2.21"/><rect class="cls-1" x="754" y="153" width="76" height="7" rx="2.21" ry="2.21"/><rect class="cls-1" x="809" y="91.88" width="23" height="8" rx="2.21" ry="2.21"/><rect class="cls-1" x="778" y="91.88" width="23" height="8" rx="2.21" ry="2.21"/><rect class="cls-1" x="747" y="91.88" width="23" height="8" rx="2.21" ry="2.21"/><rect class="cls-1" x="696" y="92.38" width="42" height="7" rx="2.21" ry="2.21"/><rect class="cls-1" x="809" y="104.88" width="23" height="8" rx="2.21" ry="2.21"/><rect class="cls-1" x="778" y="104.88" width="23" height="8" rx="2.21" ry="2.21"/><rect class="cls-1" x="747" y="104.88" width="23" height="8" rx="2.21" ry="2.21"/><rect class="cls-1" x="696" y="105.38" width="42" height="7" rx="2.21" ry="2.21"/><rect class="cls-1" x="696" y="153" width="42" height="7"/><rect class="cls-1" x="696" y="141" width="29" height="7"/><rect class="cls-1" x="696" y="128" width="43" height="7"/><rect class="cls-1" x="754" y="260" width="76" height="7" rx="2.21" ry="2.21"/><rect class="cls-1" x="754" y="247" width="7" height="7" rx="2.21" ry="2.21"/><rect class="cls-1" x="754" y="272" width="76" height="7" rx="2.21" ry="2.21"/><rect class="cls-1" x="754" y="177" width="76" height="7" rx="2.21" ry="2.21"/><rect class="cls-1" x="754" y="189" width="76" height="7" rx="2.21" ry="2.21"/><rect class="cls-1" x="696" y="272" width="42" height="7"/><rect class="cls-1" x="696" y="260" width="29" height="7"/><rect class="cls-1" x="696" y="247" width="43" height="7"/><rect class="cls-1" x="696" y="177" width="34" height="7"/><rect class="cls-1" x="696" y="188" width="43" height="7"/><rect class="cls-1" x="754" y="319" width="76" height="7" rx="2.21" ry="2.21"/><rect class="cls-1" x="754" y="306" width="7" height="7" rx="2.21" ry="2.21"/><rect class="cls-1" x="754" y="331" width="76" height="7" rx="2.21" ry="2.21"/><rect class="cls-1" x="696" y="331" width="42" height="7"/><rect class="cls-1" x="696" y="319" width="29" height="7"/><rect class="cls-1" x="696" y="306" width="43" height="7"/><line class="cls-1" x1="837" y1="120" x2="689" y2="120"/><line class="cls-1" x1="837" y1="168.5" x2="689" y2="168.5"/><line class="cls-1" x1="837" y1="287.5" x2="689" y2="287.5"/><line class="cls-1" x1="837" y1="390.5" x2="689" y2="390.5"/><polygon class="cls-1" points="829 240 696 240 696 230.25 696 203 829 203 829 240"/><path class="cls-1" d="M696,217c10-1,23,10,41,10,10.2,0,36-7,42-6s17,9,27,8,23-12.1,23-12.1"/></g></g></svg>