<svg xmlns="http://www.w3.org/2000/svg" viewBox="0 0 180.21 202.4"><defs><style>.cls-1{fill:#666;}.cls-2{fill:#f15a5a;}</style></defs><title>header_sub_2</title><g id="Layer_2" data-name="Layer 2"><g id="Layer_4" data-name="Layer 4"><path class="cls-1" d="M12.63,33.43H10.42V4.08H.21V2H22.84V4.08H12.63Z"/><path class="cls-1" d="M36.39,33.86a10.17,10.17,0,0,1-7.94-3.14q-2.85-3.14-2.85-8.79A13.7,13.7,0,0,1,28.36,13a9.08,9.08,0,0,1,7.41-3.36,8,8,0,0,1,6.51,2.88,11.89,11.89,0,0,1,2.38,7.82V22H27.84q0,4.81,2.25,7.35a7.9,7.9,0,0,0,6.31,2.54,19.53,19.53,0,0,0,3.51-.28,21.27,21.27,0,0,0,3.83-1.2v1.93a17.06,17.06,0,0,1-3.65,1.17A20.33,20.33,0,0,1,36.39,33.86Zm-.62-22.34a7,7,0,0,0-5.41,2.22A10.48,10.48,0,0,0,28,20.15H42.41a10.19,10.19,0,0,0-1.76-6.35A5.81,5.81,0,0,0,35.77,11.52Z"/><path class="cls-1" d="M60.44,33.86a10,10,0,0,1-7.84-3.16q-2.84-3.16-2.84-8.81,0-5.8,2.94-9a10.35,10.35,0,0,1,8.06-3.23,16.21,16.21,0,0,1,5.8,1.05L66,12.57a17,17,0,0,0-5.26-1,8,8,0,0,0-6.51,2.65Q52,16.87,52,21.85a11.28,11.28,0,0,0,2.21,7.4,7.58,7.58,0,0,0,6.19,2.67,15.18,15.18,0,0,0,5.91-1.14v2A13.39,13.39,0,0,1,60.44,33.86Z"/><path class="cls-1" d="M88.3,33.43V18.28q0-3.52-1.48-5.12a6,6,0,0,0-4.6-1.6q-4.19,0-6.13,2.12t-1.94,6.86V33.43H72V0h2.13V10.63l-.11,3h.15a7.84,7.84,0,0,1,3.31-3.05,11.58,11.58,0,0,1,5-.95q7.95,0,7.95,8.53V33.43Z"/><path class="cls-1" d="M114.25,33.43V18.28q0-3.52-1.48-5.12a6,6,0,0,0-4.6-1.6q-4.19,0-6.13,2.12t-1.94,6.86V33.43H98V10.08h1.8l.41,3.2h.13q2.28-3.65,8.1-3.65,7.95,0,7.95,8.53V33.43Z"/><path class="cls-1" d="M123.62,3.59q0-2.06,1.35-2.06a1.2,1.2,0,0,1,1,.54,2.64,2.64,0,0,1,.38,1.53A2.71,2.71,0,0,1,126,5.11a1.19,1.19,0,0,1-1,.56Q123.62,5.67,123.62,3.59ZM126,33.43h-2.13V10.08H126Z"/><path class="cls-1" d="M143.19,33.86a10,10,0,0,1-7.84-3.16q-2.84-3.16-2.84-8.81,0-5.8,2.94-9a10.35,10.35,0,0,1,8.06-3.23,16.21,16.21,0,0,1,5.8,1.05l-.58,1.89a17,17,0,0,0-5.26-1A8,8,0,0,0,137,14.21q-2.21,2.65-2.21,7.64a11.28,11.28,0,0,0,2.21,7.4,7.58,7.58,0,0,0,6.19,2.67,15.18,15.18,0,0,0,5.91-1.14v2A13.39,13.39,0,0,1,143.19,33.86Z"/><path class="cls-1" d="M169,33.43l-.54-3.7h-.17a11.1,11.1,0,0,1-3.62,3.19,9.67,9.67,0,0,1-4.39.93,7.6,7.6,0,0,1-5.35-1.76A6.3,6.3,0,0,1,153,27.22a6,6,0,0,1,2.85-5.31q2.85-1.89,8.24-2l4.45-.13V18.24a7.94,7.94,0,0,0-1.35-5,5.25,5.25,0,0,0-4.36-1.7,14.59,14.59,0,0,0-6.72,1.8l-.79-1.85a17.79,17.79,0,0,1,7.61-1.8q3.85,0,5.75,2t1.9,6.23V33.43Zm-8.59-1.5a8,8,0,0,0,5.9-2.14,8,8,0,0,0,2.16-5.94v-2.3l-4.08.17q-4.92.24-7,1.54a4.43,4.43,0,0,0-2.09,4,4.35,4.35,0,0,0,1.34,3.41A5.46,5.46,0,0,0,160.36,31.93Z"/><path class="cls-1" d="M180.21,33.43h-2.13V0h2.13Z"/><path class="cls-1" d="M19.57,75.14H6.81L2.43,86.23H0L12.63,54.69H14L26.4,86.23H23.93Zm-12-2H18.84L14.57,61.84q-.54-1.33-1.29-3.7A34.52,34.52,0,0,1,12,61.89Z"/><path class="cls-1" d="M39.51,62.42a18.31,18.31,0,0,1,3.18.3l-.41,2a12.47,12.47,0,0,0-3-.37,5.88,5.88,0,0,0-4.9,2.54,10.33,10.33,0,0,0-1.91,6.4V86.23H30.31V62.88h1.8l.21,4.21h.15a9.9,9.9,0,0,1,3.07-3.62A7.2,7.2,0,0,1,39.51,62.42Z"/><path class="cls-1" d="M53.6,84.77a15.94,15.94,0,0,0,3.52-.34v1.72a11.28,11.28,0,0,1-3.57.52A5.8,5.8,0,0,1,49,85q-1.47-1.65-1.47-5.2V64.72H44.06V63.48l3.46-1,1.07-5.29h1.1v5.65h6.85v1.85H49.69V79.5a6.74,6.74,0,0,0,.95,4A3.43,3.43,0,0,0,53.6,84.77Z"/><path class="cls-1" d="M61.88,56.39q0-2.06,1.35-2.06a1.2,1.2,0,0,1,1,.54,2.64,2.64,0,0,1,.38,1.53,2.71,2.71,0,0,1-.38,1.53,1.19,1.19,0,0,1-1,.56Q61.88,58.47,61.88,56.39ZM64.3,86.23H62.18V62.88H64.3Z"/><path class="cls-1" d="M86.6,80.15A5.55,5.55,0,0,1,84.22,85a11.6,11.6,0,0,1-6.77,1.69A16.13,16.13,0,0,1,70,85.22v-2.3a16.4,16.4,0,0,0,7.43,1.76,9.8,9.8,0,0,0,5.25-1.15,3.49,3.49,0,0,0,1.79-3.06,3.73,3.73,0,0,0-1.43-3,15.73,15.73,0,0,0-4.69-2.36A26.81,26.81,0,0,1,73.46,73a6.79,6.79,0,0,1-2.14-2.06,5.17,5.17,0,0,1-.72-2.8A4.79,4.79,0,0,1,72.8,64,10.7,10.7,0,0,1,79,62.42a18.43,18.43,0,0,1,7.18,1.42l-.79,1.93A16.83,16.83,0,0,0,79,64.36a9.24,9.24,0,0,0-4.53.95,2.9,2.9,0,0,0-1.68,2.62A3.63,3.63,0,0,0,74,70.85a18.11,18.11,0,0,0,5.08,2.45,25.08,25.08,0,0,1,4.6,2.05,6.7,6.7,0,0,1,2.16,2.07A5.07,5.07,0,0,1,86.6,80.15Z"/><path class="cls-1" d="M98.79,84.77a15.94,15.94,0,0,0,3.52-.34v1.72a11.28,11.28,0,0,1-3.57.52A5.8,5.8,0,0,1,94.18,85q-1.47-1.65-1.47-5.2V64.72H89.25V63.48l3.46-1,1.07-5.29h1.1v5.65h6.85v1.85H94.88V79.5a6.74,6.74,0,0,0,.95,4A3.43,3.43,0,0,0,98.79,84.77Z"/><path class="cls-2" d="M117.52,78.26a8.12,8.12,0,0,1,1.58-5,18.42,18.42,0,0,1,5.9-4.4L123.38,67a11.92,11.92,0,0,1-2.11-3,7.07,7.07,0,0,1-.69-3.05,6.17,6.17,0,0,1,2.05-4.88,8,8,0,0,1,5.51-1.8,7.62,7.62,0,0,1,5.27,1.74,6.13,6.13,0,0,1,1.94,4.81,6.47,6.47,0,0,1-1.5,4.14,20.1,20.1,0,0,1-5.44,4.18L138.14,79a17.27,17.27,0,0,0,2.23-3.37A23.42,23.42,0,0,0,142,71.32h2.06a23.62,23.62,0,0,1-4.49,9.15l5.71,5.76h-2.9L138.23,82a18.58,18.58,0,0,1-3.52,2.83,13.41,13.41,0,0,1-3.38,1.36,16.85,16.85,0,0,1-4.18.47,10.45,10.45,0,0,1-7.06-2.21A7.73,7.73,0,0,1,117.52,78.26Zm9.78,6.47a13.2,13.2,0,0,0,5-.93,13.91,13.91,0,0,0,4.5-3.15L126.46,70.22a25.92,25.92,0,0,0-4.22,2.63,6.35,6.35,0,0,0-2.48,5.32,6,6,0,0,0,2,4.81A8.16,8.16,0,0,0,127.29,84.73ZM122.89,61a6,6,0,0,0,.86,3.14A20,20,0,0,0,127,67.84a16.4,16.4,0,0,0,4.75-3.42,5.49,5.49,0,0,0,1.33-3.63,4.3,4.3,0,0,0-1.33-3.28,5,5,0,0,0-3.61-1.26,5.61,5.61,0,0,0-3.86,1.25A4.38,4.38,0,0,0,122.89,61Z"/><path class="cls-1" d="M17.85,109.14a11.87,11.87,0,0,0-9.3,3.78q-3.4,3.78-3.39,10.36,0,6.73,3.2,10.44t9.15,3.72a24.77,24.77,0,0,0,7.26-1v1.93a23.7,23.7,0,0,1-7.78,1.1q-6.62,0-10.42-4.28t-3.8-11.95a18.73,18.73,0,0,1,1.82-8.44,13.14,13.14,0,0,1,5.22-5.64,15.42,15.42,0,0,1,7.92-2A19,19,0,0,1,26,108.89l-.88,2A15.94,15.94,0,0,0,17.85,109.14Z"/><path class="cls-1" d="M40.43,115.22a18.31,18.31,0,0,1,3.18.3l-.41,2a12.47,12.47,0,0,0-3-.37,5.88,5.88,0,0,0-4.9,2.54,10.33,10.33,0,0,0-1.91,6.4V139H31.24V115.68H33l.21,4.21h.15a9.9,9.9,0,0,1,3.07-3.62A7.2,7.2,0,0,1,40.43,115.22Z"/><path class="cls-1" d="M57.79,139.46a10.17,10.17,0,0,1-7.94-3.14Q47,133.19,47,127.54a13.7,13.7,0,0,1,2.75-8.95,9.08,9.08,0,0,1,7.41-3.36,8,8,0,0,1,6.51,2.88,11.89,11.89,0,0,1,2.38,7.82v1.72H49.24q0,4.81,2.25,7.35a7.9,7.9,0,0,0,6.31,2.54,19.53,19.53,0,0,0,3.51-.28,21.27,21.27,0,0,0,3.83-1.2V138a17.06,17.06,0,0,1-3.65,1.17A20.33,20.33,0,0,1,57.79,139.46Zm-.62-22.34a7,7,0,0,0-5.41,2.22,10.48,10.48,0,0,0-2.38,6.41H63.81A10.19,10.19,0,0,0,62,119.4,5.81,5.81,0,0,0,57.17,117.12Z"/><path class="cls-1" d="M86.69,139l-.54-3.7H86a11.1,11.1,0,0,1-3.62,3.19,9.67,9.67,0,0,1-4.39.93,7.6,7.6,0,0,1-5.35-1.76,6.3,6.3,0,0,1-1.91-4.88,6,6,0,0,1,2.85-5.31q2.85-1.89,8.24-2l4.45-.13v-1.55a7.94,7.94,0,0,0-1.35-5,5.25,5.25,0,0,0-4.36-1.7,14.59,14.59,0,0,0-6.72,1.8L73,117.07a17.79,17.79,0,0,1,7.61-1.8q3.85,0,5.75,2t1.9,6.23V139Zm-8.59-1.5a7.44,7.44,0,0,0,8.06-8.08v-2.3l-4.08.17q-4.92.24-7,1.54a4.43,4.43,0,0,0-2.09,4,4.35,4.35,0,0,0,1.34,3.41A5.46,5.46,0,0,0,78.1,137.53Z"/><path class="cls-1" d="M102,137.57a15.94,15.94,0,0,0,3.52-.34v1.72a11.28,11.28,0,0,1-3.57.52,5.8,5.8,0,0,1-4.57-1.65q-1.47-1.65-1.47-5.2V117.52H92.45v-1.25l3.46-1L97,110h1.1v5.65h6.85v1.85H98.08V132.3a6.74,6.74,0,0,0,.95,4A3.43,3.43,0,0,0,102,137.57Z"/><path class="cls-1" d="M110.26,109.19q0-2.06,1.35-2.06a1.2,1.2,0,0,1,1,.54,2.64,2.64,0,0,1,.38,1.53,2.71,2.71,0,0,1-.38,1.53,1.19,1.19,0,0,1-1,.56Q110.26,111.27,110.26,109.19ZM112.69,139h-2.13V115.68h2.13Z"/><path class="cls-1" d="M125.62,139l-9-23.35h2.19l6,15.88a49.11,49.11,0,0,1,1.8,5.33h.13q.88-2.92,1.8-5.37l6-15.83h2.19l-9,23.35Z"/><path class="cls-1" d="M150.13,139.46a10.17,10.17,0,0,1-7.94-3.14q-2.85-3.14-2.85-8.79a13.7,13.7,0,0,1,2.75-8.95,9.08,9.08,0,0,1,7.41-3.36A8,8,0,0,1,156,118.1a11.89,11.89,0,0,1,2.38,7.82v1.72H141.58q0,4.81,2.25,7.35a7.9,7.9,0,0,0,6.31,2.54,19.53,19.53,0,0,0,3.51-.28,21.27,21.27,0,0,0,3.83-1.2V138a17.06,17.06,0,0,1-3.65,1.17A20.33,20.33,0,0,1,150.13,139.46Zm-.62-22.34a7,7,0,0,0-5.41,2.22,10.48,10.48,0,0,0-2.38,6.41h14.44a10.19,10.19,0,0,0-1.76-6.35A5.81,5.81,0,0,0,149.51,117.12Z"/><path class="cls-1" d="M28.29,175.82q0,7.91-4.15,12t-12.18,4H4.45V160.42h8.49q7.52,0,11.44,3.93T28.29,175.82Zm-2.38.09q0-6.75-3.43-10.15t-10.07-3.41H6.64V189.9h5.2Q25.91,189.9,25.91,175.91Z"/><path class="cls-1" d="M44.41,192.26a10.17,10.17,0,0,1-7.94-3.14q-2.85-3.14-2.85-8.79a13.7,13.7,0,0,1,2.75-8.95A9.08,9.08,0,0,1,43.79,168a8,8,0,0,1,6.51,2.88,11.89,11.89,0,0,1,2.38,7.82v1.72H35.86q0,4.81,2.25,7.35a7.9,7.9,0,0,0,6.31,2.54,19.53,19.53,0,0,0,3.51-.28,21.27,21.27,0,0,0,3.83-1.2v1.93a17.06,17.06,0,0,1-3.65,1.17A20.33,20.33,0,0,1,44.41,192.26Zm-.62-22.34a7,7,0,0,0-5.41,2.22A10.48,10.48,0,0,0,36,178.55H50.42a10.19,10.19,0,0,0-1.76-6.35A5.81,5.81,0,0,0,43.79,169.92Z"/><path class="cls-1" d="M73.61,185.75a5.55,5.55,0,0,1-2.38,4.82,11.6,11.6,0,0,1-6.77,1.69A16.13,16.13,0,0,1,57,190.82v-2.3a16.4,16.4,0,0,0,7.43,1.76,9.8,9.8,0,0,0,5.25-1.15,3.49,3.49,0,0,0,1.79-3.06,3.73,3.73,0,0,0-1.43-3,15.73,15.73,0,0,0-4.69-2.36,26.81,26.81,0,0,1-4.92-2.18,6.79,6.79,0,0,1-2.14-2.06,5.17,5.17,0,0,1-.72-2.8,4.79,4.79,0,0,1,2.2-4.15A10.7,10.7,0,0,1,66,168a18.43,18.43,0,0,1,7.18,1.42l-.79,1.93A16.83,16.83,0,0,0,66,170a9.24,9.24,0,0,0-4.53.95,2.9,2.9,0,0,0-1.68,2.62,3.63,3.63,0,0,0,1.3,2.92,18.11,18.11,0,0,0,5.08,2.45,25.08,25.08,0,0,1,4.6,2.05A6.7,6.7,0,0,1,72.89,183,5.07,5.07,0,0,1,73.61,185.75Z"/><path class="cls-1" d="M79.32,162q0-2.06,1.35-2.06a1.2,1.2,0,0,1,1,.54,2.64,2.64,0,0,1,.38,1.53,2.71,2.71,0,0,1-.38,1.53,1.19,1.19,0,0,1-1,.56Q79.32,164.07,79.32,162Zm2.43,29.84H79.62V168.48h2.13Z"/><path class="cls-1" d="M107.79,168.48V170l-4.83.3a8.25,8.25,0,0,1,1.93,5.29,7.13,7.13,0,0,1-2.25,5.47,8.48,8.48,0,0,1-6,2.09,13.1,13.1,0,0,1-2.23-.13,5.55,5.55,0,0,0-1.93,1.57,3.16,3.16,0,0,0-.67,1.91,1.77,1.77,0,0,0,.85,1.63,5.78,5.78,0,0,0,2.85.52h4.08a9.48,9.48,0,0,1,5.82,1.54,5.35,5.35,0,0,1,2,4.54,6.47,6.47,0,0,1-3,5.7q-3,2-8.54,2A11.76,11.76,0,0,1,89,200.7,5.45,5.45,0,0,1,86.63,196a5.6,5.6,0,0,1,1.49-4,7.74,7.74,0,0,1,4-2.17,4.11,4.11,0,0,1-1.69-1.28,3,3,0,0,1-.63-1.9q0-2.34,3-4.12a6.65,6.65,0,0,1-3.18-2.63,7.5,7.5,0,0,1-1.14-4.11,7.4,7.4,0,0,1,2.22-5.62,8.35,8.35,0,0,1,6-2.12,11.07,11.07,0,0,1,3.57.45ZM88.88,195.78q0,4.81,7.15,4.81,9.19,0,9.2-5.87a3.38,3.38,0,0,0-1.44-3.05,8.77,8.77,0,0,0-4.66-.95H95.3Q88.88,190.73,88.88,195.78Zm1.78-20a5.39,5.39,0,0,0,1.64,4.2,7.36,7.36,0,0,0,8.87,0,5.65,5.65,0,0,0,1.56-4.3,5.84,5.84,0,0,0-1.6-4.48,6.32,6.32,0,0,0-4.48-1.49,5.94,5.94,0,0,0-4.39,1.6A6,6,0,0,0,90.66,175.76Z"/><path class="cls-1" d="M128.86,191.83V176.68q0-3.52-1.48-5.12a6,6,0,0,0-4.6-1.6q-4.19,0-6.13,2.12t-1.94,6.86v12.89h-2.13V168.48h1.8l.41,3.2h.13Q117.2,168,123,168q7.95,0,7.95,8.53v15.28Z"/><path class="cls-1" d="M148,192.26a10.17,10.17,0,0,1-7.94-3.14q-2.85-3.14-2.85-8.79a13.7,13.7,0,0,1,2.75-8.95,9.08,9.08,0,0,1,7.41-3.36,8,8,0,0,1,6.51,2.88,11.89,11.89,0,0,1,2.38,7.82v1.72H139.41q0,4.81,2.25,7.35a7.9,7.9,0,0,0,6.31,2.54,19.53,19.53,0,0,0,3.51-.28,21.27,21.27,0,0,0,3.83-1.2v1.93a17.06,17.06,0,0,1-3.65,1.17A20.33,20.33,0,0,1,148,192.26Zm-.62-22.34a7,7,0,0,0-5.41,2.22,10.48,10.48,0,0,0-2.38,6.41H154a10.19,10.19,0,0,0-1.76-6.35A5.81,5.81,0,0,0,147.34,169.92Z"/><path class="cls-1" d="M171.88,168a18.31,18.31,0,0,1,3.18.3l-.41,2a12.47,12.47,0,0,0-3-.37,5.88,5.88,0,0,0-4.9,2.54,10.33,10.33,0,0,0-1.91,6.4v12.89h-2.13V168.48h1.8l.21,4.21h.15a9.9,9.9,0,0,1,3.07-3.62A7.2,7.2,0,0,1,171.88,168Z"/></g></g></svg>