<svg xmlns="http://www.w3.org/2000/svg" viewBox="0 0 171.36 202.4"><defs><style>.cls-1{fill:#4d4d4d;}.cls-2{fill:#f15a5a;}</style></defs><title>header_sub_lower</title><g id="Layer_2" data-name="Layer 2"><g id="Layer_4" data-name="Layer 4"><path class="cls-1" d="M9.54,32a15.94,15.94,0,0,0,3.52-.34v1.72a11.28,11.28,0,0,1-3.57.52,5.8,5.8,0,0,1-4.57-1.65Q3.46,30.55,3.46,27V11.92H0V10.68l3.46-1L4.53,4.43h1.1v5.65h6.85v1.85H5.63V26.71a6.74,6.74,0,0,0,.95,4A3.43,3.43,0,0,0,9.54,32Z"/><path class="cls-1" d="M27.54,33.86a10.17,10.17,0,0,1-7.94-3.14q-2.85-3.14-2.85-8.79A13.7,13.7,0,0,1,19.51,13a9.08,9.08,0,0,1,7.41-3.36,8,8,0,0,1,6.51,2.88,11.89,11.89,0,0,1,2.38,7.82V22H19q0,4.81,2.25,7.35a7.9,7.9,0,0,0,6.31,2.54,19.53,19.53,0,0,0,3.51-.28,21.27,21.27,0,0,0,3.83-1.2v1.93a17.06,17.06,0,0,1-3.65,1.17A20.33,20.33,0,0,1,27.54,33.86Zm-.62-22.34a7,7,0,0,0-5.41,2.22,10.48,10.48,0,0,0-2.38,6.41H33.56A10.19,10.19,0,0,0,31.8,13.8,5.81,5.81,0,0,0,26.92,11.52Z"/><path class="cls-1" d="M51.58,33.86a10,10,0,0,1-7.84-3.16q-2.84-3.16-2.84-8.81,0-5.8,2.94-9a10.35,10.35,0,0,1,8.06-3.23,16.21,16.21,0,0,1,5.8,1.05l-.58,1.89a17,17,0,0,0-5.26-1,8,8,0,0,0-6.51,2.65q-2.21,2.65-2.21,7.64a11.28,11.28,0,0,0,2.21,7.4,7.58,7.58,0,0,0,6.19,2.67,15.18,15.18,0,0,0,5.91-1.14v2A13.39,13.39,0,0,1,51.58,33.86Z"/><path class="cls-1" d="M79.45,33.43V18.28q0-3.52-1.48-5.12a6,6,0,0,0-4.6-1.6q-4.19,0-6.13,2.12t-1.94,6.86V33.43H63.16V0h2.13V10.63l-.11,3h.15a7.84,7.84,0,0,1,3.31-3.05,11.58,11.58,0,0,1,5-.95q7.95,0,7.95,8.53V33.43Z"/><path class="cls-1" d="M105.4,33.43V18.28q0-3.52-1.48-5.12a6,6,0,0,0-4.6-1.6q-4.19,0-6.13,2.12t-1.94,6.86V33.43H89.12V10.08h1.8l.41,3.2h.13q2.28-3.65,8.1-3.65,7.95,0,7.95,8.53V33.43Z"/><path class="cls-1" d="M114.77,3.59q0-2.06,1.35-2.06a1.2,1.2,0,0,1,1,.54,2.64,2.64,0,0,1,.38,1.53,2.71,2.71,0,0,1-.38,1.53,1.19,1.19,0,0,1-1,.56Q114.77,5.67,114.77,3.59Zm2.43,29.84h-2.13V10.08h2.13Z"/><path class="cls-1" d="M134.34,33.86a10,10,0,0,1-7.84-3.16q-2.84-3.16-2.84-8.81,0-5.8,2.94-9a10.35,10.35,0,0,1,8.06-3.23,16.21,16.21,0,0,1,5.8,1.05l-.58,1.89a17,17,0,0,0-5.26-1,8,8,0,0,0-6.51,2.65q-2.21,2.65-2.21,7.64a11.28,11.28,0,0,0,2.21,7.4,7.58,7.58,0,0,0,6.19,2.67,15.18,15.18,0,0,0,5.91-1.14v2A13.39,13.39,0,0,1,134.34,33.86Z"/><path class="cls-1" d="M160.1,33.43l-.54-3.7h-.17a11.1,11.1,0,0,1-3.62,3.19,9.67,9.67,0,0,1-4.39.93A7.6,7.6,0,0,1,146,32.1a6.3,6.3,0,0,1-1.91-4.88A6,6,0,0,1,147,21.91q2.85-1.89,8.24-2l4.45-.13V18.24a7.94,7.94,0,0,0-1.35-5,5.25,5.25,0,0,0-4.36-1.7,14.59,14.59,0,0,0-6.72,1.8l-.79-1.85A17.79,17.79,0,0,1,154,9.67q3.85,0,5.75,2t1.9,6.23V33.43Zm-8.59-1.5a8,8,0,0,0,5.9-2.14,8,8,0,0,0,2.16-5.94v-2.3l-4.08.17q-4.92.24-7,1.54a4.43,4.43,0,0,0-2.09,4,4.35,4.35,0,0,0,1.34,3.41A5.46,5.46,0,0,0,151.51,31.93Z"/><path class="cls-1" d="M171.36,33.43h-2.13V0h2.13Z"/><path class="cls-1" d="M17.55,86.23,17,82.53h-.17a11.1,11.1,0,0,1-3.62,3.19,9.67,9.67,0,0,1-4.39.93A7.6,7.6,0,0,1,3.48,84.9,6.3,6.3,0,0,1,1.57,80a6,6,0,0,1,2.85-5.31q2.85-1.89,8.24-2l4.45-.13V71a7.94,7.94,0,0,0-1.35-5,5.25,5.25,0,0,0-4.36-1.7,14.59,14.59,0,0,0-6.72,1.8l-.79-1.85a17.79,17.79,0,0,1,7.61-1.8q3.85,0,5.75,2t1.9,6.23V86.23ZM9,84.73a8,8,0,0,0,5.9-2.14A8,8,0,0,0,17,76.65v-2.3l-4.08.17q-4.92.24-7,1.54a4.43,4.43,0,0,0-2.09,4,4.35,4.35,0,0,0,1.34,3.41A5.46,5.46,0,0,0,9,84.73Z"/><path class="cls-1" d="M35.88,62.42a18.31,18.31,0,0,1,3.18.3l-.41,2a12.47,12.47,0,0,0-3-.37,5.88,5.88,0,0,0-4.9,2.54,10.33,10.33,0,0,0-1.91,6.4V86.23H26.68V62.88h1.8l.21,4.21h.15a9.9,9.9,0,0,1,3.07-3.62A7.2,7.2,0,0,1,35.88,62.42Z"/><path class="cls-1" d="M50,84.77a15.94,15.94,0,0,0,3.52-.34v1.72a11.28,11.28,0,0,1-3.57.52A5.8,5.8,0,0,1,45.36,85q-1.47-1.65-1.47-5.2V64.72H40.43V63.48l3.46-1L45,57.23h1.1v5.65h6.85v1.85H46.06V79.5a6.74,6.74,0,0,0,.95,4A3.43,3.43,0,0,0,50,84.77Z"/><path class="cls-1" d="M58.24,56.39q0-2.06,1.35-2.06a1.2,1.2,0,0,1,1,.54A2.64,2.64,0,0,1,61,56.39a2.71,2.71,0,0,1-.38,1.53,1.19,1.19,0,0,1-1,.56Q58.24,58.47,58.24,56.39Zm2.43,29.84H58.54V62.88h2.13Z"/><path class="cls-1" d="M83,80.15A5.55,5.55,0,0,1,80.59,85a11.6,11.6,0,0,1-6.77,1.69,16.13,16.13,0,0,1-7.43-1.44v-2.3a16.4,16.4,0,0,0,7.43,1.76,9.8,9.8,0,0,0,5.25-1.15,3.49,3.49,0,0,0,1.79-3.06,3.73,3.73,0,0,0-1.43-3,15.73,15.73,0,0,0-4.69-2.36A26.81,26.81,0,0,1,69.82,73a6.79,6.79,0,0,1-2.14-2.06A5.17,5.17,0,0,1,67,68.1,4.79,4.79,0,0,1,69.17,64a10.7,10.7,0,0,1,6.16-1.53,18.43,18.43,0,0,1,7.18,1.42l-.79,1.93a16.83,16.83,0,0,0-6.38-1.42,9.24,9.24,0,0,0-4.53.95,2.9,2.9,0,0,0-1.68,2.62,3.63,3.63,0,0,0,1.3,2.92A18.11,18.11,0,0,0,75.5,73.3a25.08,25.08,0,0,1,4.6,2.05,6.7,6.7,0,0,1,2.16,2.07A5.07,5.07,0,0,1,83,80.15Z"/><path class="cls-1" d="M95.15,84.77a15.94,15.94,0,0,0,3.52-.34v1.72a11.28,11.28,0,0,1-3.57.52A5.8,5.8,0,0,1,90.55,85q-1.47-1.65-1.47-5.2V64.72H85.62V63.48l3.46-1,1.07-5.29h1.1v5.65H98.1v1.85H91.24V79.5a6.74,6.74,0,0,0,.95,4A3.43,3.43,0,0,0,95.15,84.77Z"/><path class="cls-2" d="M113.89,78.26a8.12,8.12,0,0,1,1.58-5,18.42,18.42,0,0,1,5.9-4.4L119.75,67a11.92,11.92,0,0,1-2.11-3A7.07,7.07,0,0,1,117,61,6.17,6.17,0,0,1,119,56.13a8,8,0,0,1,5.51-1.8,7.62,7.62,0,0,1,5.27,1.74,6.13,6.13,0,0,1,1.94,4.81,6.47,6.47,0,0,1-1.5,4.14,20.1,20.1,0,0,1-5.44,4.18L134.51,79a17.27,17.27,0,0,0,2.23-3.37,23.42,23.42,0,0,0,1.61-4.32h2.06a23.62,23.62,0,0,1-4.49,9.15l5.71,5.76h-2.9L134.6,82a18.58,18.58,0,0,1-3.52,2.83,13.41,13.41,0,0,1-3.38,1.36,16.85,16.85,0,0,1-4.18.47,10.45,10.45,0,0,1-7.06-2.21A7.73,7.73,0,0,1,113.89,78.26Zm9.78,6.47a13.2,13.2,0,0,0,5-.93,13.91,13.91,0,0,0,4.5-3.15L122.83,70.22a25.92,25.92,0,0,0-4.22,2.63,6.35,6.35,0,0,0-2.48,5.32,6,6,0,0,0,2,4.81A8.16,8.16,0,0,0,123.66,84.73ZM119.26,61a6,6,0,0,0,.86,3.14,20,20,0,0,0,3.27,3.74,16.4,16.4,0,0,0,4.75-3.42,5.49,5.49,0,0,0,1.33-3.63,4.3,4.3,0,0,0-1.33-3.28,5,5,0,0,0-3.61-1.26,5.61,5.61,0,0,0-3.86,1.25A4.38,4.38,0,0,0,119.26,61Z"/><path class="cls-1" d="M12.7,139.46a10,10,0,0,1-7.84-3.16Q2,133.14,2,127.49q0-5.8,2.94-9A10.35,10.35,0,0,1,13,115.22a16.21,16.21,0,0,1,5.8,1.05l-.58,1.89a17,17,0,0,0-5.26-1,8,8,0,0,0-6.51,2.65q-2.21,2.65-2.21,7.64a11.28,11.28,0,0,0,2.21,7.4,7.58,7.58,0,0,0,6.19,2.67,15.18,15.18,0,0,0,5.91-1.14v2A13.39,13.39,0,0,1,12.7,139.46Z"/><path class="cls-1" d="M33.47,115.22a18.31,18.31,0,0,1,3.18.3l-.41,2a12.47,12.47,0,0,0-3-.37,5.88,5.88,0,0,0-4.9,2.54,10.33,10.33,0,0,0-1.91,6.4V139H24.28V115.68h1.8l.21,4.21h.15a9.9,9.9,0,0,1,3.07-3.62A7.2,7.2,0,0,1,33.47,115.22Z"/><path class="cls-1" d="M50.83,139.46a10.17,10.17,0,0,1-7.94-3.14Q40,133.19,40,127.54a13.7,13.7,0,0,1,2.75-8.95,9.08,9.08,0,0,1,7.41-3.36,8,8,0,0,1,6.51,2.88,11.89,11.89,0,0,1,2.38,7.82v1.72H42.28q0,4.81,2.25,7.35a7.9,7.9,0,0,0,6.31,2.54,19.53,19.53,0,0,0,3.51-.28,21.27,21.27,0,0,0,3.83-1.2V138a17.06,17.06,0,0,1-3.65,1.17A20.33,20.33,0,0,1,50.83,139.46Zm-.62-22.34a7,7,0,0,0-5.41,2.22,10.48,10.48,0,0,0-2.38,6.41H56.85a10.19,10.19,0,0,0-1.76-6.35A5.81,5.81,0,0,0,50.21,117.12Z"/><path class="cls-1" d="M79.73,139l-.54-3.7H79a11.1,11.1,0,0,1-3.62,3.19,9.67,9.67,0,0,1-4.39.93,7.6,7.6,0,0,1-5.35-1.76,6.3,6.3,0,0,1-1.91-4.88,6,6,0,0,1,2.85-5.31q2.85-1.89,8.24-2l4.45-.13v-1.55a7.94,7.94,0,0,0-1.35-5,5.25,5.25,0,0,0-4.36-1.7,14.59,14.59,0,0,0-6.72,1.8L66,117.07a17.79,17.79,0,0,1,7.61-1.8q3.85,0,5.75,2t1.9,6.23V139Zm-8.59-1.5a7.44,7.44,0,0,0,8.06-8.08v-2.3l-4.08.17q-4.92.24-7,1.54a4.43,4.43,0,0,0-2.09,4,4.35,4.35,0,0,0,1.34,3.41A5.46,5.46,0,0,0,71.13,137.53Z"/><path class="cls-1" d="M95,137.57a15.94,15.94,0,0,0,3.52-.34v1.72a11.28,11.28,0,0,1-3.57.52,5.8,5.8,0,0,1-4.57-1.65q-1.47-1.65-1.47-5.2V117.52H85.49v-1.25l3.46-1L90,110h1.1v5.65H98v1.85H91.12V132.3a6.74,6.74,0,0,0,.95,4A3.43,3.43,0,0,0,95,137.57Z"/><path class="cls-1" d="M103.3,109.19q0-2.06,1.35-2.06a1.2,1.2,0,0,1,1,.54,2.64,2.64,0,0,1,.38,1.53,2.71,2.71,0,0,1-.38,1.53,1.19,1.19,0,0,1-1,.56Q103.3,111.27,103.3,109.19ZM105.72,139H103.6V115.68h2.13Z"/><path class="cls-1" d="M118.66,139l-9-23.35h2.19l6,15.88a49.11,49.11,0,0,1,1.8,5.33h.13q.88-2.92,1.8-5.37l6-15.83h2.19l-9,23.35Z"/><path class="cls-1" d="M143.17,139.46a10.17,10.17,0,0,1-7.94-3.14q-2.85-3.14-2.85-8.79a13.7,13.7,0,0,1,2.75-8.95,9.08,9.08,0,0,1,7.41-3.36,8,8,0,0,1,6.51,2.88,11.89,11.89,0,0,1,2.38,7.82v1.72H134.62q0,4.81,2.25,7.35a7.9,7.9,0,0,0,6.31,2.54,19.53,19.53,0,0,0,3.51-.28,21.27,21.27,0,0,0,3.83-1.2V138a17.06,17.06,0,0,1-3.65,1.17A20.33,20.33,0,0,1,143.17,139.46Zm-.62-22.34a7,7,0,0,0-5.41,2.22,10.48,10.48,0,0,0-2.38,6.41h14.44a10.19,10.19,0,0,0-1.76-6.35A5.81,5.81,0,0,0,142.55,117.12Z"/><path class="cls-1" d="M11.92,168a9.71,9.71,0,0,1,4.38.92,8.73,8.73,0,0,1,3.31,3.16h.13q-.13-2.71-.13-5.31v-8.4h2.11v33.43h-1.4l-.54-3.57h-.17a8.64,8.64,0,0,1-7.65,4q-4.83,0-7.39-3T2,180.49q0-6.06,2.54-9.26A8.84,8.84,0,0,1,11.92,168Zm0,1.93a6.61,6.61,0,0,0-5.75,2.69q-1.92,2.69-1.92,7.8,0,9.93,7.71,9.93,4,0,5.8-2.3t1.85-7.58v-.37q0-5.41-1.82-7.79T11.92,170Z"/><path class="cls-1" d="M39,192.26a10.17,10.17,0,0,1-7.94-3.14q-2.85-3.14-2.85-8.79A13.7,13.7,0,0,1,31,171.39,9.08,9.08,0,0,1,38.37,168a8,8,0,0,1,6.51,2.88,11.89,11.89,0,0,1,2.38,7.82v1.72H30.44q0,4.81,2.25,7.35A7.9,7.9,0,0,0,39,190.33a19.53,19.53,0,0,0,3.51-.28,21.27,21.27,0,0,0,3.83-1.2v1.93a17.06,17.06,0,0,1-3.65,1.17A20.33,20.33,0,0,1,39,192.26Zm-.62-22.34A7,7,0,0,0,33,172.14a10.48,10.48,0,0,0-2.38,6.41H45a10.19,10.19,0,0,0-1.76-6.35A5.81,5.81,0,0,0,38.37,169.92Z"/><path class="cls-1" d="M68.19,185.75a5.55,5.55,0,0,1-2.38,4.82A11.6,11.6,0,0,1,59,192.26a16.13,16.13,0,0,1-7.43-1.44v-2.3A16.4,16.4,0,0,0,59,190.28a9.8,9.8,0,0,0,5.25-1.15,3.49,3.49,0,0,0,1.79-3.06,3.73,3.73,0,0,0-1.43-3A15.73,15.73,0,0,0,60,180.74,26.81,26.81,0,0,1,55,178.56a6.79,6.79,0,0,1-2.14-2.06,5.17,5.17,0,0,1-.72-2.8,4.79,4.79,0,0,1,2.2-4.15A10.7,10.7,0,0,1,60.54,168a18.43,18.43,0,0,1,7.18,1.42l-.79,1.93A16.83,16.83,0,0,0,60.54,170a9.24,9.24,0,0,0-4.53.95,2.9,2.9,0,0,0-1.68,2.62,3.63,3.63,0,0,0,1.3,2.92,18.11,18.11,0,0,0,5.08,2.45,25.08,25.08,0,0,1,4.6,2.05A6.7,6.7,0,0,1,67.47,183,5.07,5.07,0,0,1,68.19,185.75Z"/><path class="cls-1" d="M73.91,162q0-2.06,1.35-2.06a1.2,1.2,0,0,1,1,.54,2.64,2.64,0,0,1,.38,1.53,2.71,2.71,0,0,1-.38,1.53,1.19,1.19,0,0,1-1,.56Q73.91,164.07,73.91,162Zm2.43,29.84H74.21V168.48h2.13Z"/><path class="cls-1" d="M102.37,168.48V170l-4.83.3a8.25,8.25,0,0,1,1.93,5.29A7.13,7.13,0,0,1,97.23,181a8.48,8.48,0,0,1-6,2.09A13.1,13.1,0,0,1,89,183,5.55,5.55,0,0,0,87,184.55a3.16,3.16,0,0,0-.67,1.91,1.77,1.77,0,0,0,.85,1.63,5.78,5.78,0,0,0,2.85.52h4.08a9.48,9.48,0,0,1,5.82,1.54,5.35,5.35,0,0,1,2,4.54,6.47,6.47,0,0,1-3,5.7q-3,2-8.54,2a11.76,11.76,0,0,1-6.82-1.7A5.45,5.45,0,0,1,81.21,196a5.6,5.6,0,0,1,1.49-4,7.74,7.74,0,0,1,4-2.17,4.11,4.11,0,0,1-1.69-1.28,3,3,0,0,1-.63-1.9q0-2.34,3-4.12a6.65,6.65,0,0,1-3.18-2.63,7.5,7.5,0,0,1-1.14-4.11,7.4,7.4,0,0,1,2.22-5.62,8.35,8.35,0,0,1,6-2.12,11.07,11.07,0,0,1,3.57.45ZM83.47,195.78q0,4.81,7.15,4.81,9.19,0,9.2-5.87a3.38,3.38,0,0,0-1.44-3.05,8.77,8.77,0,0,0-4.66-.95H89.89Q83.47,190.73,83.47,195.78Zm1.78-20a5.39,5.39,0,0,0,1.64,4.2,7.36,7.36,0,0,0,8.87,0,5.65,5.65,0,0,0,1.56-4.3,5.84,5.84,0,0,0-1.6-4.48,6.32,6.32,0,0,0-4.48-1.49,5.94,5.94,0,0,0-4.39,1.6A6,6,0,0,0,85.25,175.76Z"/><path class="cls-1" d="M123.45,191.83V176.68q0-3.52-1.48-5.12a6,6,0,0,0-4.6-1.6q-4.19,0-6.13,2.12t-1.94,6.86v12.89h-2.13V168.48H109l.41,3.2h.13q2.28-3.65,8.1-3.65,7.95,0,7.95,8.53v15.28Z"/><path class="cls-1" d="M142.55,192.26a10.17,10.17,0,0,1-7.94-3.14q-2.85-3.14-2.85-8.79a13.7,13.7,0,0,1,2.75-8.95,9.08,9.08,0,0,1,7.41-3.36,8,8,0,0,1,6.51,2.88,11.89,11.89,0,0,1,2.38,7.82v1.72H134q0,4.81,2.25,7.35a7.9,7.9,0,0,0,6.31,2.54,19.53,19.53,0,0,0,3.51-.28,21.27,21.27,0,0,0,3.83-1.2v1.93a17.06,17.06,0,0,1-3.65,1.17A20.33,20.33,0,0,1,142.55,192.26Zm-.62-22.34a7,7,0,0,0-5.41,2.22,10.48,10.48,0,0,0-2.38,6.41h14.44a10.19,10.19,0,0,0-1.76-6.35A5.81,5.81,0,0,0,141.93,169.92Z"/><path class="cls-1" d="M166.46,168a18.31,18.31,0,0,1,3.18.3l-.41,2a12.47,12.47,0,0,0-3-.37,5.88,5.88,0,0,0-4.9,2.54,10.33,10.33,0,0,0-1.91,6.4v12.89h-2.13V168.48h1.8l.21,4.21h.15a9.9,9.9,0,0,1,3.07-3.62A7.2,7.2,0,0,1,166.46,168Z"/></g></g></svg>