<svg xmlns="http://www.w3.org/2000/svg" viewBox="0 0 158.4 190.24"><defs><style>.a{fill:#666;}.b{fill:#f15a5a;}</style></defs><title>header_sub_UI_1</title><path class="a" d="M27.54,0V20.32c0,3.61-1,6.44-3.13,8.47s-5,3.05-8.75,3.05-6.48-1-8.52-3.06-3.06-4.89-3.06-8.54V0H6.29V20.32a9.54,9.54,0,0,0,2.52,7.06q2.51,2.54,7.11,2.53a9.38,9.38,0,0,0,7-2.49,9.29,9.29,0,0,0,2.47-6.88V0Z"/><path class="a" d="M36.09,31.41V0h2.2V31.41Z"/><path class="a" d="M49.07,26.3l.26.45a72.11,72.11,0,0,1-3.74,10.33h-1.4A86.75,86.75,0,0,0,46.56,26.3Z"/><path class="a" d="M12.63,84.21H10.42V54.86H.21V52.8H22.84v2.06H12.63Z"/><path class="a" d="M36.39,84.64a10.16,10.16,0,0,1-7.93-3.14q-2.85-3.14-2.85-8.78a13.71,13.71,0,0,1,2.75-8.95,9.07,9.07,0,0,1,7.41-3.36,8,8,0,0,1,6.51,2.87,11.9,11.9,0,0,1,2.39,7.82v1.72H27.84q0,4.82,2.25,7.35a7.9,7.9,0,0,0,6.3,2.54,20.16,20.16,0,0,0,3.52-.28,21.23,21.23,0,0,0,3.83-1.21v1.94a17.37,17.37,0,0,1-3.65,1.17A20.12,20.12,0,0,1,36.39,84.64ZM35.77,62.3a7,7,0,0,0-5.41,2.22A10.49,10.49,0,0,0,28,70.93H42.41a10.24,10.24,0,0,0-1.76-6.35A5.83,5.83,0,0,0,35.77,62.3Z"/><path class="a" d="M60.44,84.64a10,10,0,0,1-7.85-3.16q-2.84-3.15-2.83-8.81c0-3.86,1-6.88,2.94-9a10.33,10.33,0,0,1,8.06-3.23,16.24,16.24,0,0,1,5.8,1.05L66,63.35a17.16,17.16,0,0,0-5.27-1q-4.29,0-6.5,2.65T52,72.63A11.25,11.25,0,0,0,54.21,80a7.58,7.58,0,0,0,6.18,2.68,15.18,15.18,0,0,0,5.91-1.14v2A13.37,13.37,0,0,1,60.44,84.64Z"/><path class="a" d="M88.3,84.21V69.06c0-2.35-.49-4-1.48-5.12a6,6,0,0,0-4.6-1.6c-2.79,0-4.84.7-6.13,2.12s-2,3.69-2,6.86V84.21H72V50.78h2.12V61.42l-.1,3h.15a7.83,7.83,0,0,1,3.3-3.05,11.63,11.63,0,0,1,5-.94q8,0,8,8.52V84.21Z"/><path class="b" d="M108.13,76.24a8.13,8.13,0,0,1,1.58-5,18.27,18.27,0,0,1,5.9-4.4L114,65a11.82,11.82,0,0,1-2.11-3,7.08,7.08,0,0,1-.69-3,6.19,6.19,0,0,1,2-4.88,8.08,8.08,0,0,1,5.52-1.8A7.61,7.61,0,0,1,124,54.05,6.1,6.1,0,0,1,126,58.86a6.47,6.47,0,0,1-1.5,4.13A19.78,19.78,0,0,1,119,67.17L128.76,77A17.43,17.43,0,0,0,131,73.62a23.32,23.32,0,0,0,1.61-4.32h2.06a23.62,23.62,0,0,1-4.49,9.15l5.72,5.76H133L128.84,80a18.42,18.42,0,0,1-3.52,2.82,13.38,13.38,0,0,1-3.39,1.37,17,17,0,0,1-4.17.47,10.48,10.48,0,0,1-7.06-2.21A7.75,7.75,0,0,1,108.13,76.24Zm9.78,6.47a13.21,13.21,0,0,0,5-.94,13.84,13.84,0,0,0,4.51-3.15L117.07,68.2a25.55,25.55,0,0,0-4.22,2.64A6.72,6.72,0,0,0,111,73.19a6.83,6.83,0,0,0-.59,3,6.06,6.06,0,0,0,2,4.82A8.18,8.18,0,0,0,117.91,82.71ZM113.5,58.94a6,6,0,0,0,.86,3.14,19.69,19.69,0,0,0,3.27,3.74,16.61,16.61,0,0,0,4.75-3.42,5.53,5.53,0,0,0,1.33-3.63,4.31,4.31,0,0,0-1.33-3.27,5.06,5.06,0,0,0-3.61-1.26,5.62,5.62,0,0,0-3.86,1.25A4.36,4.36,0,0,0,113.5,58.94Z"/><path class="a" d="M17.85,107.12a11.86,11.86,0,0,0-9.3,3.79q-3.39,3.78-3.39,10.35,0,6.74,3.2,10.44t9.15,3.72a24.88,24.88,0,0,0,7.26-1v1.93a23.72,23.72,0,0,1-7.78,1.1q-6.61,0-10.42-4.28t-3.8-11.94a18.72,18.72,0,0,1,1.82-8.44,13.08,13.08,0,0,1,5.22-5.64,15.36,15.36,0,0,1,7.91-2A18.93,18.93,0,0,1,26,106.87l-.88,2A16,16,0,0,0,17.85,107.12Z"/><path class="a" d="M40.43,113.21a18.3,18.3,0,0,1,3.18.3l-.4,2a12.21,12.21,0,0,0-3-.37,5.87,5.87,0,0,0-4.9,2.54,10.29,10.29,0,0,0-1.91,6.4V137H31.24V113.66H33l.22,4.21h.15a9.84,9.84,0,0,1,3.07-3.62A7.16,7.16,0,0,1,40.43,113.21Z"/><path class="a" d="M57.79,137.44a10.19,10.19,0,0,1-7.94-3.14Q47,131.17,47,125.52c0-3.73.91-6.71,2.75-9a9.07,9.07,0,0,1,7.41-3.36,8,8,0,0,1,6.51,2.87,11.89,11.89,0,0,1,2.38,7.82v1.72H49.24q0,4.81,2.25,7.35a7.9,7.9,0,0,0,6.3,2.54,20.25,20.25,0,0,0,3.52-.28A21.47,21.47,0,0,0,65.14,134V136a17.37,17.37,0,0,1-3.65,1.17A21,21,0,0,1,57.79,137.44Zm-.62-22.34a7,7,0,0,0-5.41,2.22,10.43,10.43,0,0,0-2.39,6.41H63.81a10.24,10.24,0,0,0-1.76-6.35A5.83,5.83,0,0,0,57.17,115.1Z"/><path class="a" d="M86.69,137l-.54-3.7H86a10.93,10.93,0,0,1-3.62,3.19,9.57,9.57,0,0,1-4.39.94,7.6,7.6,0,0,1-5.35-1.76,6.29,6.29,0,0,1-1.91-4.88,6,6,0,0,1,2.84-5.31q2.85-1.89,8.24-2l4.45-.13v-1.55a7.9,7.9,0,0,0-1.36-5,5.24,5.24,0,0,0-4.36-1.69,14.61,14.61,0,0,0-6.72,1.8l-.8-1.85a17.86,17.86,0,0,1,7.61-1.8c2.56,0,4.48.66,5.75,2s1.9,3.41,1.9,6.23V137Zm-8.59-1.5a7.44,7.44,0,0,0,8.05-8.08v-2.3l-4.08.17q-4.92.24-7,1.54a4.41,4.41,0,0,0-2.1,4,4.36,4.36,0,0,0,1.34,3.4A5.47,5.47,0,0,0,78.1,135.51Z"/><path class="a" d="M102,135.55a16.54,16.54,0,0,0,3.52-.34v1.71a11.09,11.09,0,0,1-3.57.52,5.8,5.8,0,0,1-4.56-1.65q-1.47-1.66-1.47-5.2V115.5H92.45v-1.24l3.46-1L97,108h1.1v5.65h6.85v1.84H98.08v14.79a6.74,6.74,0,0,0,.94,4A3.44,3.44,0,0,0,102,135.55Z"/><path class="a" d="M110.26,107.17c0-1.38.45-2.06,1.35-2.06a1.22,1.22,0,0,1,1,.53,2.66,2.66,0,0,1,.38,1.53,2.69,2.69,0,0,1-.38,1.52,1.17,1.17,0,0,1-1,.56C110.71,109.25,110.26,108.56,110.26,107.17ZM112.69,137h-2.13V113.66h2.13Z"/><path class="a" d="M125.62,137l-9-23.35h2.19l6,15.87a47.5,47.5,0,0,1,1.81,5.33h.13c.58-2,1.19-3.74,1.8-5.37l6-15.83h2.19l-9,23.35Z"/><path class="a" d="M150.13,137.44a10.19,10.19,0,0,1-7.94-3.14q-2.83-3.13-2.84-8.78c0-3.73.91-6.71,2.75-9a9.07,9.07,0,0,1,7.41-3.36,8,8,0,0,1,6.51,2.87,11.89,11.89,0,0,1,2.38,7.82v1.72H141.58q0,4.81,2.25,7.35a7.89,7.89,0,0,0,6.3,2.54,20.25,20.25,0,0,0,3.52-.28,21.47,21.47,0,0,0,3.83-1.21V136a17.37,17.37,0,0,1-3.65,1.17A21,21,0,0,1,150.13,137.44Zm-.62-22.34a7,7,0,0,0-5.41,2.22,10.43,10.43,0,0,0-2.39,6.41h14.44a10.24,10.24,0,0,0-1.76-6.35A5.83,5.83,0,0,0,149.51,115.1Z"/><path class="a" d="M19.57,178.72H6.81L2.43,189.81H0l12.63-31.54H14L26.4,189.81H23.93Zm-12-2H18.84l-4.27-11.32c-.36-.89-.79-2.12-1.29-3.7A34.66,34.66,0,0,1,12,165.47Z"/><path class="a" d="M39.51,166a18.3,18.3,0,0,1,3.18.3l-.41,2a12.09,12.09,0,0,0-3-.37,5.9,5.9,0,0,0-4.9,2.54,10.35,10.35,0,0,0-1.91,6.4v12.89H30.31V166.46h1.81l.21,4.21h.15a9.85,9.85,0,0,1,3.08-3.62A7.11,7.11,0,0,1,39.51,166Z"/><path class="a" d="M53.6,188.35a16,16,0,0,0,3.53-.34v1.71a11.09,11.09,0,0,1-3.57.52A5.8,5.8,0,0,1,49,188.59q-1.48-1.67-1.48-5.2V168.3H44.06v-1.24l3.46-1,1.08-5.28h1.09v5.65h6.86v1.84H49.69v14.79a6.73,6.73,0,0,0,1,4A3.43,3.43,0,0,0,53.6,188.35Z"/><path class="a" d="M61.88,160c0-1.38.45-2.06,1.35-2.06a1.22,1.22,0,0,1,1,.53,2.66,2.66,0,0,1,.38,1.53,2.69,2.69,0,0,1-.38,1.52,1.17,1.17,0,0,1-1,.56C62.33,162.05,61.88,161.36,61.88,160Zm2.42,29.84H62.18V166.46H64.3Z"/><path class="a" d="M86.6,183.73a5.54,5.54,0,0,1-2.38,4.82,11.58,11.58,0,0,1-6.77,1.69A16.12,16.12,0,0,1,70,188.8v-2.3a16.31,16.31,0,0,0,7.43,1.76,9.74,9.74,0,0,0,5.25-1.15,3.48,3.48,0,0,0,1.8-3.06,3.73,3.73,0,0,0-1.43-3,15.93,15.93,0,0,0-4.69-2.37,26.13,26.13,0,0,1-4.92-2.18,6.62,6.62,0,0,1-2.14-2.06,5.16,5.16,0,0,1-.72-2.8,4.79,4.79,0,0,1,2.2-4.15A10.69,10.69,0,0,1,79,166a18.48,18.48,0,0,1,7.17,1.41l-.79,1.94A16.78,16.78,0,0,0,79,167.94a9.27,9.27,0,0,0-4.54.94,2.91,2.91,0,0,0-1.67,2.63,3.62,3.62,0,0,0,1.3,2.92,18.25,18.25,0,0,0,5.08,2.45,25.06,25.06,0,0,1,4.59,2.05A6.73,6.73,0,0,1,85.88,181,5.1,5.1,0,0,1,86.6,183.73Z"/><path class="a" d="M98.79,188.35a15.91,15.91,0,0,0,3.52-.34v1.71a11.09,11.09,0,0,1-3.57.52,5.8,5.8,0,0,1-4.56-1.65q-1.47-1.67-1.47-5.2V168.3H89.25v-1.24l3.46-1,1.07-5.28h1.1v5.65h6.85v1.84H94.88v14.79a6.74,6.74,0,0,0,.94,4A3.44,3.44,0,0,0,98.79,188.35Z"/></svg>