<svg xmlns="http://www.w3.org/2000/svg" viewBox="0 0 1219.13 968.12"><defs><style>.a{fill:#333;}.a,.b{stroke:#cbcbcb;stroke-width:2px;}.a,.b,.d,.h{stroke-miterlimit:10;}.b,.d,.e,.f,.g,.h,.i,.j,.k{fill:none;}.c{fill:#bccbd3;}.d{stroke:#2891cd;}.d,.e,.f,.g,.h,.i,.j,.k{stroke-width:8px;}.e{stroke:#fbcf17;}.e,.f,.g,.h,.i,.j,.k{stroke-linecap:round;}.e,.f,.g,.i,.j,.k{stroke-linejoin:round;}.f{stroke:#ff6d00;}.g{stroke:#1ce774;}.h{stroke:#e71c2c;}.i{stroke:#8019f8;}.j{stroke:#f61cc8;}.k{stroke:#ff3bd5;}</style></defs><title>header_illustrator</title><rect class="a" x="199.32" y="242.12" width="900" height="575" rx="24.1" ry="24.1"/><path class="a" d="M749.32,817.12v125h-200v-125h87.25v75c0,9,5.73,14,12.75,14s12.75-5,12.75-14v-75Z"/><rect class="a" x="424.32" y="942.12" width="450" height="25" rx="10.55" ry="10.55"/><rect class="a" x="224.32" y="267.12" width="850" height="525" rx="16.5" ry="16.5"/><rect class="b" x="378.65" y="529.06" width="8.04" height="8.04" transform="translate(-203.5 238.09) rotate(-27.61)"/><line class="b" x1="345.62" y1="552.51" x2="378.85" y2="535.13"/><line class="b" x1="386.68" y1="531.03" x2="419.91" y2="513.65"/><circle class="b" cx="343.73" cy="553.21" r="3"/><circle class="b" cx="422.37" cy="512.08" r="3"/><rect class="b" x="503.75" y="542.9" width="8.04" height="8.04" transform="translate(-195.66 297.65) rotate(-27.61)"/><line class="b" x1="470.72" y1="566.35" x2="503.95" y2="548.97"/><line class="b" x1="511.78" y1="544.87" x2="545" y2="527.49"/><circle class="b" cx="468.83" cy="567.05" r="3"/><circle class="b" cx="547.47" cy="525.92" r="3"/><line class="b" x1="223.78" y1="289.87" x2="1073.78" y2="289.87"/><line class="b" x1="244.78" y1="289.72" x2="244.78" y2="791.87"/><line class="b" x1="244.78" y1="306.54" x2="884.16" y2="306.54"/><line class="b" x1="372.11" y1="290.54" x2="372.11" y2="305.2"/><line class="b" x1="883.78" y1="289.87" x2="883.78" y2="792.12"/><line class="b" x1="883.78" y1="538.87" x2="1073.78" y2="538.87"/><polyline class="b" points="1073.53 553.62 925.27 553.62 925.27 539.37"/><line class="b" x1="965.44" y1="539.2" x2="965.44" y2="552.87"/><line class="b" x1="1013.11" y1="538.54" x2="1013.11" y2="552.54"/><polyline class="b" points="1073.03 306.37 932.27 306.37 932.27 290.12"/><line class="b" x1="980.44" y1="289.98" x2="980.44" y2="306.33"/><line class="b" x1="1028.11" y1="290.79" x2="1028.11" y2="306.57"/><line class="b" x1="244.29" y1="313.54" x2="224.22" y2="313.54"/><line class="b" x1="244.29" y1="340.86" x2="224.22" y2="340.86"/><line class="b" x1="244.29" y1="368.19" x2="224.22" y2="368.19"/><line class="b" x1="244.29" y1="395.51" x2="224.22" y2="395.51"/><line class="b" x1="244.29" y1="422.84" x2="224.22" y2="422.84"/><line class="b" x1="244.29" y1="450.16" x2="224.22" y2="450.16"/><line class="b" x1="244.29" y1="477.49" x2="224.22" y2="477.49"/><line class="b" x1="244.29" y1="504.81" x2="224.22" y2="504.81"/><line class="b" x1="244.29" y1="532.14" x2="224.22" y2="532.14"/><line class="b" x1="244.29" y1="559.46" x2="224.22" y2="559.46"/><line class="b" x1="244.29" y1="586.79" x2="224.22" y2="586.79"/><rect class="b" x="287.78" y="344.87" width="345" height="386"/><rect class="b" x="663.78" y="344.87" width="219.82" height="386"/><polyline class="b" points="286.77 792.19 286.77 754.7 631.77 753.7 631.77 791.19"/><polyline class="b" points="663.27 792.19 663.27 754.7 883.11 754.07"/><path class="b" d="M356.78,615.2s-16-56,25.33-82,99.33,38.67,132.67,8.67,36.66-75.33,36.66-75.33"/><path class="b" d="M883.6,483V592.74a106.67,106.67,0,1,1,0-109.74Z"/><rect class="b" x="892.44" y="564.54" width="172" height="17.33"/><line class="b" x1="908.94" y1="564.75" x2="908.94" y2="581.54"/><line class="b" x1="925.44" y1="564.75" x2="925.44" y2="581.54"/><line class="b" x1="1045.61" y1="564.75" x2="1045.61" y2="581.54"/><circle class="b" cx="1055.11" cy="572.87" r="5"/><rect class="b" x="932.75" y="568.35" width="9.71" height="9.71"/><rect class="b" x="948.11" y="570.35" width="91" height="5.21"/><path class="b" d="M896.42,573.41a5.76,5.76,0,0,1,4.43-2.29,5.62,5.62,0,0,1,4.36,2.15,4.19,4.19,0,0,1-4.29,2.77A4.58,4.58,0,0,1,896.42,573.41Z"/><rect class="b" x="892.44" y="581.75" width="172" height="17.33"/><line class="b" x1="908.94" y1="581.96" x2="908.94" y2="598.75"/><line class="b" x1="925.44" y1="581.96" x2="925.44" y2="598.75"/><line class="b" x1="1045.61" y1="581.96" x2="1045.61" y2="598.75"/><circle class="b" cx="1055.11" cy="590.09" r="5"/><rect class="b" x="932.75" y="585.56" width="9.71" height="9.71"/><rect class="b" x="948.11" y="587.57" width="91" height="5.21"/><path class="b" d="M896.42,590.62a5.77,5.77,0,0,1,4.43-2.28,5.63,5.63,0,0,1,4.36,2.14,4.19,4.19,0,0,1-4.29,2.77A4.58,4.58,0,0,1,896.42,590.62Z"/><rect class="b" x="892.44" y="599.3" width="172" height="17.33"/><line class="b" x1="908.94" y1="599.51" x2="908.94" y2="616.3"/><line class="b" x1="925.44" y1="599.51" x2="925.44" y2="616.3"/><line class="b" x1="1045.61" y1="599.51" x2="1045.61" y2="616.3"/><circle class="b" cx="1055.11" cy="607.63" r="5"/><rect class="b" x="932.75" y="603.11" width="9.71" height="9.71"/><rect class="b" x="948.11" y="605.11" width="91" height="5.21"/><path class="b" d="M896.42,608.17a5.76,5.76,0,0,1,4.43-2.29,5.62,5.62,0,0,1,4.36,2.15,4.19,4.19,0,0,1-4.29,2.77A4.58,4.58,0,0,1,896.42,608.17Z"/><rect class="b" x="892.44" y="616.85" width="172" height="17.33"/><line class="b" x1="908.94" y1="617.06" x2="908.94" y2="633.85"/><line class="b" x1="925.44" y1="617.06" x2="925.44" y2="633.85"/><line class="b" x1="1045.61" y1="617.06" x2="1045.61" y2="633.85"/><circle class="b" cx="1055.11" cy="625.18" r="5"/><rect class="b" x="932.75" y="620.66" width="9.71" height="9.71"/><rect class="b" x="948.11" y="622.66" width="91" height="5.21"/><path class="b" d="M896.42,625.72a5.76,5.76,0,0,1,4.43-2.29,5.62,5.62,0,0,1,4.36,2.15,4.19,4.19,0,0,1-4.29,2.77A4.58,4.58,0,0,1,896.42,625.72Z"/><rect class="b" x="892.44" y="634.06" width="172" height="17.33"/><line class="b" x1="908.94" y1="634.27" x2="908.94" y2="651.06"/><line class="b" x1="925.44" y1="634.27" x2="925.44" y2="651.06"/><line class="b" x1="1045.61" y1="634.27" x2="1045.61" y2="651.06"/><circle class="b" cx="1055.11" cy="642.39" r="5"/><rect class="b" x="932.75" y="637.87" width="9.71" height="9.71"/><rect class="b" x="948.11" y="639.88" width="91" height="5.21"/><path class="b" d="M896.42,642.93a5.76,5.76,0,0,1,4.43-2.29,5.62,5.62,0,0,1,4.36,2.15,4.19,4.19,0,0,1-4.29,2.77A4.58,4.58,0,0,1,896.42,642.93Z"/><rect class="b" x="892.44" y="651.61" width="172" height="17.33"/><line class="b" x1="908.94" y1="651.82" x2="908.94" y2="668.61"/><line class="b" x1="925.44" y1="651.82" x2="925.44" y2="668.61"/><line class="b" x1="1045.61" y1="651.82" x2="1045.61" y2="668.61"/><circle class="b" cx="1055.11" cy="659.94" r="5"/><rect class="b" x="932.75" y="655.42" width="9.71" height="9.71"/><rect class="b" x="948.11" y="657.42" width="91" height="5.21"/><path class="b" d="M896.42,660.48a5.76,5.76,0,0,1,4.43-2.29,5.62,5.62,0,0,1,4.36,2.15,4.19,4.19,0,0,1-4.29,2.77A4.58,4.58,0,0,1,896.42,660.48Z"/><rect class="b" x="892.44" y="668.82" width="172" height="17.33"/><line class="b" x1="908.94" y1="669.03" x2="908.94" y2="685.82"/><line class="b" x1="925.44" y1="669.03" x2="925.44" y2="685.82"/><line class="b" x1="1045.61" y1="669.03" x2="1045.61" y2="685.82"/><circle class="b" cx="1055.11" cy="677.16" r="5"/><rect class="b" x="932.75" y="672.64" width="9.71" height="9.71"/><rect class="b" x="948.11" y="674.64" width="91" height="5.21"/><path class="b" d="M896.42,677.69a5.77,5.77,0,0,1,4.43-2.28,5.63,5.63,0,0,1,4.36,2.14,4.19,4.19,0,0,1-4.29,2.77A4.58,4.58,0,0,1,896.42,677.69Z"/><rect class="b" x="892.44" y="686.37" width="172" height="17.33"/><line class="b" x1="908.94" y1="686.58" x2="908.94" y2="703.37"/><line class="b" x1="925.44" y1="686.58" x2="925.44" y2="703.37"/><line class="b" x1="1045.61" y1="686.58" x2="1045.61" y2="703.37"/><circle class="b" cx="1055.11" cy="694.7" r="5"/><rect class="b" x="932.75" y="690.18" width="9.71" height="9.71"/><rect class="b" x="948.11" y="692.18" width="91" height="5.21"/><path class="b" d="M896.42,695.24a5.76,5.76,0,0,1,4.43-2.29,5.62,5.62,0,0,1,4.36,2.15,4.19,4.19,0,0,1-4.29,2.77A4.58,4.58,0,0,1,896.42,695.24Z"/><rect class="b" x="892.44" y="703.53" width="172" height="17.33"/><line class="b" x1="908.94" y1="703.73" x2="908.94" y2="720.53"/><line class="b" x1="925.44" y1="703.73" x2="925.44" y2="720.53"/><line class="b" x1="1045.61" y1="703.73" x2="1045.61" y2="720.53"/><circle class="b" cx="1055.11" cy="711.86" r="5"/><rect class="b" x="932.75" y="707.34" width="9.71" height="9.71"/><rect class="b" x="948.11" y="709.34" width="91" height="5.21"/><path class="b" d="M896.42,712.39a5.77,5.77,0,0,1,4.43-2.28,5.62,5.62,0,0,1,4.36,2.15,4.19,4.19,0,0,1-4.29,2.77A4.59,4.59,0,0,1,896.42,712.39Z"/><rect class="b" x="892.44" y="720.74" width="172" height="17.33"/><line class="b" x1="908.94" y1="720.95" x2="908.94" y2="737.74"/><line class="b" x1="925.44" y1="720.95" x2="925.44" y2="737.74"/><line class="b" x1="1045.61" y1="720.95" x2="1045.61" y2="737.74"/><circle class="b" cx="1055.11" cy="729.07" r="5"/><rect class="b" x="932.75" y="724.55" width="9.71" height="9.71"/><rect class="b" x="948.11" y="726.55" width="91" height="5.21"/><path class="b" d="M896.42,729.61a5.76,5.76,0,0,1,4.43-2.29,5.62,5.62,0,0,1,4.36,2.15,4.19,4.19,0,0,1-4.29,2.77A4.58,4.58,0,0,1,896.42,729.61Z"/><rect class="b" x="892.44" y="738.29" width="172" height="17.33"/><line class="b" x1="908.94" y1="738.5" x2="908.94" y2="755.29"/><line class="b" x1="925.44" y1="738.5" x2="925.44" y2="755.29"/><line class="b" x1="1045.61" y1="738.5" x2="1045.61" y2="755.29"/><circle class="b" cx="1055.11" cy="746.62" r="5"/><rect class="b" x="932.75" y="742.1" width="9.71" height="9.71"/><rect class="b" x="948.11" y="744.1" width="91" height="5.21"/><path class="b" d="M896.42,747.16a5.76,5.76,0,0,1,4.43-2.29,5.62,5.62,0,0,1,4.36,2.15,4.19,4.19,0,0,1-4.29,2.77A4.58,4.58,0,0,1,896.42,747.16Z"/><line class="b" x1="883.28" y1="354.37" x2="1074.28" y2="354.37"/><line class="b" x1="883.28" y1="422.37" x2="1074.28" y2="422.37"/><rect class="b" x="912.19" y="382.95" width="9.17" height="9.17"/><rect class="b" x="912.19" y="399.62" width="9.17" height="9.17"/><rect class="b" x="979.86" y="382.95" width="9.17" height="9.17"/><rect class="b" x="979.86" y="399.62" width="9.17" height="9.17"/><rect class="b" x="913.94" y="449.7" width="28.25" height="9.33"/><rect class="b" x="892.28" y="427.7" width="86.68" height="9.33"/><rect class="b" x="892.28" y="361.04" width="86.68" height="9.33"/><rect class="b" x="892.28" y="315.04" width="86.68" height="9.33"/><rect class="b" x="892.28" y="334.7" width="130.34" height="9.33"/><rect class="b" x="888.28" y="294.04" width="37.92" height="9.33"/><rect class="b" x="888.28" y="542.89" width="31.43" height="9.33"/><rect class="b" x="913.94" y="475.87" width="54.96" height="9.33"/><rect class="b" x="975.28" y="472.78" width="46.32" height="15.51" rx="3.56" ry="3.56"/><rect class="b" x="924.94" y="381.45" width="35.55" height="12.41" rx="3.56" ry="3.56"/><rect class="b" x="993.11" y="381.45" width="35.55" height="12.41" rx="3.56" ry="3.56"/><rect class="b" x="924.94" y="398.28" width="35.55" height="12.41" rx="3.56" ry="3.56"/><rect class="b" x="993.11" y="398.28" width="35.55" height="12.41" rx="3.56" ry="3.56"/><rect class="b" x="975.28" y="496.78" width="46.32" height="15.51" rx="3.56" ry="3.56"/><rect class="b" x="913.94" y="499.7" width="54.96" height="9.33"/><rect class="b" x="891.78" y="472.2" width="15.67" height="15.67"/><rect class="b" x="891.78" y="497.04" width="15.67" height="15.67"/><polygon class="c" points="513.57 559.53 519.92 587.79 526.39 579.33 536.75 576.13 513.57 559.53"/><rect class="d" x="333.99" y="105.08" width="63.57" height="63.57" rx="13.79" ry="13.79" transform="translate(92.28 -141.92) rotate(25.03)"/><rect class="d" x="1076.82" y="763.91" width="87.92" height="87.92" rx="13.79" ry="13.79" transform="translate(-257.78 899.44) rotate(-39.58)"/><polygon class="e" points="649.78 265.84 608.85 258.51 579.61 288.08 573.93 246.89 536.78 228.22 574.2 210.09 580.48 168.98 609.28 198.97 650.32 192.24 630.7 228.9 649.78 265.84"/><polygon class="f" points="1183.62 651.81 1170.84 631.56 1146.92 630.6 1162.23 612.2 1155.75 589.14 1177.99 598.02 1197.91 584.74 1196.34 608.63 1215.13 623.47 1191.92 629.36 1183.62 651.81"/><polygon class="f" points="97.42 662.56 66.23 674.68 58.52 707.25 37.36 681.32 4 684.06 22.12 655.92 9.2 625.04 41.57 633.57 66.94 611.75 68.83 645.17 97.42 662.56"/><polygon class="g" points="177.12 338.14 119.38 316.65 109.13 255.91 156.6 216.66 214.34 238.14 224.59 298.89 177.12 338.14"/><polygon class="g" points="790.17 175.8 759.82 164.5 754.43 132.58 779.38 111.94 809.73 123.24 815.12 155.16 790.17 175.8"/><polygon class="e" points="211.69 585.52 183.04 478.6 104.78 556.87 211.69 585.52"/><polygon class="e" points="514.04 62.51 529.72 4 471.2 19.68 514.04 62.51"/><circle class="h" cx="1093.78" cy="261.14" r="78.73"/><line class="i" x1="936.46" y1="72.23" x2="930.31" y2="37.71"/><line class="i" x1="949.24" y1="144.03" x2="943.09" y2="109.51"/><line class="i" x1="921.13" y1="94.19" x2="886.61" y2="100.34"/><line class="i" x1="992.94" y1="81.4" x2="958.42" y2="87.55"/><line class="i" x1="924.25" y1="80.04" x2="895.49" y2="59.97"/><line class="i" x1="984.06" y1="121.77" x2="955.3" y2="101.71"/><line class="i" x1="928.94" y1="106.4" x2="908.88" y2="135.16"/><line class="i" x1="970.67" y1="46.58" x2="950.61" y2="75.34"/><line class="j" x1="90.53" y1="388.53" x2="93.71" y2="369.79"/><line class="j" x1="81.84" y1="441.95" x2="85.02" y2="423.21"/><line class="j" x1="71.03" y1="403.02" x2="51.69" y2="399.94"/><line class="j" x1="123.86" y1="411.8" x2="104.52" y2="408.72"/><line class="j" x1="77.88" y1="391.6" x2="66.46" y2="376.16"/><line class="j" x1="109.1" y1="435.58" x2="97.67" y2="420.15"/><line class="j" x1="73.99" y1="416.12" x2="58.07" y2="427.19"/><line class="j" x1="117.48" y1="384.55" x2="101.56" y2="395.63"/><polygon class="k" points="219.66 118.16 244.72 111.45 257.68 88.98 250.97 63.93 228.51 50.96 203.45 57.68 190.49 80.14 197.2 105.19 219.66 118.16"/></svg>