<svg xmlns="http://www.w3.org/2000/svg" viewBox="0 0 556.3 230.96"><defs><style>.cls-1{opacity:0.11;}.cls-2{fill:#4d4d4d;}</style></defs><title>logo_wire</title><g id="Layer_2" data-name="Layer 2"><g id="Layer_1-2" data-name="Layer 1"><g class="cls-1"><path class="cls-2" d="M55.25,115.5a1,1,0,0,1-1-1v-2.85a1,1,0,0,1,1-1h9.26L54.23,80.25H26l-10.84,30.4h9.83a1,1,0,0,1,1,1v2.85a1,1,0,0,1-1,1H2a1,1,0,0,1-1-1v-2.85a1,1,0,0,1,1-1H8.35l38-102.4a1,1,0,0,1,.94-.65H59.6a1,1,0,0,1,.94.66L98.1,110.65h6.2a1,1,0,0,1,1,1v2.85a1,1,0,0,1-1,1ZM52.36,75,40.66,39.71,28,75Z"/><path class="cls-2" d="M59.6,8.6l37.8,103h6.9v2.85h-49v-2.85H65.9l-11-32.4H25.25L13.7,111.65H24.95v2.85H2v-2.85H9L47.3,8.6H59.6M26.6,76H53.75L40.7,36.65,26.6,76M59.6,6.6H47.3a2,2,0,0,0-1.87,1.3L7.66,109.65H2a2,2,0,0,0-2,2v2.85a2,2,0,0,0,2,2H24.95a2,2,0,0,0,2-2v-2.85a2,2,0,0,0-2-2H16.54l10.12-28.4H53.51l9.6,28.4H55.25a2,2,0,0,0-2,2v2.85a2,2,0,0,0,2,2h49a2,2,0,0,0,2-2v-2.85a2,2,0,0,0-2-2H98.8L61.48,7.91A2,2,0,0,0,59.6,6.6ZM29.44,74,40.63,42.78,51,74Z"/><path class="cls-2" d="M154.7,115.5a1,1,0,0,1-1-1v-2.7a1,1,0,0,1,1-1h5.15V63c0-7.25-.6-10.1-1.11-11.21a3.38,3.38,0,0,0-3.44-2c-2.8,0-5.37,2-7.61,5.8a29,29,0,0,0-3.54,14.8v40.4h5.45a1,1,0,0,1,1,1v2.7a1,1,0,0,1-1,1H107a1,1,0,0,1-1-1v-2.7a1,1,0,0,1,1-1h7.25v-64H107a1,1,0,0,1-1-1V43.1a1,1,0,0,1,1-1h36.15a1,1,0,0,1,1,1v9a24.59,24.59,0,0,1,5.7-7.1c3.47-2.94,8.74-4.44,15.65-4.44,16.09,0,24.25,8.76,24.25,26V110.8h7.4a1,1,0,0,1,1,1v2.7a1,1,0,0,1-1,1Z"/><path class="cls-2" d="M165.5,41.6q23.25,0,23.25,25V111.8h8.4v2.7H154.7v-2.7h6.15V63q0-9-1.2-11.62a4.37,4.37,0,0,0-4.35-2.62q-4.8,0-8.47,6.3a29.87,29.87,0,0,0-3.67,15.3v41.4h6.45v2.7H107v-2.7h8.25v-66H107V43.1h36.15V56.9a24.93,24.93,0,0,1,7.35-11.1q4.95-4.2,15-4.2m0-2c-7.15,0-12.64,1.57-16.29,4.67a24.87,24.87,0,0,0-4.06,4.39V43.1a2,2,0,0,0-2-2H107a2,2,0,0,0-2,2v2.7a2,2,0,0,0,2,2h6.25v62H107a2,2,0,0,0-2,2v2.7a2,2,0,0,0,2,2h42.6a2,2,0,0,0,2-2v-2.7a2,2,0,0,0-2-2h-4.45V70.4a28.05,28.05,0,0,1,3.4-14.29c2.08-3.57,4.29-5.31,6.75-5.31a2.37,2.37,0,0,1,2.53,1.46c.38.83,1,3.34,1,10.79V109.8H154.7a2,2,0,0,0-2,2v2.7a2,2,0,0,0,2,2h42.45a2,2,0,0,0,2-2v-2.7a2,2,0,0,0-2-2h-6.4V66.65c0-8.83-2.14-15.61-6.35-20.15s-10.61-6.9-18.9-6.9Z"/><path class="cls-2" d="M227.75,117c-8.89,0-15.9-3.26-20.82-9.69S199.6,91.42,199.6,79c0-25.45,10.33-38.35,30.7-38.35,7.53,0,13,1.79,16.4,5.34V5.7h-8.15a1,1,0,0,1-1-1V2a1,1,0,0,1,1-1H276a1,1,0,0,1,1,1V110.8h6.35a1,1,0,0,1,1,1v2.7a1,1,0,0,1-1,1H250.1a1,1,0,0,1-1-.84l-1.17-7.45C244,113.71,237.25,117,227.75,117ZM238.1,47c-2.82,0-4.71,1.92-5.79,5.86-1.17,4.29-1.76,12-1.76,22.84v7.8c0,10.35.54,17.29,1.6,20.62,1,3,2.64,4.48,5.12,4.48a8.64,8.64,0,0,0,6.88-3.54c2-2.4,3-6.07,3-10.91V61.4a21,21,0,0,0-2.42-10.46A7.15,7.15,0,0,0,238.1,47Z"/><path class="cls-2" d="M276,2V111.8h7.35v2.7H250.1L248.45,104q-5.1,12-20.7,12-12.9,0-20-9.3T200.6,79q0-37.35,29.7-37.35,13.2,0,17.4,7.35V4.7h-9.15V2H276M237.27,109.55a9.66,9.66,0,0,0,7.65-3.9q3.22-3.9,3.22-11.55V61.4a21.91,21.91,0,0,0-2.55-10.95,8.15,8.15,0,0,0-7.5-4.5q-4.95,0-6.75,6.6t-1.8,23.1v7.8q0,15.75,1.65,20.92t6.08,5.17M276,0h-37.5a2,2,0,0,0-2,2V4.7a2,2,0,0,0,2,2h7.15v37c-3.58-2.73-8.73-4.1-15.4-4.1-10.49,0-18.52,3.4-23.84,10.09S198.6,66.09,198.6,79c0,12.69,2.54,22.44,7.54,29,5.12,6.69,12.39,10.08,21.61,10.08,8.81,0,15.37-2.74,19.59-8.15l.78,5a2,2,0,0,0,2,1.69h33.3a2,2,0,0,0,2-2v-2.7a2,2,0,0,0-2-2H278V2a2,2,0,0,0-2-2ZM237.27,107.55c-1.38,0-3.1-.43-4.17-3.78s-1.55-10.07-1.55-20.32v-7.8c0-10.77.58-18.37,1.73-22.57,1.25-4.59,3.35-5.13,4.82-5.13a6.15,6.15,0,0,1,5.76,3.49,20,20,0,0,1,2.29,10V94.1c0,4.6-.93,8.06-2.77,10.28a7.7,7.7,0,0,1-6.11,3.17Z"/><path class="cls-2" d="M287.3,115.5a1,1,0,0,1-1-1v-2.7a1,1,0,0,1,1-1h7.25v-64H287.3a1,1,0,0,1-1-1V43.1a1,1,0,0,1,1-1h36.15a1,1,0,0,1,1,1V52a20,20,0,0,1,5.9-7,21.65,21.65,0,0,1,13.2-4.32c4.93,0,9,1.42,12.14,4.23s4.76,6.87,4.76,12-1.19,9-3.54,11.82S350.86,72.9,346,72.9,337.5,71.25,335.16,68s-2.66-7.73-1-13.32a1,1,0,0,1,1-.71h4.77c1.22-2.7,1.05-4,.68-4.59s-1.51-1.06-3.19-1.06c-3.3,0-6.29,2.26-8.89,6.7a32.51,32.51,0,0,0-4.06,16.6v39.2h9.65a1,1,0,0,1,1,1v2.7a1,1,0,0,1-1,1Z"/><path class="cls-2" d="M343.55,41.6q7,0,11.47,4t4.43,11.25q0,7.28-3.3,11.17T346,71.9q-6.83,0-10-4.5T335.15,55h5.4q3.75-7.65-3.15-7.65-5.55,0-9.75,7.2a33.34,33.34,0,0,0-4.2,17.1v40.2H334.1v2.7H287.3v-2.7h8.25v-66H287.3V43.1h36.15V57.5a20.34,20.34,0,0,1,7.5-11.77,20.58,20.58,0,0,1,12.6-4.12m0-2a22.63,22.63,0,0,0-13.79,4.52,20.62,20.62,0,0,0-4.31,4.32V43.1a2,2,0,0,0-2-2H287.3a2,2,0,0,0-2,2v2.7a2,2,0,0,0,2,2h6.25v62H287.3a2,2,0,0,0-2,2v2.7a2,2,0,0,0,2,2h46.8a2,2,0,0,0,2-2v-2.7a2,2,0,0,0-2-2h-8.65V71.6a31.53,31.53,0,0,1,3.93-16.09c2.44-4.18,5.06-6.21,8-6.21,1.46,0,2.17.3,2.34.59.05.08.43.81-.49,3.06h-4.11a2,2,0,0,0-1.91,1.42c-1.78,5.9-1.41,10.68,1.11,14.19S340.81,73.9,346,73.9s9.07-1.55,11.65-4.61,3.77-7.15,3.77-12.47-1.71-9.7-5.09-12.74-7.63-4.49-12.81-4.49Z"/><path class="cls-2" d="M400.25,117c-13.12,0-23.13-3.46-29.74-10.28s-10-16.38-10-28.45,3.77-21.51,11.22-28S388.7,40.6,400.1,40.6c11.55,0,20.26,3,25.88,8.81s8.28,14.77,7.82,26.43a1,1,0,0,1-1,1H391.5v4.85c0,9.6,1.23,16.92,3.64,21.75,2.33,4.67,6.31,6.95,12.16,6.95,11.2,0,18.35-5.85,21.84-17.88a1,1,0,0,1,1-.72h.17l2.7.45a1,1,0,0,1,.8,1.24c-1.95,7.38-5.52,13.21-10.61,17.32S410.34,117,400.25,117Zm4.85-45.2V65.45c0-8-.46-13.43-1.38-16.27-.82-2.54-2.33-3.73-4.75-3.73s-4.19,1.35-5.38,4.12c-1.29,3-1.94,8.35-1.94,15.88V71.8Z"/><path class="cls-2" d="M400.1,41.6q34,0,32.7,34.2H390.5v5.85q0,14.7,3.75,22.2t13,7.5q17.4,0,22.8-18.6l2.7.45Q429.95,104,422.52,110t-22.27,6q-19.35,0-29-10t-9.67-27.75q0-17.78,10.88-27.23T400.1,41.6m-9.45,31.2H406.1V65.45q0-12.15-1.42-16.58T399,44.45q-4.27,0-6.3,4.72t-2,16.28V72.8m9.45-33.2c-11.64,0-21.4,3.34-29,9.94s-11.56,16.33-11.56,28.73,3.45,22.14,10.24,29.14S386.84,118,400.25,118c10.32,0,18.24-2.17,23.53-6.44s8.95-10.26,11-17.84a2,2,0,0,0-1.6-2.48l-2.7-.45-.33,0a2,2,0,0,0-1.92,1.44c-3.35,11.55-10.18,17.16-20.88,17.16-5.43,0-9.11-2.09-11.26-6.39-2.35-4.7-3.54-11.86-3.54-21.31V77.8h40.3a2,2,0,0,0,2-1.92c.47-11.94-2.25-21.08-8.1-27.16s-14.77-9.12-26.6-9.12Zm-7.45,31.2V65.45c0-7.39.63-12.6,1.86-15.49,1.35-3.15,3.19-3.51,4.46-3.51,2,0,3.11.91,3.8,3,.88,2.74,1.33,8.11,1.33,16V70.8Z"/><path class="cls-2" d="M509.45,115.5a1,1,0,0,1-1-.73L496.36,72l-13.11,42.81a1,1,0,0,1-1,.71H462.2a1,1,0,0,1-1-.69l-22-68h-6a1,1,0,0,1-1-1V43.1a1,1,0,0,1,1-1H478.7a1,1,0,0,1,1,1v2.7a1,1,0,0,1-1,1H471l12.55,46.4,9.7-31.53L489.75,46.8H485a1,1,0,0,1-1-1V43.1a1,1,0,0,1,1-1h38.7a1,1,0,0,1,1,1v2.7a1,1,0,0,1-1,1h-4.85L531,92.45,543.1,46.8H534a1,1,0,0,1-1-1V43.1a1,1,0,0,1,1-1H554.3a1,1,0,0,1,1,1v2.7a1,1,0,0,1-1,1h-5.53l-17.8,68a1,1,0,0,1-1,.75Z"/><path class="cls-2" d="M554.3,43.1v2.7H548l-18,68.7H509.45l-13-46-14.1,46H462.2L440,45.8h-6.75V43.1H478.7v2.7h-9l13.8,51,10.8-35.1-3.75-15.9H485V43.1h38.7v2.7h-6.15L531,96.35,544.4,45.8H534V43.1H554.3m0-2H534a2,2,0,0,0-2,2v2.7a2,2,0,0,0,2,2h7.75L531,88.56,520.15,47.8h3.55a2,2,0,0,0,2-2V43.1a2,2,0,0,0-2-2H485a2,2,0,0,0-2,2v2.7a2,2,0,0,0,2,2h4l3.26,13.83-8.61,28L472.31,47.8h6.39a2,2,0,0,0,2-2V43.1a2,2,0,0,0-2-2H433.25a2,2,0,0,0-2,2v2.7a2,2,0,0,0,2,2h5.29l21.75,67.32a2,2,0,0,0,1.9,1.39h20.1a2,2,0,0,0,1.91-1.41l12.11-39.56L507.52,115a2,2,0,0,0,1.92,1.45H530a2,2,0,0,0,1.93-1.49L549.54,47.8h4.76a2,2,0,0,0,2-2V43.1a2,2,0,0,0-2-2Z"/><path class="cls-2" d="M31.4,229.81c-8.26,0-14.93-1.62-19.82-4.81A15.74,15.74,0,0,1,4,211.11c0-4.55,1.31-8.19,3.88-10.82s6.13-4,10.54-4,7.78,1.16,10,3.45A11.47,11.47,0,0,1,31.8,208a26.91,26.91,0,0,1-1.71,9.27,1,1,0,0,1-.94.66H23.88a7,7,0,0,0-.93,3.28,3.18,3.18,0,0,0,1.6,2.63,8.13,8.13,0,0,0,4.75,1.24c3.57,0,5.79-1.33,6.79-4.07,1.1-3,1.67-9.8,1.67-20.13v-74.6H27.5a1,1,0,0,1-1-1v-2.85a1,1,0,0,1,1-1H76.25a1,1,0,0,1,1,1v2.85a1,1,0,0,1-1,1H69v63.8c0,13.71-3.18,23.86-9.44,30.18S43.82,229.81,31.4,229.81Z"/><path class="cls-2" d="M76.25,122.46v2.85H68v64.8q0,20.25-9.15,29.47T31.4,228.81q-12.15,0-19.27-4.65a14.73,14.73,0,0,1-7.12-13Q5,204.66,8.6,201t9.83-3.68q6.22,0,9.3,3.15A10.46,10.46,0,0,1,30.8,208,25.8,25.8,0,0,1,29.15,217H23.3a8.35,8.35,0,0,0-1.35,4.28,4.15,4.15,0,0,0,2,3.45,9,9,0,0,0,5.33,1.43q6,0,7.72-4.73t1.73-20.47v-75.6H27.5v-2.85H76.25m0-2H27.5a2,2,0,0,0-2,2v2.85a2,2,0,0,0,2,2h9.25v73.6c0,12.72-.87,17.78-1.6,19.79-.53,1.46-1.72,3.41-5.85,3.41A7.18,7.18,0,0,1,25.13,223c-1-.73-1.18-1.36-1.18-1.81A5.56,5.56,0,0,1,24.5,219h4.65A2,2,0,0,0,31,217.65,27.91,27.91,0,0,0,32.8,208a12.44,12.44,0,0,0-3.64-9c-2.43-2.49-6-3.75-10.73-3.75S10,196.75,7.17,199.58,3,206.29,3,211.11a16.69,16.69,0,0,0,8,14.73c5.05,3.3,11.91,5,20.37,5,12.7,0,22.41-3.3,28.87-9.82S70,204.09,70,190.11v-62.8h6.25a2,2,0,0,0,2-2v-2.85a2,2,0,0,0-2-2Z"/><path class="cls-2" d="M138.05,230c-11,0-18-3.11-20.78-9.25a15.85,15.85,0,0,1-5.2,6.38c-2.76,1.91-6.79,2.88-12,2.88-15.39,0-23.2-6.44-23.2-19.15,0-7.49,3-12.71,9-15.53,5.76-2.7,14.66-4.07,26.45-4.07h3.35V180.66c0-9.35-.51-15.68-1.53-18.82-.92-2.85-2.55-4.18-5.12-4.18a7.76,7.76,0,0,0-4.33,1.26,3.43,3.43,0,0,0-1.72,3.06,13.81,13.81,0,0,0,.62,4h3a1,1,0,0,1,.93.64,22.4,22.4,0,0,1,1.27,7.93,10.8,10.8,0,0,1-4.1,8.41,15,15,0,0,1-10.1,3.47c-9.09,0-13.9-4.65-13.9-13.45,0-12.91,10.88-19.45,32.35-19.45,12.09,0,20.62,2.13,25.34,6.33s7.16,12,7.16,23v30.45c0,6.8,2.52,6.8,3.35,6.8,2.68,0,4.46-5.15,5-14.51a1,1,0,0,1,1-.94l2.32.15a1,1,0,0,1,.93,1c-.42,9.12-2.12,15.25-5.2,18.76S144.92,230,138.05,230ZM115.7,195.61c-5.58,0-8.3,4.14-8.3,12.65v2.4c0,6.3.42,8.76.76,9.71a2.13,2.13,0,0,0,2.21,1.59c1.42,0,2.67-1.79,3.47-3.29,1.27-2.39,1.91-5.79,1.91-10.11V195.61Z"/><path class="cls-2" d="M113.15,154.56q17.85,0,24.67,6.08t6.83,22.28v30.45q0,7.8,4.35,7.8,5.1,0,6-15.45l2.25.15q-.6,13.2-4.95,18.15t-14.25,5q-18,0-20.7-11.1a16.16,16.16,0,0,1-5.85,8.4q-3.9,2.7-11.4,2.7-22.2,0-22.2-18.15,0-10.65,8.47-14.62t26-4h4.35V180.66q0-14.25-1.57-19.12t-6.08-4.87a8.7,8.7,0,0,0-4.87,1.42,4.43,4.43,0,0,0-2.17,3.9,15,15,0,0,0,.9,5h3.75a21.32,21.32,0,0,1,1.2,7.58,9.8,9.8,0,0,1-3.75,7.65,14,14,0,0,1-9.45,3.22q-12.9,0-12.9-12.45,0-18.45,31.35-18.45M110.38,223q2.32,0,4.35-3.83t2-10.58V194.61h-1q-9.3,0-9.3,13.65v2.4q0,7.8.83,10a3.11,3.11,0,0,0,3.15,2.25m2.78-70.4C91,152.56,79.8,159.44,79.8,173c0,9.45,5.15,14.45,14.9,14.45a16,16,0,0,0,10.75-3.71,11.76,11.76,0,0,0,4.45-9.17,23.39,23.39,0,0,0-1.33-8.29A2,2,0,0,0,106.7,165h-2.27a12.51,12.51,0,0,1-.38-3,2.44,2.44,0,0,1,1.27-2.23,6.68,6.68,0,0,1,3.78-1.1c1.42,0,3.17.4,4.17,3.49s1.48,9.26,1.48,18.51v9.55H112.4c-12.11,0-20.9,1.36-26.87,4.16-6.39,3-9.63,8.53-9.63,16.44,0,16.65,13.16,20.15,24.2,20.15,5.46,0,9.57-1,12.54-3.06a16.05,16.05,0,0,0,4.64-5.08c3.4,5.4,10.36,8.13,20.78,8.13,7.17,0,12.47-1.89,15.75-5.63s5-10,5.45-19.38a2,2,0,0,0-1.86-2.09l-2.25-.15H155a2,2,0,0,0-2,1.88c-.58,10-2.52,13.57-4,13.57s-2.35-2-2.35-5.8V182.91c0-11.35-2.52-19.34-7.5-23.77s-13.48-6.58-26-6.58ZM110.38,221c-.62,0-1-.14-1.27-.94s-.7-2.88-.7-9.36v-2.4c0-9.41,3.39-11.32,6.35-11.61v11.91c0,4.15-.6,7.39-1.79,9.64-.92,1.73-1.88,2.76-2.58,2.76Z"/><path class="cls-2" d="M248.15,228.46a1,1,0,0,1-1-1v-2.7a1,1,0,0,1,1-1h4.25V176c0-9.91-1.16-12.14-1.66-12.64a2.27,2.27,0,0,0-1.69-.61c-2.5,0-4.78,1.8-6.78,5.34-2.1,3.73-3.17,8.56-3.17,14.36v41.3h4.4a1,1,0,0,1,1,1v2.7a1,1,0,0,1-1,1H205a1,1,0,0,1-1-1v-2.7a1,1,0,0,1,1-1h4.25V176c0-9.56-1-12-1.66-12.64a2.27,2.27,0,0,0-1.69-.61c-2.39,0-4.64,2-6.69,5.84a31.31,31.31,0,0,0-3.26,14.76v40.4h4.4a1,1,0,0,1,1,1v2.7a1,1,0,0,1-1,1H158.75a1,1,0,0,1-1-1v-2.7a1,1,0,0,1,1-1H166v-64h-7.25a1,1,0,0,1-1-1v-2.7a1,1,0,0,1,1-1H194.9a1,1,0,0,1,1,1v8.84c4-7.53,11-11.34,20.82-11.34,10.63,0,17.55,4.69,20.62,14,4-9.27,11.33-14,21.9-14,15.29,0,23,8.76,23,26.05v44.15h7.4a1,1,0,0,1,1,1v2.7a1,1,0,0,1-1,1Z"/><path class="cls-2" d="M259.25,154.56q22.05,0,22,25.05v45.15h8.4v2.7H248.15v-2.7h5.25V176q0-11.4-2-13.35a3.24,3.24,0,0,0-2.4-.9q-4.35,0-7.65,5.85t-3.3,14.85v42.3h5.4v2.7H205v-2.7h5.25V176q0-11.4-2-13.35a3.24,3.24,0,0,0-2.4-.9q-4.2,0-7.57,6.38a32.14,32.14,0,0,0-3.37,15.23v41.4h5.4v2.7H158.75v-2.7H167v-66h-8.25v-2.7H194.9v13.8q4.95-15.3,21.82-15.3t20.48,16.2q5.25-16.2,22-16.2m0-2c-10.17,0-17.48,4.17-21.8,12.4-3.54-8.24-10.49-12.4-20.73-12.4-8.85,0-15.49,3-19.82,8.85v-5.35a2,2,0,0,0-2-2H158.75a2,2,0,0,0-2,2v2.7a2,2,0,0,0,2,2H165v62h-6.25a2,2,0,0,0-2,2v2.7a2,2,0,0,0,2,2H200.3a2,2,0,0,0,2-2v-2.7a2,2,0,0,0-2-2h-3.4v-39.4A30.33,30.33,0,0,1,200,169.07c1.87-3.52,3.82-5.31,5.81-5.31a1.23,1.23,0,0,1,1,.31c.14.15,1.37,1.74,1.37,11.94v46.75H205a2,2,0,0,0-2,2v2.7a2,2,0,0,0,2,2H243.5a2,2,0,0,0,2-2v-2.7a2,2,0,0,0-2-2h-3.4v-40.3c0-5.62,1-10.29,3-13.87,1.81-3.21,3.8-4.83,5.91-4.83a1.25,1.25,0,0,1,1,.31c.14.15,1.36,1.74,1.36,11.94v46.75h-3.25a2,2,0,0,0-2,2v2.7a2,2,0,0,0,2,2H289.7a2,2,0,0,0,2-2v-2.7a2,2,0,0,0-2-2h-6.4V179.61c0-8.81-2-15.58-6-20.11s-10.12-6.94-18-6.94Z"/><path class="cls-2" d="M331.4,230c-13.12,0-23.13-3.46-29.74-10.28s-10-16.38-10-28.45,3.77-21.51,11.22-28,16.93-9.7,28.33-9.7c11.55,0,20.26,3,25.88,8.81s8.28,14.77,7.82,26.43a1,1,0,0,1-1,1h-41.3v4.85c0,9.6,1.23,16.92,3.64,21.75,2.33,4.67,6.31,6.95,12.16,6.95,11.2,0,18.35-5.85,21.84-17.88a1,1,0,0,1,1-.72h.17l2.7.45a1,1,0,0,1,.8,1.24c-1.95,7.38-5.52,13.21-10.61,17.32S341.49,230,331.4,230Zm4.85-45.2v-6.35c0-8-.46-13.43-1.38-16.27-.82-2.54-2.33-3.73-4.75-3.73s-4.19,1.35-5.38,4.12c-1.29,3-1.94,8.35-1.94,15.88v6.35Z"/><path class="cls-2" d="M331.25,154.56q34,0,32.7,34.2h-42.3v5.85q0,14.7,3.75,22.2t13,7.5q17.4,0,22.8-18.6l2.7.45Q361.1,217,353.67,223t-22.27,6q-19.35,0-29-10t-9.67-27.75q0-17.78,10.88-27.23t27.67-9.45m-9.45,31.2h15.45v-7.35q0-12.15-1.42-16.58t-5.7-4.42q-4.27,0-6.3,4.72t-2,16.28v7.35m9.45-33.2c-11.64,0-21.4,3.34-29,9.94s-11.56,16.33-11.56,28.74,3.44,22.14,10.24,29.14S318,231,331.4,231c10.32,0,18.24-2.17,23.53-6.44s8.95-10.26,11-17.84a2,2,0,0,0-1.6-2.48l-2.7-.45-.33,0a2,2,0,0,0-1.92,1.44c-3.35,11.54-10.18,17.16-20.88,17.16-5.43,0-9.11-2.09-11.26-6.39-2.35-4.69-3.54-11.86-3.54-21.31v-3.85h40.3a2,2,0,0,0,2-1.92c.47-11.94-2.25-21.08-8.1-27.16s-14.77-9.12-26.6-9.12Zm-7.45,31.2v-5.35c0-7.39.63-12.6,1.86-15.49,1.35-3.15,3.19-3.51,4.46-3.51,2,0,3.11.91,3.8,3,.88,2.74,1.33,8.11,1.33,16v5.35Z"/><path class="cls-2" d="M400.4,230a41,41,0,0,1-18.45-4.46l-.11-.06a4.75,4.75,0,0,0-2.29-1c-1.8,0-3.68,1.7-5.58,5a1,1,0,0,1-.87.51h-1.8a1,1,0,0,1-1-1V202.11a1,1,0,0,1,1-1h1.8a1,1,0,0,1,1,.71c2.53,8.46,5.95,14.45,10.16,17.8s9.54,5,15.88,5c9.62,0,14.3-2.86,14.3-8.75a5.81,5.81,0,0,0-3.24-5.43,49.8,49.8,0,0,0-14.7-5A60,60,0,0,1,379,198.14c-5.78-3.78-8.7-9.81-8.7-17.94s2.52-14.57,7.5-19.39,11.66-7.26,19.89-7.26a38.52,38.52,0,0,1,15.55,3.54,11.12,11.12,0,0,0,3.95,1.11,2.49,2.49,0,0,0,1.84-.76,15.86,15.86,0,0,0,2.37-3.66,1,1,0,0,1,.88-.53h1.65a1,1,0,0,1,1,1v23a1,1,0,0,1-1,1h-1.8a1,1,0,0,1-.93-.63c-5-12.69-12.43-18.87-22.77-18.87-4.46,0-7.8.77-9.92,2.29a6.41,6.41,0,0,0-3,5.41,4.45,4.45,0,0,0,.82,2.89c.67.82,1.2,1.43,1.58,1.8a6.59,6.59,0,0,0,1.69,1.09c.91.45,1.62.79,2.18,1s1.5.56,2.7.95a21.06,21.06,0,0,0,2.63.72A116.39,116.39,0,0,1,412,179.36a51.42,51.42,0,0,1,8.72,4.67c5.77,4,8.7,10.45,8.7,19.21s-2.64,15.43-7.84,20S409.3,230,400.4,230Z"/><path class="cls-2" d="M423.95,154.26v23h-1.8q-7.65-19.5-23.7-19.5-7.05,0-10.5,2.47a7.41,7.41,0,0,0-3.45,6.23,5.38,5.38,0,0,0,1,3.52q1,1.28,1.65,1.88a7.64,7.64,0,0,0,2,1.28q1.35.68,2.25,1c.6.25,1.52.58,2.78,1a21.86,21.86,0,0,0,2.77.75,114.73,114.73,0,0,1,14.7,4.42,50.13,50.13,0,0,1,8.55,4.58q8.25,5.7,8.25,18.38t-7.5,19.2Q413.44,229,400.4,229a39.8,39.8,0,0,1-18-4.35,5.78,5.78,0,0,0-2.85-1.2q-3.3,0-6.45,5.55h-1.8V202.11h1.8q3.9,13,10.5,18.3t16.5,5.25q15.3,0,15.3-9.75a6.8,6.8,0,0,0-3.75-6.3,50.56,50.56,0,0,0-15-5.1,58.65,58.65,0,0,1-17.1-7.2q-8.25-5.4-8.25-17.1t7.2-18.67q7.2-7,19.2-7A37.37,37.37,0,0,1,412.85,158a12.41,12.41,0,0,0,4.35,1.2,3.48,3.48,0,0,0,2.55-1,17.32,17.32,0,0,0,2.55-3.9h1.65m0-2H422.3a2,2,0,0,0-1.77,1.07,15,15,0,0,1-2.19,3.42,1.48,1.48,0,0,1-1.14.46,10.31,10.31,0,0,1-3.57-1,39.46,39.46,0,0,0-15.93-3.61c-8.5,0-15.43,2.54-20.59,7.54s-7.81,11.78-7.81,20.11c0,8.48,3.08,14.8,9.15,18.77a60.9,60.9,0,0,0,17.68,7.46l.13,0a48.83,48.83,0,0,1,14.4,4.88,4.83,4.83,0,0,1,2.73,4.56c0,6.95-7.59,7.75-13.3,7.75-6.11,0-11.24-1.62-15.25-4.81s-7.36-9-9.83-17.31a2,2,0,0,0-1.92-1.43h-1.8a2,2,0,0,0-2,2V229a2,2,0,0,0,2,2h1.8a2,2,0,0,0,1.74-1c1.66-2.93,3.33-4.54,4.71-4.54a4.5,4.5,0,0,1,1.74.86l.21.12A42,42,0,0,0,400.4,231c9.16,0,16.51-2.36,21.86-7s8.19-11.69,8.19-20.71-3.07-15.84-9.11-20a52.44,52.44,0,0,0-8.92-4.78,115.3,115.3,0,0,0-15-4.52l-.16,0a19.46,19.46,0,0,1-2.49-.68c-1.46-.47-2.23-.76-2.61-.92-.55-.23-1.24-.55-2.13-1a5.69,5.69,0,0,1-1.43-.9c-.25-.25-.72-.75-1.52-1.73a3.52,3.52,0,0,1-.6-2.26,5.41,5.41,0,0,1,2.61-4.6c1.94-1.39,5.08-2.1,9.33-2.1,9.88,0,17,6,21.84,18.23a2,2,0,0,0,1.86,1.27h1.8a2,2,0,0,0,2-2v-23a2,2,0,0,0-2-2Z"/></g><path class="cls-2" d="M59.6,8.6l37.8,103h6.9v2.85h-49v-2.85H65.9l-11-32.4H25.25L13.7,111.65H24.95v2.85H2v-2.85H9L47.3,8.6H59.6M26.6,76H53.75L40.7,36.65,26.6,76M59.6,6.6H47.3a2,2,0,0,0-1.87,1.3L7.66,109.65H2a2,2,0,0,0-2,2v2.85a2,2,0,0,0,2,2H24.95a2,2,0,0,0,2-2v-2.85a2,2,0,0,0-2-2H16.54l10.12-28.4H53.51l9.6,28.4H55.25a2,2,0,0,0-2,2v2.85a2,2,0,0,0,2,2h49a2,2,0,0,0,2-2v-2.85a2,2,0,0,0-2-2H98.8L61.48,7.91A2,2,0,0,0,59.6,6.6ZM29.44,74,40.63,42.78,51,74Z"/><path class="cls-2" d="M165.5,41.6q23.25,0,23.25,25V111.8h8.4v2.7H154.7v-2.7h6.15V63q0-9-1.2-11.62a4.37,4.37,0,0,0-4.35-2.62q-4.8,0-8.47,6.3a29.87,29.87,0,0,0-3.67,15.3v41.4h6.45v2.7H107v-2.7h8.25v-66H107V43.1h36.15V56.9a24.93,24.93,0,0,1,7.35-11.1q4.95-4.2,15-4.2m0-2c-7.15,0-12.64,1.57-16.29,4.67a24.87,24.87,0,0,0-4.06,4.39V43.1a2,2,0,0,0-2-2H107a2,2,0,0,0-2,2v2.7a2,2,0,0,0,2,2h6.25v62H107a2,2,0,0,0-2,2v2.7a2,2,0,0,0,2,2h42.6a2,2,0,0,0,2-2v-2.7a2,2,0,0,0-2-2h-4.45V70.4a28.05,28.05,0,0,1,3.4-14.29c2.08-3.57,4.29-5.31,6.75-5.31a2.37,2.37,0,0,1,2.53,1.46c.38.83,1,3.34,1,10.79V109.8H154.7a2,2,0,0,0-2,2v2.7a2,2,0,0,0,2,2h42.45a2,2,0,0,0,2-2v-2.7a2,2,0,0,0-2-2h-6.4V66.65c0-8.83-2.14-15.61-6.35-20.15s-10.61-6.9-18.9-6.9Z"/><path class="cls-2" d="M276,2V111.8h7.35v2.7H250.1L248.45,104q-5.1,12-20.7,12-12.9,0-20-9.3T200.6,79q0-37.35,29.7-37.35,13.2,0,17.4,7.35V4.7h-9.15V2H276M237.27,109.55a9.66,9.66,0,0,0,7.65-3.9q3.22-3.9,3.22-11.55V61.4a21.91,21.91,0,0,0-2.55-10.95,8.15,8.15,0,0,0-7.5-4.5q-4.95,0-6.75,6.6t-1.8,23.1v7.8q0,15.75,1.65,20.92t6.08,5.17M276,0h-37.5a2,2,0,0,0-2,2V4.7a2,2,0,0,0,2,2h7.15v37c-3.58-2.73-8.73-4.1-15.4-4.1-10.49,0-18.52,3.4-23.84,10.09S198.6,66.09,198.6,79c0,12.69,2.54,22.44,7.54,29,5.12,6.69,12.39,10.08,21.61,10.08,8.81,0,15.37-2.74,19.59-8.15l.78,5a2,2,0,0,0,2,1.69h33.3a2,2,0,0,0,2-2v-2.7a2,2,0,0,0-2-2H278V2a2,2,0,0,0-2-2ZM237.27,107.55c-1.38,0-3.1-.43-4.17-3.78s-1.55-10.07-1.55-20.32v-7.8c0-10.77.58-18.37,1.73-22.57,1.25-4.59,3.35-5.13,4.82-5.13a6.15,6.15,0,0,1,5.76,3.49,20,20,0,0,1,2.29,10V94.1c0,4.6-.93,8.06-2.77,10.28a7.7,7.7,0,0,1-6.11,3.17Z"/><path class="cls-2" d="M343.55,41.6q7,0,11.47,4t4.43,11.25q0,7.28-3.3,11.17T346,71.9q-6.83,0-10-4.5T335.15,55h5.4q3.75-7.65-3.15-7.65-5.55,0-9.75,7.2a33.34,33.34,0,0,0-4.2,17.1v40.2H334.1v2.7H287.3v-2.7h8.25v-66H287.3V43.1h36.15V57.5a20.34,20.34,0,0,1,7.5-11.77,20.58,20.58,0,0,1,12.6-4.12m0-2a22.63,22.63,0,0,0-13.79,4.52,20.62,20.62,0,0,0-4.31,4.32V43.1a2,2,0,0,0-2-2H287.3a2,2,0,0,0-2,2v2.7a2,2,0,0,0,2,2h6.25v62H287.3a2,2,0,0,0-2,2v2.7a2,2,0,0,0,2,2h46.8a2,2,0,0,0,2-2v-2.7a2,2,0,0,0-2-2h-8.65V71.6a31.53,31.53,0,0,1,3.93-16.09c2.44-4.18,5.06-6.21,8-6.21,1.46,0,2.17.3,2.34.59.05.08.43.81-.49,3.06h-4.11a2,2,0,0,0-1.91,1.42c-1.78,5.9-1.41,10.68,1.11,14.19S340.81,73.9,346,73.9s9.07-1.55,11.65-4.61,3.77-7.15,3.77-12.47-1.71-9.7-5.09-12.74-7.63-4.49-12.81-4.49Z"/><path class="cls-2" d="M400.1,41.6q34,0,32.7,34.2H390.5v5.85q0,14.7,3.75,22.2t13,7.5q17.4,0,22.8-18.6l2.7.45Q429.95,104,422.52,110t-22.27,6q-19.35,0-29-10t-9.67-27.75q0-17.78,10.88-27.23T400.1,41.6m-9.45,31.2H406.1V65.45q0-12.15-1.42-16.58T399,44.45q-4.27,0-6.3,4.72t-2,16.28V72.8m9.45-33.2c-11.64,0-21.4,3.34-29,9.94s-11.56,16.33-11.56,28.73,3.45,22.14,10.24,29.14S386.84,118,400.25,118c10.32,0,18.24-2.17,23.53-6.44s8.95-10.26,11-17.84a2,2,0,0,0-1.6-2.48l-2.7-.45-.33,0a2,2,0,0,0-1.92,1.44c-3.35,11.55-10.18,17.16-20.88,17.16-5.43,0-9.11-2.09-11.26-6.39-2.35-4.7-3.54-11.86-3.54-21.31V77.8h40.3a2,2,0,0,0,2-1.92c.47-11.94-2.25-21.08-8.1-27.16s-14.77-9.12-26.6-9.12Zm-7.45,31.2V65.45c0-7.39.63-12.6,1.86-15.49,1.35-3.15,3.19-3.51,4.46-3.51,2,0,3.11.91,3.8,3,.88,2.74,1.33,8.11,1.33,16V70.8Z"/><path class="cls-2" d="M554.3,43.1v2.7H548l-18,68.7H509.45l-13-46-14.1,46H462.2L440,45.8h-6.75V43.1H478.7v2.7h-9l13.8,51,10.8-35.1-3.75-15.9H485V43.1h38.7v2.7h-6.15L531,96.35,544.4,45.8H534V43.1H554.3m0-2H534a2,2,0,0,0-2,2v2.7a2,2,0,0,0,2,2h7.75L531,88.56,520.15,47.8h3.55a2,2,0,0,0,2-2V43.1a2,2,0,0,0-2-2H485a2,2,0,0,0-2,2v2.7a2,2,0,0,0,2,2h4l3.26,13.83-8.61,28L472.31,47.8h6.39a2,2,0,0,0,2-2V43.1a2,2,0,0,0-2-2H433.25a2,2,0,0,0-2,2v2.7a2,2,0,0,0,2,2h5.29l21.75,67.32a2,2,0,0,0,1.9,1.39h20.1a2,2,0,0,0,1.91-1.41l12.11-39.56L507.52,115a2,2,0,0,0,1.92,1.45H530a2,2,0,0,0,1.93-1.49L549.54,47.8h4.76a2,2,0,0,0,2-2V43.1a2,2,0,0,0-2-2Z"/><path class="cls-2" d="M76.25,122.46v2.85H68v64.8q0,20.25-9.15,29.47T31.4,228.81q-12.15,0-19.27-4.65a14.73,14.73,0,0,1-7.12-13Q5,204.66,8.6,201t9.83-3.68q6.22,0,9.3,3.15A10.46,10.46,0,0,1,30.8,208,25.8,25.8,0,0,1,29.15,217H23.3a8.35,8.35,0,0,0-1.35,4.28,4.15,4.15,0,0,0,2,3.45,9,9,0,0,0,5.33,1.43q6,0,7.72-4.73t1.73-20.47v-75.6H27.5v-2.85H76.25m0-2H27.5a2,2,0,0,0-2,2v2.85a2,2,0,0,0,2,2h9.25v73.6c0,12.72-.87,17.78-1.6,19.79-.53,1.46-1.72,3.41-5.85,3.41A7.18,7.18,0,0,1,25.13,223c-1-.73-1.18-1.36-1.18-1.81A5.56,5.56,0,0,1,24.5,219h4.65A2,2,0,0,0,31,217.65,27.91,27.91,0,0,0,32.8,208a12.44,12.44,0,0,0-3.64-9c-2.43-2.49-6-3.75-10.73-3.75S10,196.75,7.17,199.58,3,206.29,3,211.11a16.69,16.69,0,0,0,8,14.73c5.05,3.3,11.91,5,20.37,5,12.7,0,22.41-3.3,28.87-9.82S70,204.09,70,190.11v-62.8h6.25a2,2,0,0,0,2-2v-2.85a2,2,0,0,0-2-2Z"/><path class="cls-2" d="M113.15,154.56q17.85,0,24.67,6.08t6.83,22.28v30.45q0,7.8,4.35,7.8,5.1,0,6-15.45l2.25.15q-.6,13.2-4.95,18.15t-14.25,5q-18,0-20.7-11.1a16.16,16.16,0,0,1-5.85,8.4q-3.9,2.7-11.4,2.7-22.2,0-22.2-18.15,0-10.65,8.47-14.62t26-4h4.35V180.66q0-14.25-1.57-19.12t-6.08-4.87a8.7,8.7,0,0,0-4.87,1.42,4.43,4.43,0,0,0-2.17,3.9,15,15,0,0,0,.9,5h3.75a21.32,21.32,0,0,1,1.2,7.58,9.8,9.8,0,0,1-3.75,7.65,14,14,0,0,1-9.45,3.22q-12.9,0-12.9-12.45,0-18.45,31.35-18.45M110.38,223q2.32,0,4.35-3.83t2-10.58V194.61h-1q-9.3,0-9.3,13.65v2.4q0,7.8.83,10a3.11,3.11,0,0,0,3.15,2.25m2.78-70.4C91,152.56,79.8,159.44,79.8,173c0,9.45,5.15,14.45,14.9,14.45a16,16,0,0,0,10.75-3.71,11.76,11.76,0,0,0,4.45-9.17,23.39,23.39,0,0,0-1.33-8.29A2,2,0,0,0,106.7,165h-2.27a12.51,12.51,0,0,1-.38-3,2.44,2.44,0,0,1,1.27-2.23,6.68,6.68,0,0,1,3.78-1.1c1.42,0,3.17.4,4.17,3.49s1.48,9.26,1.48,18.51v9.55H112.4c-12.11,0-20.9,1.36-26.87,4.16-6.39,3-9.63,8.53-9.63,16.44,0,16.65,13.16,20.15,24.2,20.15,5.46,0,9.57-1,12.54-3.06a16.05,16.05,0,0,0,4.64-5.08c3.4,5.4,10.36,8.13,20.78,8.13,7.17,0,12.47-1.89,15.75-5.63s5-10,5.45-19.38a2,2,0,0,0-1.86-2.09l-2.25-.15H155a2,2,0,0,0-2,1.88c-.58,10-2.52,13.57-4,13.57s-2.35-2-2.35-5.8V182.91c0-11.35-2.52-19.34-7.5-23.77s-13.48-6.58-26-6.58ZM110.38,221c-.62,0-1-.14-1.27-.94s-.7-2.88-.7-9.36v-2.4c0-9.41,3.39-11.32,6.35-11.61v11.91c0,4.15-.6,7.39-1.79,9.64-.92,1.73-1.88,2.76-2.58,2.76Z"/><path class="cls-2" d="M259.25,154.56q22.05,0,22,25.05v45.15h8.4v2.7H248.15v-2.7h5.25V176q0-11.4-2-13.35a3.24,3.24,0,0,0-2.4-.9q-4.35,0-7.65,5.85t-3.3,14.85v42.3h5.4v2.7H205v-2.7h5.25V176q0-11.4-2-13.35a3.24,3.24,0,0,0-2.4-.9q-4.2,0-7.57,6.38a32.14,32.14,0,0,0-3.37,15.23v41.4h5.4v2.7H158.75v-2.7H167v-66h-8.25v-2.7H194.9v13.8q4.95-15.3,21.82-15.3t20.48,16.2q5.25-16.2,22-16.2m0-2c-10.17,0-17.48,4.17-21.8,12.4-3.54-8.24-10.49-12.4-20.73-12.4-8.85,0-15.49,3-19.82,8.85v-5.35a2,2,0,0,0-2-2H158.75a2,2,0,0,0-2,2v2.7a2,2,0,0,0,2,2H165v62h-6.25a2,2,0,0,0-2,2v2.7a2,2,0,0,0,2,2H200.3a2,2,0,0,0,2-2v-2.7a2,2,0,0,0-2-2h-3.4v-39.4A30.33,30.33,0,0,1,200,169.07c1.87-3.52,3.82-5.31,5.81-5.31a1.23,1.23,0,0,1,1,.31c.14.15,1.37,1.74,1.37,11.94v46.75H205a2,2,0,0,0-2,2v2.7a2,2,0,0,0,2,2H243.5a2,2,0,0,0,2-2v-2.7a2,2,0,0,0-2-2h-3.4v-40.3c0-5.62,1-10.29,3-13.87,1.81-3.21,3.8-4.83,5.91-4.83a1.25,1.25,0,0,1,1,.31c.14.15,1.36,1.74,1.36,11.94v46.75h-3.25a2,2,0,0,0-2,2v2.7a2,2,0,0,0,2,2H289.7a2,2,0,0,0,2-2v-2.7a2,2,0,0,0-2-2h-6.4V179.61c0-8.81-2-15.58-6-20.11s-10.12-6.94-18-6.94Z"/><path class="cls-2" d="M331.25,154.56q34,0,32.7,34.2h-42.3v5.85q0,14.7,3.75,22.2t13,7.5q17.4,0,22.8-18.6l2.7.45Q361.1,217,353.67,223t-22.27,6q-19.35,0-29-10t-9.67-27.75q0-17.78,10.88-27.23t27.67-9.45m-9.45,31.2h15.45v-7.35q0-12.15-1.42-16.58t-5.7-4.42q-4.27,0-6.3,4.72t-2,16.28v7.35m9.45-33.2c-11.64,0-21.4,3.34-29,9.94s-11.56,16.33-11.56,28.74,3.44,22.14,10.24,29.14S318,231,331.4,231c10.32,0,18.24-2.17,23.53-6.44s8.95-10.26,11-17.84a2,2,0,0,0-1.6-2.48l-2.7-.45-.33,0a2,2,0,0,0-1.92,1.44c-3.35,11.54-10.18,17.16-20.88,17.16-5.43,0-9.11-2.09-11.26-6.39-2.35-4.69-3.54-11.86-3.54-21.31v-3.85h40.3a2,2,0,0,0,2-1.92c.47-11.94-2.25-21.08-8.1-27.16s-14.77-9.12-26.6-9.12Zm-7.45,31.2v-5.35c0-7.39.63-12.6,1.86-15.49,1.35-3.15,3.19-3.51,4.46-3.51,2,0,3.11.91,3.8,3,.88,2.74,1.33,8.11,1.33,16v5.35Z"/><path class="cls-2" d="M423.95,154.26v23h-1.8q-7.65-19.5-23.7-19.5-7.05,0-10.5,2.47a7.41,7.41,0,0,0-3.45,6.23,5.38,5.38,0,0,0,1,3.52q1,1.28,1.65,1.88a7.64,7.64,0,0,0,2,1.28q1.35.68,2.25,1c.6.25,1.52.58,2.78,1a21.86,21.86,0,0,0,2.77.75,114.73,114.73,0,0,1,14.7,4.42,50.13,50.13,0,0,1,8.55,4.58q8.25,5.7,8.25,18.38t-7.5,19.2Q413.44,229,400.4,229a39.8,39.8,0,0,1-18-4.35,5.78,5.78,0,0,0-2.85-1.2q-3.3,0-6.45,5.55h-1.8V202.11h1.8q3.9,13,10.5,18.3t16.5,5.25q15.3,0,15.3-9.75a6.8,6.8,0,0,0-3.75-6.3,50.56,50.56,0,0,0-15-5.1,58.65,58.65,0,0,1-17.1-7.2q-8.25-5.4-8.25-17.1t7.2-18.67q7.2-7,19.2-7A37.37,37.37,0,0,1,412.85,158a12.41,12.41,0,0,0,4.35,1.2,3.48,3.48,0,0,0,2.55-1,17.32,17.32,0,0,0,2.55-3.9h1.65m0-2H422.3a2,2,0,0,0-1.77,1.07,15,15,0,0,1-2.19,3.42,1.48,1.48,0,0,1-1.14.46,10.31,10.31,0,0,1-3.57-1,39.46,39.46,0,0,0-15.93-3.61c-8.5,0-15.43,2.54-20.59,7.54s-7.81,11.78-7.81,20.11c0,8.48,3.08,14.8,9.15,18.77a60.9,60.9,0,0,0,17.68,7.46l.13,0a48.83,48.83,0,0,1,14.4,4.88,4.83,4.83,0,0,1,2.73,4.56c0,6.95-7.59,7.75-13.3,7.75-6.11,0-11.24-1.62-15.25-4.81s-7.36-9-9.83-17.31a2,2,0,0,0-1.92-1.43h-1.8a2,2,0,0,0-2,2V229a2,2,0,0,0,2,2h1.8a2,2,0,0,0,1.74-1c1.66-2.93,3.33-4.54,4.71-4.54a4.5,4.5,0,0,1,1.74.86l.21.12A42,42,0,0,0,400.4,231c9.16,0,16.51-2.36,21.86-7s8.19-11.69,8.19-20.71-3.07-15.84-9.11-20a52.44,52.44,0,0,0-8.92-4.78,115.3,115.3,0,0,0-15-4.52l-.16,0a19.46,19.46,0,0,1-2.49-.68c-1.46-.47-2.23-.76-2.61-.92-.55-.23-1.24-.55-2.13-1a5.69,5.69,0,0,1-1.43-.9c-.25-.25-.72-.75-1.52-1.73a3.52,3.52,0,0,1-.6-2.26,5.41,5.41,0,0,1,2.61-4.6c1.94-1.39,5.08-2.1,9.33-2.1,9.88,0,17,6,21.84,18.23a2,2,0,0,0,1.86,1.27h1.8a2,2,0,0,0,2-2v-23a2,2,0,0,0-2-2Z"/></g></g></svg>