<svg xmlns="http://www.w3.org/2000/svg" viewBox="0 0 738.62 501.24"><defs><style>.cls-1{fill:none;stroke:#333;stroke-miterlimit:10;stroke-width:2px;}</style></defs><title>js_header_wire_1</title><g id="Layer_2" data-name="Layer 2"><g id="Layer_2-2" data-name="Layer 2"><path class="cls-1" d="M619.08,56.54V80a3.94,3.94,0,0,1-4.19,3.63H590.77V52.92h24.12A3.94,3.94,0,0,1,619.08,56.54Z"/><rect class="cls-1" x="633.12" y="52.91" width="44.85" height="30.75" rx="4.19" ry="4.19"/><rect class="cls-1" x="633.12" y="93.35" width="44.85" height="30.75" rx="4.19" ry="4.19"/><path class="cls-1" d="M619.08,137.41v23.5a3.94,3.94,0,0,1-4.19,3.63H590.77V133.78h24.12A3.94,3.94,0,0,1,619.08,137.41Z"/><rect class="cls-1" x="633.12" y="133.78" width="44.85" height="30.75" rx="4.19" ry="4.19"/><path class="cls-1" d="M613.45,93.21v31a1.49,1.49,0,0,1-1.58,1.37h-21.1V91.85h21.1A1.48,1.48,0,0,1,613.45,93.21Z"/><path class="cls-1" d="M711.45,12.77v256.8c0,6.51-6.09,11.78-13.61,11.78H590.77V51c0-3.58-3.36-6.5-7.51-6.5H373.45V12.77c0-6.5,6.09-11.77,13.6-11.77H697.84C705.36,1,711.45,6.27,711.45,12.77Z"/><line class="cls-1" x1="373.45" y1="36.47" x2="711.45" y2="36.47"/><line class="cls-1" x1="711.45" y1="260.58" x2="590.77" y2="260.58"/><line class="cls-1" x1="436.45" y1="44.47" x2="436.45" y2="36.48"/><rect class="cls-1" x="584.45" y="15.71" width="28" height="15.57" rx="4.69" ry="4.69"/><rect class="cls-1" x="385.45" y="15.71" width="41" height="15.57" rx="4.69" ry="4.69"/><rect class="cls-1" x="621.45" y="15.71" width="28" height="15.57" rx="4.69" ry="4.69"/><rect class="cls-1" x="657.45" y="15.71" width="28" height="15.57" rx="4.69" ry="4.69"/><rect class="cls-1" x="472.45" y="15.71" width="92" height="15.57" rx="4.69" ry="4.69"/><line class="cls-1" x1="496.45" y1="15.71" x2="496.45" y2="31.28"/><line class="cls-1" x1="519.45" y1="15.71" x2="519.45" y2="31.28"/><line class="cls-1" x1="542.45" y1="15.71" x2="542.45" y2="31.28"/><line class="cls-1" x1="406.45" y1="14.84" x2="406.45" y2="30.42"/><ellipse class="cls-1" cx="389.95" cy="8.35" rx="4.5" ry="3.89"/><ellipse class="cls-1" cx="405.95" cy="8.35" rx="4.5" ry="3.89"/><ellipse class="cls-1" cx="421.95" cy="8.35" rx="4.5" ry="3.89"/><path class="cls-1" d="M287.62,455.47H8.51C4.36,455.47,1,452.56,1,449V51c0-3.58,3.36-6.5,7.51-6.5H583.26c4.15,0,7.51,2.92,7.51,6.5V310.75"/><polyline class="cls-1" points="287.62 443.36 158 443.36 158 66.1 572.34 66.1 572.34 310.75"/><rect class="cls-1" x="15" y="66.11" width="125.6" height="377.26"/><rect class="cls-1" x="174.45" y="194.16" width="258.63" height="6.92"/><rect class="cls-1" x="174.45" y="208.01" width="196.79" height="6.92"/><rect class="cls-1" x="392.64" y="208.01" width="42.17" height="6.92"/><rect class="cls-1" x="174.45" y="221.85" width="258.63" height="6.92"/><rect class="cls-1" x="174.45" y="235.7" width="123.69" height="6.92"/><rect class="cls-1" x="309.39" y="235.7" width="35.14" height="6.92"/><rect class="cls-1" x="174.45" y="249.54" width="178.51" height="6.92"/><rect class="cls-1" x="174.45" y="263.39" width="290.64" height="6.92"/><rect class="cls-1" x="273.13" y="277.23" width="125.94" height="6.92"/><rect class="cls-1" x="174.45" y="277.23" width="88.55" height="6.92"/><rect class="cls-1" x="174.45" y="291.07" width="134.94" height="6.92"/><polyline class="cls-1" points="518.51 310.75 518.51 304.92 174.45 304.92 174.45 311.84 295.51 311.84"/><path class="cls-1" d="M288.33,318.76a10.36,10.36,0,0,0-.71,3.76v3.16H174.45v-6.92Z"/><rect class="cls-1" x="174.45" y="332.6" width="113.17" height="6.92"/><rect class="cls-1" x="174.45" y="346.45" width="113.17" height="6.92"/><rect class="cls-1" x="174.45" y="98.76" width="347.32" height="6.92"/><rect class="cls-1" x="174.45" y="112.6" width="139.63" height="6.92"/><rect class="cls-1" x="174.45" y="126.45" width="123.69" height="6.92"/><rect class="cls-1" x="174.45" y="85.32" width="123.69" height="6.92"/><rect class="cls-1" x="174.45" y="140.29" width="284.93" height="6.92"/><rect class="cls-1" x="174.45" y="154.13" width="197.3" height="6.92"/><rect class="cls-1" x="174.45" y="377.6" width="113.17" height="6.92"/><rect class="cls-1" x="174.45" y="391.44" width="113.17" height="6.92"/><rect class="cls-1" x="174.45" y="432.97" width="113.17" height="6.92"/><rect class="cls-1" x="174.45" y="405.49" width="113.17" height="6.92"/><ellipse class="cls-1" cx="19.5" cy="54.42" rx="4.5" ry="3.89"/><ellipse class="cls-1" cx="35.5" cy="54.42" rx="4.5" ry="3.89"/><ellipse class="cls-1" cx="51.5" cy="54.42" rx="4.5" ry="3.89"/><line class="cls-1" x1="15" y1="137.41" x2="140.6" y2="137.41"/><rect class="cls-1" x="24" y="150.45" width="24" height="18.22"/><rect class="cls-1" x="24" y="179.69" width="24" height="18.22"/><rect class="cls-1" x="23.5" y="207.01" width="24" height="18.22"/><rect class="cls-1" x="24" y="235.45" width="24" height="18.22"/><rect class="cls-1" x="24" y="264.69" width="24" height="18.22"/><rect class="cls-1" x="23.5" y="292.01" width="24" height="18.22"/><rect class="cls-1" x="24" y="318.38" width="24" height="18.22"/><rect class="cls-1" x="24" y="347.62" width="24" height="18.22"/><rect class="cls-1" x="57.39" y="153.57" width="74.05" height="11.97"/><rect class="cls-1" x="57.39" y="182.81" width="66.71" height="11.97"/><rect class="cls-1" x="56" y="209.22" width="51.44" height="11.97"/><rect class="cls-1" x="57.39" y="238.57" width="66.71" height="11.97"/><rect class="cls-1" x="57.39" y="267.81" width="66.71" height="11.97"/><rect class="cls-1" x="56" y="295.14" width="51.44" height="11.97"/><rect class="cls-1" x="57.39" y="321.5" width="74.05" height="11.97"/><rect class="cls-1" x="57.39" y="350.74" width="66.71" height="11.97"/><path class="cls-1" d="M295.51,311.84a15.26,15.26,0,0,1,5.71-1.09H518.51"/><rect class="cls-1" x="292.62" y="354.88" width="50.82" height="6.75"/><rect class="cls-1" x="292.62" y="366.77" width="41.69" height="6.75"/><rect class="cls-1" x="292.62" y="378.66" width="54" height="6.75"/><rect class="cls-1" x="292.62" y="390.56" width="51.62" height="6.75"/><rect class="cls-1" x="292.62" y="402.45" width="41.69" height="6.75"/><rect class="cls-1" x="292.62" y="414.34" width="47.25" height="6.75"/><rect class="cls-1" x="292.62" y="426.24" width="41.69" height="6.75"/><rect class="cls-1" x="292.62" y="438.13" width="51.62" height="6.75"/><rect class="cls-1" x="292.62" y="450.02" width="41.69" height="6.75"/><rect class="cls-1" x="292.62" y="461.92" width="47.25" height="6.75"/><rect class="cls-1" x="292.62" y="473.81" width="51.62" height="6.75"/><rect class="cls-1" x="370.62" y="362.66" width="44.85" height="30.75" rx="4.19" ry="4.19"/><rect class="cls-1" x="488.4" y="362.66" width="44.85" height="30.75" rx="4.19" ry="4.19"/><rect class="cls-1" x="547.29" y="362.66" width="44.85" height="30.75" rx="4.19" ry="4.19"/><rect class="cls-1" x="370.62" y="403.1" width="44.85" height="30.75" rx="4.19" ry="4.19"/><rect class="cls-1" x="429.51" y="403.1" width="44.85" height="30.75" rx="4.19" ry="4.19"/><rect class="cls-1" x="547.29" y="403.1" width="44.85" height="30.75" rx="4.19" ry="4.19"/><rect class="cls-1" x="606.18" y="403.1" width="44.85" height="30.75" rx="4.19" ry="4.19"/><rect class="cls-1" x="665.08" y="362.66" width="44.85" height="30.75" rx="4.19" ry="4.19"/><rect class="cls-1" x="665.08" y="403.1" width="44.85" height="30.75" rx="4.19" ry="4.19"/><rect class="cls-1" x="370.62" y="443.53" width="44.85" height="30.75" rx="4.19" ry="4.19"/><rect class="cls-1" x="429.51" y="443.53" width="44.85" height="30.75" rx="4.19" ry="4.19"/><rect class="cls-1" x="488.4" y="443.53" width="44.85" height="30.75" rx="4.19" ry="4.19"/><rect class="cls-1" x="547.29" y="443.53" width="44.85" height="30.75" rx="4.19" ry="4.19"/><rect class="cls-1" x="606.18" y="443.53" width="44.85" height="30.75" rx="4.19" ry="4.19"/><rect class="cls-1" x="665.08" y="443.53" width="44.85" height="30.75" rx="4.19" ry="4.19"/><rect class="cls-1" x="493.62" y="401.6" width="34" height="33.75" rx="1.57" ry="1.57"/><rect class="cls-1" x="436.62" y="360.93" width="34" height="33.75" rx="1.57" ry="1.57"/><rect class="cls-1" x="611.62" y="360.93" width="34" height="33.75" rx="1.57" ry="1.57"/><rect class="cls-1" x="287.62" y="310.75" width="450" height="189.49" rx="13.61" ry="13.61"/><line class="cls-1" x1="287.62" y1="346.22" x2="737.62" y2="346.22"/><line class="cls-1" x1="287.62" y1="488.99" x2="737.62" y2="488.99"/><line class="cls-1" x1="350.62" y1="346.22" x2="350.62" y2="488.99"/><rect class="cls-1" x="527.62" y="325.46" width="28" height="15.57" rx="4.69" ry="4.69"/><rect class="cls-1" x="299.62" y="325.46" width="41" height="15.57" rx="4.69" ry="4.69"/><rect class="cls-1" x="564.62" y="325.46" width="28" height="15.57" rx="4.69" ry="4.69"/><rect class="cls-1" x="600.62" y="325.46" width="28" height="15.57" rx="4.69" ry="4.69"/><rect class="cls-1" x="647.62" y="325.46" width="81" height="15.57" rx="4.69" ry="4.69"/><rect class="cls-1" x="415.62" y="325.46" width="92" height="15.57" rx="4.69" ry="4.69"/><line class="cls-1" x1="439.62" y1="325.46" x2="439.62" y2="341.03"/><line class="cls-1" x1="462.62" y1="325.46" x2="462.62" y2="341.03"/><line class="cls-1" x1="485.62" y1="325.46" x2="485.62" y2="341.03"/><line class="cls-1" x1="320.62" y1="324.59" x2="320.62" y2="340.17"/><ellipse class="cls-1" cx="304.12" cy="318.1" rx="4.5" ry="3.89"/><ellipse class="cls-1" cx="320.12" cy="318.1" rx="4.5" ry="3.89"/><ellipse class="cls-1" cx="336.12" cy="318.1" rx="4.5" ry="3.89"/></g></g></svg>