<svg xmlns="http://www.w3.org/2000/svg" viewBox="0 0 894 582"><defs><style>.cls-1,.cls-3{fill:none;stroke-miterlimit:10;stroke-width:2px;}.cls-1{stroke:#333;}.cls-2{fill:#333;}.cls-3{stroke:#1d1d1b;}</style></defs><title>maya_header_wire_1</title><g id="Layer_2" data-name="Layer 2"><g id="Layer_5" data-name="Layer 5"><rect class="cls-1" x="1" y="1" width="892" height="580" rx="12.46" ry="12.46"/><rect class="cls-1" x="26" y="86.51" width="612" height="448.01"/><rect class="cls-1" x="26" y="60.49" width="612" height="26.03"/><rect class="cls-1" x="638" y="60.49" width="244" height="474.04"/><rect class="cls-1" x="460" y="565.2" width="421" height="15.8"/><rect class="cls-1" x="33" y="565.2" width="421" height="15.8"/><rect class="cls-1" x="6" y="540.1" width="719" height="19.52"/><rect class="cls-1" x="731" y="541.96" width="30" height="16.73"/><line class="cls-1" x1="36" y1="549.4" x2="36" y2="559.62"/><line class="cls-1" x1="66" y1="549.4" x2="66" y2="559.62"/><line class="cls-1" x1="95" y1="549.4" x2="95" y2="559.62"/><line class="cls-1" x1="124" y1="549.4" x2="124" y2="559.62"/><line class="cls-1" x1="154" y1="549.4" x2="154" y2="559.62"/><line class="cls-1" x1="183" y1="549.4" x2="183" y2="559.62"/><line class="cls-1" x1="212" y1="549.4" x2="212" y2="559.62"/><line class="cls-1" x1="242" y1="549.4" x2="242" y2="559.62"/><line class="cls-1" x1="272" y1="549.4" x2="272" y2="559.62"/><line class="cls-1" x1="302" y1="549.4" x2="302" y2="559.62"/><line class="cls-1" x1="331" y1="549.4" x2="331" y2="559.62"/><line class="cls-1" x1="360" y1="549.4" x2="360" y2="559.62"/><line class="cls-1" x1="391" y1="549.4" x2="391" y2="559.62"/><line class="cls-1" x1="421" y1="549.4" x2="421" y2="559.62"/><line class="cls-1" x1="449" y1="549.4" x2="449" y2="559.62"/><line class="cls-1" x1="479" y1="549.4" x2="479" y2="559.62"/><line class="cls-1" x1="509" y1="549.4" x2="509" y2="559.62"/><line class="cls-1" x1="539" y1="549.4" x2="539" y2="559.62"/><line class="cls-1" x1="567" y1="549.4" x2="567" y2="559.62"/><line class="cls-1" x1="597" y1="549.4" x2="597" y2="559.62"/><line class="cls-1" x1="627" y1="549.4" x2="627" y2="559.62"/><line class="cls-1" x1="657" y1="549.4" x2="657" y2="559.62"/><line class="cls-1" x1="686" y1="549.4" x2="686" y2="559.62"/><line class="cls-1" x1="715" y1="549.4" x2="715" y2="559.62"/><rect class="cls-1" x="768" y="541.96" width="120" height="16.73"/><polygon class="cls-1" points="816.86 550.37 824 554.2 824 546.54 816.86 550.37"/><polygon class="cls-1" points="840.07 550.34 833 546.54 833 554.13 840.07 550.34"/><line class="cls-1" x1="855" y1="546.61" x2="855" y2="554.04"/><polygon class="cls-1" points="854.29 550.38 849 547.54 849 553.22 854.29 550.38"/><line class="cls-1" x1="870" y1="546.61" x2="870" y2="554.04"/><polygon class="cls-1" points="869.41 550.44 864 547.54 864 553.35 869.41 550.44"/><line class="cls-1" x1="803" y1="554.04" x2="803" y2="546.61"/><polygon class="cls-1" points="803.69 550.39 809 553.24 809 547.54 803.69 550.39"/><line class="cls-1" x1="787" y1="554.04" x2="787" y2="546.61"/><polygon class="cls-1" points="787.51 550.48 793 553.43 793 547.54 787.51 550.48"/><line class="cls-1" x1="771" y1="554.04" x2="771" y2="546.61"/><path class="cls-2" d="M770.2,550.28l4.8,2.57v-5.14Zm3.8,1-1.8-1,1.8-1Z"/><path class="cls-2" d="M774.93,549.53l-.93.5v.5l.93.5,3.07,1.65v-4.8Zm2.07,1.72-1.79-1,1.79-1Z"/><line class="cls-1" x1="884" y1="546.61" x2="884" y2="554.04"/><path class="cls-2" d="M884.8,550.28l-4.8-2.57v5.14Zm-3.8-1,1.8,1-1.8,1Z"/><path class="cls-2" d="M880.07,551l.93-.5V550l-.93-.5L877,547.88v4.8ZM878,549.32l1.79,1-1.79,1Z"/><rect class="cls-1" x="646" y="98.6" width="230" height="415.48"/><line class="cls-1" x1="646" y1="111.61" x2="877" y2="111.61"/><line class="cls-1" x1="715" y1="98.6" x2="715" y2="111.61"/><rect class="cls-1" x="727" y="163.66" width="67" height="47.4"/><ellipse class="cls-1" cx="761" cy="187.83" rx="18" ry="16.73"/><rect class="cls-1" x="652" y="214.78" width="210" height="65.99"/><rect class="cls-1" x="652" y="308.66" width="210" height="146.86"/><rect class="cls-1" x="738" y="226.87" width="38" height="10.22"/><rect class="cls-1" x="738" y="240.81" width="38" height="10.22"/><rect class="cls-1" x="738" y="254.75" width="38" height="10.22"/><rect class="cls-1" x="738" y="267.76" width="38" height="10.22"/><line class="cls-1" x1="785" y1="232.44" x2="855" y2="232.44"/><rect class="cls-1" x="794" y="226.87" width="5" height="10.22" rx="1.6" ry="1.6"/><line class="cls-1" x1="785" y1="245.46" x2="855" y2="245.46"/><rect class="cls-1" x="806" y="240.81" width="5" height="10.22" rx="1.6" ry="1.6"/><line class="cls-1" x1="785" y1="259.4" x2="855" y2="259.4"/><rect class="cls-1" x="826" y="254.75" width="5" height="10.22" rx="1.6" ry="1.6"/><line class="cls-1" x1="785" y1="273.34" x2="855" y2="273.34"/><rect class="cls-1" x="794" y="267.76" width="5" height="10.22" rx="1.6" ry="1.6"/><rect class="cls-1" x="738" y="338.4" width="102" height="9.29"/><rect class="cls-1" x="738" y="352.35" width="38" height="8.37"/><rect class="cls-1" x="738" y="365.36" width="38" height="11.15"/><rect class="cls-1" x="738" y="380.23" width="9" height="8.37"/><rect class="cls-1" x="738" y="392.31" width="102" height="11.15"/><rect class="cls-1" x="738" y="406.26" width="102" height="11.15"/><rect class="cls-1" x="846" y="406.26" width="9" height="9.29"/><rect class="cls-1" x="738" y="420.2" width="38" height="9.29"/><rect class="cls-1" x="738" y="433.21" width="38" height="9.29"/><rect class="cls-1" x="696" y="339.33" width="38" height="6.51"/><rect class="cls-1" x="727" y="134.85" width="86" height="9.29"/><rect class="cls-1" x="835" y="118.12" width="39" height="12.08"/><rect class="cls-1" x="835" y="132.99" width="39" height="12.08"/><rect class="cls-1" x="835" y="147.86" width="39" height="12.08"/><rect class="cls-1" x="691" y="135.78" width="32" height="6.51"/><rect class="cls-1" x="646" y="79.08" width="14" height="6.51"/><rect class="cls-1" x="665" y="79.08" width="24" height="6.51"/><rect class="cls-1" x="693" y="79.08" width="24" height="6.51"/><rect class="cls-1" x="725" y="79.08" width="27" height="6.51"/><rect class="cls-1" x="758" y="79.08" width="18" height="6.51"/><rect class="cls-1" x="782" y="79.08" width="20" height="6.51"/><rect class="cls-1" x="807" y="79.08" width="16" height="6.51"/><rect class="cls-1" x="738" y="488.05" width="102" height="9.29"/><rect class="cls-1" x="696" y="488.98" width="38" height="6.51"/><rect class="cls-1" x="665" y="462.03" width="38" height="6.51"/><rect class="cls-1" x="665" y="286.35" width="38" height="6.51"/><rect class="cls-1" x="665" y="298.44" width="38" height="6.51"/><rect class="cls-1" x="738" y="501.06" width="102" height="9.29"/><rect class="cls-1" x="696" y="501.99" width="38" height="6.51"/><rect class="cls-1" x="738" y="312.38" width="102" height="9.29"/><rect class="cls-1" x="696" y="313.31" width="38" height="6.51"/><rect class="cls-1" x="696" y="353.28" width="38" height="6.51"/><rect class="cls-1" x="696" y="367.22" width="38" height="6.51"/><rect class="cls-1" x="696" y="228.72" width="38" height="6.51"/><rect class="cls-1" x="696" y="242.67" width="38" height="6.51"/><rect class="cls-1" x="696" y="255.68" width="38" height="6.51"/><rect class="cls-1" x="681" y="269.62" width="52" height="6.51"/><rect class="cls-1" x="663" y="394.17" width="70" height="6.51"/><rect class="cls-1" x="663" y="407.19" width="70" height="6.51"/><rect class="cls-1" x="663" y="421.13" width="70" height="6.51"/><rect class="cls-1" x="671" y="434.14" width="62" height="6.51"/><rect class="cls-1" x="652" y="471.32" width="210" height="42.76"/><polygon class="cls-3" points="656.22 299.37 660.91 299.37 658.56 303.14 656.22 299.37"/><polygon class="cls-3" points="657 292.33 657 287.39 661.6 289.86 657 292.33"/><rect class="cls-1" x="5" y="70.71" width="18" height="20.45"/><rect class="cls-1" x="5" y="94.88" width="18" height="20.45"/><rect class="cls-1" x="5" y="119.04" width="18" height="20.45"/><rect class="cls-1" x="5" y="144.14" width="18" height="20.45"/><rect class="cls-1" x="5" y="168.31" width="18" height="20.45"/><rect class="cls-1" x="5" y="192.47" width="18" height="20.45"/><rect class="cls-1" x="5" y="266.83" width="18" height="20.45"/><rect class="cls-1" x="5" y="291" width="18" height="20.45"/><rect class="cls-1" x="5" y="315.17" width="18" height="20.45"/><rect class="cls-1" x="5" y="339.33" width="18" height="20.45"/><rect class="cls-1" x="5" y="363.5" width="18" height="20.45"/><rect class="cls-1" x="5" y="388.6" width="18" height="20.45"/><line class="cls-1" x1="1" y1="12.15" x2="893" y2="12.15"/><rect class="cls-1" x="26" y="19.59" width="856" height="34.39"/><line class="cls-1" x1="26" y1="28.88" x2="882" y2="28.88"/><line class="cls-1" x1="613" y1="28.88" x2="613" y2="53.05"/><line class="cls-1" x1="591" y1="28.88" x2="591" y2="53.05"/><line class="cls-1" x1="568" y1="28.88" x2="568" y2="53.05"/><line class="cls-1" x1="546" y1="28.88" x2="546" y2="53.05"/><line class="cls-1" x1="523" y1="28.88" x2="523" y2="53.05"/><line class="cls-1" x1="501" y1="28.88" x2="501" y2="53.05"/><line class="cls-1" x1="478" y1="28.88" x2="478" y2="53.05"/><line class="cls-1" x1="456" y1="28.88" x2="456" y2="53.05"/><line class="cls-1" x1="433" y1="28.88" x2="433" y2="53.05"/><line class="cls-1" x1="411" y1="28.88" x2="411" y2="53.05"/><line class="cls-1" x1="388" y1="28.88" x2="388" y2="53.05"/><line class="cls-1" x1="366" y1="28.88" x2="366" y2="53.05"/><line class="cls-1" x1="343" y1="28.88" x2="343" y2="53.05"/><line class="cls-1" x1="321" y1="28.88" x2="321" y2="53.05"/><line class="cls-1" x1="298" y1="28.88" x2="298" y2="53.05"/><line class="cls-1" x1="276" y1="28.88" x2="276" y2="53.05"/><line class="cls-1" x1="253" y1="28.88" x2="253" y2="53.05"/><line class="cls-1" x1="231" y1="28.88" x2="231" y2="53.05"/><line class="cls-1" x1="208" y1="28.88" x2="208" y2="53.05"/><line class="cls-1" x1="186" y1="28.88" x2="186" y2="53.05"/><line class="cls-1" x1="163" y1="28.88" x2="163" y2="53.05"/><line class="cls-1" x1="141" y1="28.88" x2="141" y2="53.05"/><line class="cls-1" x1="118" y1="28.88" x2="118" y2="53.05"/><line class="cls-1" x1="96" y1="28.88" x2="96" y2="53.05"/><line class="cls-1" x1="73" y1="28.88" x2="73" y2="53.05"/><line class="cls-1" x1="51" y1="28.88" x2="51" y2="53.05"/><path class="cls-1" d="M605.34,404.71H63.49l133.08-162h275.7Z"/><path class="cls-1" d="M225.56,243.33l-104.3,161"/><path class="cls-1" d="M256.88,243.33l-74.29,161"/><path class="cls-1" d="M288.2,243.33l-44.28,161"/><path class="cls-1" d="M319.53,243.33l-14.26,161"/><path class="cls-1" d="M350.85,243.33l15.75,161"/><path class="cls-1" d="M382.18,243.33l45.76,161"/><path class="cls-1" d="M413.5,243.33l75.77,161"/><path class="cls-1" d="M444.82,243.33l105.78,161"/><line class="cls-1" x1="178" y1="265.9" x2="491" y2="265.9"/><path class="cls-1" d="M81.91,382.73h505"/><path class="cls-1" d="M101.08,359.37H567.75"/><path class="cls-1" d="M120.26,336H548.57"/><line class="cls-1" x1="139" y1="312.38" x2="529" y2="312.38"/><line class="cls-1" x1="159" y1="289.14" x2="510" y2="289.14"/></g></g></svg>